<svg width="69" height="79" viewBox="0 0 69 79" fill="none" xmlns="http://www.w3.org/2000/svg">
<path fill-rule="evenodd" clip-rule="evenodd" d="M9.09154 1.50879H59.1743C63.6897 1.50879 67.3631 5.18232 67.3631 9.69764V59.7805C67.3631 63.5239 64.8371 66.6865 61.4009 67.6591V75.2822C61.4009 76.5119 60.404 77.5088 59.1743 77.5088H49.6347C48.4051 77.5088 47.4082 76.5119 47.4082 75.2822V67.9692H20.8576V75.2822C20.8576 76.5119 19.8607 77.5088 18.631 77.5088H9.09154C7.86188 77.5088 6.86497 76.5119 6.86497 75.2822V67.6589C3.42879 66.6864 0.902832 63.5238 0.902832 59.7803V9.69764C0.902832 5.18232 4.57622 1.50879 9.09154 1.50879ZM53.3701 15.5015H14.8953V53.9765H53.3701V15.5015ZM10.4422 42.0521H5.35596V27.426H10.4423V42.0521H10.4422ZM11.3181 73.0557H16.4043H16.4045V67.9692H11.3181V73.0557ZM56.9478 73.0557H51.8611V67.9692H56.9478V73.0557ZM59.1743 63.516C61.2342 63.516 62.9099 61.8402 62.9099 59.7803V9.69764C62.9099 7.63777 61.2342 5.96191 59.1743 5.96191H9.09154C7.03167 5.96191 5.35596 7.63777 5.35596 9.69764V22.9729H10.4422V13.2748C10.4422 12.0452 11.4391 11.0483 12.6687 11.0483H55.5969C56.8265 11.0483 57.8234 12.0452 57.8234 13.2748V56.203C57.8234 57.4326 56.8265 58.4295 55.5969 58.4295H12.6689C11.4392 58.4295 10.4423 57.4326 10.4423 56.203V46.5051H5.35596V59.7803C5.35596 61.8402 7.03167 63.516 9.09154 63.516H18.6309H49.6346H59.1743Z" fill="#B8B8B8"/>
<path d="M61.4009 67.6591L61.1967 66.9374L60.6509 67.0919V67.6591H61.4009ZM47.4082 67.9692H48.1582V67.2192H47.4082V67.9692ZM20.8576 67.9692V67.2192H20.1076V67.9692H20.8576ZM6.86497 67.6589H7.61497V67.0917L7.06923 66.9373L6.86497 67.6589ZM14.8953 15.5015V14.7515H14.1453V15.5015H14.8953ZM53.3701 15.5015H54.1201V14.7515H53.3701V15.5015ZM14.8953 53.9765H14.1453V54.7265H14.8953V53.9765ZM53.3701 53.9765V54.7265H54.1201V53.9765H53.3701ZM5.35596 42.0521H4.60596V42.8021H5.35596V42.0521ZM5.35596 27.426V26.676H4.60596V27.426H5.35596ZM10.4423 27.426H11.1923V26.676H10.4423V27.426ZM10.4423 42.0521V42.8021H11.1923V42.0521H10.4423ZM11.3181 73.0557H10.5681V73.8057H11.3181V73.0557ZM16.4045 73.0557V73.8057H17.1545V73.0557H16.4045ZM16.4045 67.9692H17.1545V67.2192H16.4045V67.9692ZM11.3181 67.9692V67.2192H10.5681V67.9692H11.3181ZM51.8611 73.0557H51.1111V73.8057H51.8611V73.0557ZM56.9478 73.0557V73.8057H57.6978V73.0557H56.9478ZM51.8611 67.9692V67.2192H51.1111V67.9692H51.8611ZM56.9478 67.9692H57.6978V67.2192H56.9478V67.9692ZM5.35596 22.9729H4.60596V23.7229H5.35596V22.9729ZM10.4422 22.9729V23.7229H11.1922V22.9729H10.4422ZM10.4423 46.5051H11.1923V45.7551H10.4423V46.5051ZM5.35596 46.5051V45.7551H4.60596V46.5051H5.35596ZM59.1743 0.758789H9.09154V2.25879H59.1743V0.758789ZM68.1131 9.69764C68.1131 4.76812 64.1039 0.758789 59.1743 0.758789V2.25879C63.2754 2.25879 66.6131 5.59652 66.6131 9.69764H68.1131ZM68.1131 59.7805V9.69764H66.6131V59.7805H68.1131ZM61.6052 68.3807C65.3546 67.3195 68.1131 63.8693 68.1131 59.7805H66.6131C66.6131 63.1785 64.3196 66.0535 61.1967 66.9374L61.6052 68.3807ZM62.1509 75.2822V67.6591H60.6509V75.2822H62.1509ZM59.1743 78.2588C60.8182 78.2588 62.1509 76.9261 62.1509 75.2822H60.6509C60.6509 76.0977 59.9898 76.7588 59.1743 76.7588V78.2588ZM49.6347 78.2588H59.1743V76.7588H49.6347V78.2588ZM46.6582 75.2822C46.6582 76.9261 47.9908 78.2588 49.6347 78.2588V76.7588C48.8193 76.7588 48.1582 76.0977 48.1582 75.2822H46.6582ZM46.6582 67.9692V75.2822H48.1582V67.9692H46.6582ZM20.8576 68.7192H47.4082V67.2192H20.8576V68.7192ZM21.6076 75.2822V67.9692H20.1076V75.2822H21.6076ZM18.631 78.2588C20.2749 78.2588 21.6076 76.9261 21.6076 75.2822H20.1076C20.1076 76.0977 19.4465 76.7588 18.631 76.7588V78.2588ZM9.09154 78.2588H18.631V76.7588H9.09154V78.2588ZM6.11497 75.2822C6.11497 76.9261 7.44767 78.2588 9.09154 78.2588V76.7588C8.27609 76.7588 7.61497 76.0977 7.61497 75.2822H6.11497ZM6.11497 67.6589V75.2822H7.61497V67.6589H6.11497ZM0.152832 59.7803C0.152832 63.8692 2.91127 67.3193 6.66072 68.3806L7.06923 66.9373C3.94631 66.0534 1.65283 63.1783 1.65283 59.7803H0.152832ZM0.152832 9.69764V59.7803H1.65283V9.69764H0.152832ZM9.09154 0.758789C4.16198 0.758789 0.152832 4.76812 0.152832 9.69764H1.65283C1.65283 5.59652 4.99045 2.25879 9.09154 2.25879V0.758789ZM14.8953 16.2515H53.3701V14.7515H14.8953V16.2515ZM15.6453 53.9765V15.5015H14.1453V53.9765H15.6453ZM53.3701 53.2265H14.8953V54.7265H53.3701V53.2265ZM52.6201 15.5015V53.9765H54.1201V15.5015H52.6201ZM5.35596 42.8021H10.4422V41.3021H5.35596V42.8021ZM4.60596 27.426V42.0521H6.10596V27.426H4.60596ZM10.4423 26.676H5.35596V28.176H10.4423V26.676ZM11.1923 42.0521V27.426H9.69232V42.0521H11.1923ZM10.4422 42.8021H10.4423V41.3021H10.4422V42.8021ZM16.4043 72.3057H11.3181V73.8057H16.4043V72.3057ZM16.4045 72.3057H16.4043V73.8057H16.4045V72.3057ZM15.6545 67.9692V73.0557H17.1545V67.9692H15.6545ZM11.3181 68.7192H16.4045V67.2192H11.3181V68.7192ZM12.0681 73.0557V67.9692H10.5681V73.0557H12.0681ZM51.8611 73.8057H56.9478V72.3057H51.8611V73.8057ZM51.1111 67.9692V73.0557H52.6111V67.9692H51.1111ZM56.9478 67.2192H51.8611V68.7192H56.9478V67.2192ZM57.6978 73.0557V67.9692H56.1978V73.0557H57.6978ZM62.1599 59.7803C62.1599 61.426 60.82 62.766 59.1743 62.766V64.266C61.6485 64.266 63.6599 62.2543 63.6599 59.7803H62.1599ZM62.1599 9.69764V59.7803H63.6599V9.69764H62.1599ZM59.1743 6.71191C60.82 6.71191 62.1599 8.05195 62.1599 9.69764H63.6599C63.6599 7.2236 61.6485 5.21191 59.1743 5.21191V6.71191ZM9.09154 6.71191H59.1743V5.21191H9.09154V6.71191ZM6.10596 9.69764C6.10596 8.05195 7.44592 6.71191 9.09154 6.71191V5.21191C6.61742 5.21191 4.60596 7.2236 4.60596 9.69764H6.10596ZM6.10596 22.9729V9.69764H4.60596V22.9729H6.10596ZM10.4422 22.2229H5.35596V23.7229H10.4422V22.2229ZM9.69217 13.2748V22.9729H11.1922V13.2748H9.69217ZM12.6687 10.2983C11.0249 10.2983 9.69217 11.631 9.69217 13.2748H11.1922C11.1922 12.4594 11.8533 11.7983 12.6687 11.7983V10.2983ZM55.5969 10.2983H12.6687V11.7983H55.5969V10.2983ZM58.5734 13.2748C58.5734 11.631 57.2407 10.2983 55.5969 10.2983V11.7983C56.4123 11.7983 57.0734 12.4594 57.0734 13.2748H58.5734ZM58.5734 56.203V13.2748H57.0734V56.203H58.5734ZM55.5969 59.1795C57.2407 59.1795 58.5734 57.8468 58.5734 56.203H57.0734C57.0734 57.0184 56.4123 57.6795 55.5969 57.6795V59.1795ZM12.6689 59.1795H55.5969V57.6795H12.6689V59.1795ZM9.69232 56.203C9.69232 57.8468 11.025 59.1795 12.6689 59.1795V57.6795C11.8534 57.6795 11.1923 57.0184 11.1923 56.203H9.69232ZM9.69232 46.5051V56.203H11.1923V46.5051H9.69232ZM5.35596 47.2551H10.4423V45.7551H5.35596V47.2551ZM6.10596 59.7803V46.5051H4.60596V59.7803H6.10596ZM9.09154 62.766C7.44592 62.766 6.10596 61.426 6.10596 59.7803H4.60596C4.60596 62.2543 6.61742 64.266 9.09154 64.266V62.766ZM18.6309 62.766H9.09154V64.266H18.6309V62.766ZM49.6346 62.766H18.6309V64.266H49.6346V62.766ZM59.1743 62.766H49.6346V64.266H59.1743V62.766Z" fill="#1F2223"/>
<path fill-rule="evenodd" clip-rule="evenodd" d="M45.0054 26.4254L43.4391 27.9917C44.818 29.8881 45.6327 32.22 45.6327 34.7389C45.6327 37.2579 44.818 39.5899 43.439 41.4865L45.0054 43.0527C45.712 43.7594 45.712 44.9051 45.0054 45.6116C44.6522 45.9649 44.1889 46.1417 43.726 46.1417C43.263 46.1417 42.7999 45.9649 42.4466 45.6116L40.88 44.0455C38.9835 45.4244 36.6515 46.2391 34.1326 46.2391C31.6136 46.2391 29.2817 45.4244 27.3852 44.0455L25.8191 45.6117C25.4659 45.9651 25.0026 46.1418 24.5396 46.1418C24.0767 46.1418 23.6137 45.9652 23.2602 45.6119C22.5537 44.9051 22.5536 43.7595 23.2601 43.0529L24.8264 41.4864C23.4476 39.5899 22.6329 37.258 22.6329 34.7391C22.6329 32.2201 23.4476 29.8884 24.8264 27.9917L23.2601 26.4254C22.5536 25.7186 22.5537 24.573 23.2602 23.8664C23.967 23.16 25.1126 23.1601 25.8192 23.8665L27.3854 25.4327C29.2819 24.0538 31.6137 23.2391 34.1327 23.2391C36.6516 23.2391 38.9836 24.0538 40.8801 25.4329L42.4465 23.8665C43.1531 23.16 44.2988 23.16 45.0054 23.8665C45.712 24.5731 45.712 25.7189 45.0054 26.4254ZM34.1328 26.858C29.7873 26.858 26.2519 30.3934 26.2519 34.7389C26.2519 39.0847 29.7873 42.62 34.1328 42.62C38.4784 42.62 42.0139 39.0846 42.0139 34.7389C42.0139 30.3934 38.4784 26.858 34.1328 26.858Z" fill="#BAFD02"/>
</svg>
