<svg width="50" height="50" viewBox="0 0 50 50" fill="none" xmlns="http://www.w3.org/2000/svg">
<g id="Group 5499">
<path id="Vector" d="M25 50C38.8071 50 50 38.8071 50 25C50 11.1929 38.8071 0 25 0C11.1929 0 0 11.1929 0 25C0 38.8071 11.1929 50 25 50Z" fill="#F0B90B"/>
<path id="Vector_2" d="M17.3253 15.3034L25.0002 10.8359L32.675 15.3034L29.8532 16.9538L25.0002 14.1368L20.1467 16.9538L17.3253 15.3034ZM32.675 20.9376L29.8532 19.2871L25.0002 22.1043L20.1467 19.2871L17.3253 20.9376V24.2384L22.1784 27.0553V32.6896L25.0002 34.34L27.8218 32.6896V27.0553L32.675 24.2384V20.9376ZM32.675 29.8724V26.5716L29.8532 28.222V31.5229L32.675 29.8724ZM34.6783 31.0392L29.8252 33.8561V37.1569L37.5 32.6896V23.7547L34.6783 25.4049V31.0392ZM31.8566 18.1204L34.6783 19.7709V23.0717L37.5 21.4213V18.1204L34.6783 16.4701L31.8566 18.1204ZM22.1784 35.0514V38.3522L25.0002 40.0026L27.8218 38.3522V35.0514L25.0002 36.7018L22.1784 35.0514ZM17.3253 29.8724L20.1467 31.5229V28.222L17.3253 26.5716V29.8724ZM22.1784 18.1204L25.0002 19.7709L27.8218 18.1204L25.0002 16.4701L22.1784 18.1204ZM15.3217 19.7709L18.1434 18.1204L15.3217 16.4701L12.5 18.1204V21.4213L15.3217 23.0717V19.7709ZM15.3217 25.4049L12.5 23.7547V32.6896L20.1751 37.1569V33.8561L15.3217 31.0392V25.4049Z" fill="white"/>
</g>
</svg>
