<svg width="50" height="50" viewBox="0 0 50 50" fill="none" xmlns="http://www.w3.org/2000/svg">
<g id="Group 5505">
<path id="Vector" d="M25 50C38.8071 50 50 38.8071 50 25C50 11.1929 38.8071 0 25 0C11.1929 0 0 11.1929 0 25C0 38.8071 11.1929 50 25 50Z" fill="#0A15EE"/>
<path id="Vector_2" d="M23.4733 7.95661C24.329 7.5353 25.6309 7.5353 26.4865 7.95661L35.2172 12.2556C35.7325 12.5094 36.0155 12.8875 36.0662 13.2778H36.0745V34.8871C36.0632 35.3128 35.7775 35.7357 35.2172 36.0117L26.4865 40.3107C25.6309 40.7321 24.329 40.7321 23.4733 40.3107L14.7426 36.0117C14.1846 35.737 13.9169 35.3111 13.9036 34.8871C13.9023 34.8454 13.9021 34.8106 13.9034 34.7817V13.4166C13.9025 13.3932 13.9024 13.3698 13.9031 13.3466L13.9036 13.2778H13.9075C13.9463 12.8832 14.2165 12.5147 14.7426 12.2556L23.4733 7.95661ZM34.7001 25.3336L26.4865 29.378C25.6309 29.7993 24.329 29.7993 23.4733 29.378L15.2776 25.3426V34.8443L23.4733 38.8586C23.9361 39.0892 24.4165 39.3139 24.8861 39.3426L24.9799 39.3454C25.4693 39.3469 25.9445 39.1152 26.4263 38.896L34.7001 34.8098V25.3336ZM12.4835 34.4173C12.4835 35.2451 12.5868 35.7893 12.7917 36.1728C12.9615 36.4906 13.2165 36.7333 13.6818 37.0289L13.7084 37.0456C13.8105 37.1098 13.923 37.1771 14.0599 37.2559L14.2214 37.3481L14.7173 37.6272L14.006 38.7236L13.451 38.411L13.3577 38.3576C13.1972 38.2651 13.0642 38.186 12.9401 38.1079C11.6139 37.2742 11.1192 36.3656 11.1095 34.4748L11.1094 34.4173H12.4835ZM24.2925 19.5416C24.229 19.562 24.1695 19.5855 24.1151 19.6122L15.3844 23.9113C15.3753 23.9158 15.3665 23.9202 15.3582 23.9246L15.3508 23.9286L15.3645 23.936L15.3844 23.9461L24.1151 28.2451C24.1695 28.2719 24.229 28.2954 24.2925 28.3157V19.5416ZM25.6672 19.5416V28.3157C25.7308 28.2954 25.7904 28.2719 25.8446 28.2451L34.5754 23.9461C34.5845 23.9416 34.5933 23.9371 34.6016 23.9326L34.609 23.9286L34.5953 23.9214L34.5754 23.9113L25.8446 19.6122C25.7904 19.5855 25.7308 19.562 25.6672 19.5416ZM34.7001 14.8107L26.8681 18.6672L34.7001 22.5238V14.8107ZM15.2776 14.8197V22.5147L23.0915 18.6672L15.2776 14.8197ZM25.8446 9.08947C25.3906 8.86589 24.5692 8.86589 24.1151 9.08947L15.3844 13.3886C15.3753 13.3931 15.3665 13.3976 15.3582 13.4019L15.3508 13.4059L15.3645 13.4132L15.3844 13.4233L24.1151 17.7224C24.5692 17.946 25.3906 17.946 25.8446 17.7224L34.5754 13.4233C34.5845 13.4188 34.5933 13.4143 34.6016 13.4099L34.609 13.4059L34.5953 13.3986L34.5754 13.3886L25.8446 9.08947ZM35.9904 9.56089L36.5455 9.87347L36.6387 9.92681C36.7992 10.0192 36.9322 10.0986 37.0563 10.1765C38.3825 11.0101 38.8772 11.919 38.8868 13.8096L38.8871 13.8671H37.5129C37.5129 13.0392 37.4096 12.4951 37.2047 12.1116C37.0349 11.7939 36.78 11.5511 36.3146 11.2556L36.2881 11.2388C36.186 11.1746 36.0735 11.1074 35.9365 11.0283L35.775 10.9361L35.2791 10.6571L35.9904 9.56089Z" fill="white"/>
</g>
</svg>
