<svg width="50" height="50" viewBox="0 0 50 50" fill="none" xmlns="http://www.w3.org/2000/svg">
<g id="Group 5503">
<path id="Vector" d="M50 25C50 11.1929 38.8071 0 25 0C11.1929 0 0 11.1929 0 25C0 38.8071 11.1929 50 25 50C38.8071 50 50 38.8071 50 25Z" fill="#8247E5"/>
<path id="Vector_2" d="M50 25C50 11.1929 38.8071 0 25 0C11.1929 0 0 11.1929 0 25C0 38.8071 11.1929 50 25 50C38.8071 50 50 38.8071 50 25Z" fill="url(#paint0_linear_105_36)"/>
<path id="Vector_3" fill-rule="evenodd" clip-rule="evenodd" d="M32.8913 11.8615C32.4131 11.5983 31.8316 11.5983 31.3535 11.8615L24.2285 15.7831C23.7258 16.0598 23.4141 16.5846 23.4141 17.1542V19.7046L26.5807 21.468V18.0773L32.1224 15.0272L37.6641 18.0773V24.0744L32.1224 27.1245L18.6413 19.7046C18.1631 19.4414 17.5816 19.4414 17.1035 19.7046L9.97848 23.6262C9.47581 23.9028 9.16406 24.4277 9.16406 24.9974V32.8406C9.16406 33.4102 9.47581 33.9351 9.97848 34.2118L17.1035 38.1333C17.5816 38.3966 18.1631 38.3966 18.6413 38.1333L25.7663 34.2118C26.269 33.9351 26.5807 33.4102 26.5807 32.8406V30.2902L23.4141 28.5268V31.9176L17.8724 34.9677L12.3307 31.9176V25.9204L17.8724 22.8703L31.3535 30.2902C31.8316 30.5534 32.4131 30.5534 32.8913 30.2902L40.0163 26.3687C40.519 26.092 40.8307 25.5671 40.8307 24.9974V17.1542C40.8307 16.5846 40.519 16.0598 40.0163 15.7831L32.8913 11.8615Z" fill="white"/>
</g>
<defs>
<linearGradient id="paint0_linear_105_36" x1="-9.13742" y1="4.10948" x2="42.4795" y2="35.6966" gradientUnits="userSpaceOnUse">
<stop stop-color="#A229C5"/>
<stop offset="1" stop-color="#7B3FE4"/>
</linearGradient>
</defs>
</svg>
