<svg width="15" height="15" viewBox="0 0 15 15" fill="none" xmlns="http://www.w3.org/2000/svg">
<path d="M13.3857 6.52101H13.3851C13.2892 6.52109 13.1942 6.53998 13.1057 6.5766C13.0171 6.61322 12.9367 6.66686 12.8689 6.73444C12.8012 6.80203 12.7475 6.88224 12.7109 6.9705C12.6742 7.05876 12.6554 7.15334 12.6555 7.24884C12.6546 8.26832 12.3731 9.26805 11.8416 10.1394C11.3102 11.0107 10.5491 11.7202 9.64102 12.1909C8.73299 12.6616 7.71279 12.8754 6.69131 12.809C5.66983 12.7427 4.68615 12.3987 3.84719 11.8146C1.31903 10.0515 0.702384 6.56868 2.47265 4.05077C4.24291 1.53286 7.74002 0.918665 10.2682 2.68178C10.6507 2.94781 10.9983 3.2604 11.3029 3.61228H9.24815C9.0545 3.61228 8.86879 3.68889 8.73186 3.82526C8.59492 3.96164 8.518 4.1466 8.518 4.33946C8.518 4.53232 8.59492 4.71729 8.73186 4.85366C8.86879 4.99003 9.0545 5.06665 9.24815 5.06665H12.6555C12.8492 5.06665 13.0349 4.99003 13.1718 4.85366C13.3088 4.71729 13.3857 4.53232 13.3857 4.33946V0.945934C13.3857 0.753073 13.3088 0.568111 13.1718 0.431737C13.0349 0.295364 12.8492 0.21875 12.6555 0.21875C12.4619 0.21875 12.2762 0.295364 12.1392 0.431737C12.0023 0.568111 11.9254 0.753073 11.9254 0.945934V2.15691C11.6692 1.91479 11.3952 1.69198 11.1058 1.49032C10.3466 0.960883 9.49009 0.585558 8.58523 0.385777C7.68037 0.185995 6.74486 0.165669 5.83212 0.32596C4.91937 0.486251 4.04727 0.82402 3.26559 1.31998C2.48391 1.81594 1.80798 2.46038 1.27638 3.21651C0.202757 4.74357 -0.217788 6.63285 0.107257 8.46872C0.432302 10.3046 1.47631 11.9367 3.00961 13.0059C4.19013 13.8341 5.59875 14.2787 7.04272 14.279C7.45862 14.2788 7.8737 14.2424 8.28325 14.1703C9.9174 13.8832 11.3978 13.0319 12.4644 11.7659C13.531 10.5 14.1157 8.90019 14.1159 7.24756C14.1157 7.05482 14.0387 6.87002 13.9018 6.73379C13.7649 6.59755 13.5793 6.52102 13.3857 6.52101Z" fill="white"/>
</svg>
