<svg width="18" height="15" viewBox="0 0 18 15" fill="none" xmlns="http://www.w3.org/2000/svg">
<mask id="path-1-outside-1_370_5468" maskUnits="userSpaceOnUse" x="0" y="-0.783203" width="18" height="16" fill="black">
<rect fill="white" y="-0.783203" width="18" height="16"/>
<path fill-rule="evenodd" clip-rule="evenodd" d="M13.4883 2.10966C13.4883 1.06426 14.3392 0.216797 15.3889 0.216797C16.4385 0.216797 17.2895 1.06426 17.2895 2.10966C17.2895 3.15505 16.4385 4.00251 15.3889 4.00251C14.3392 4.00251 13.4883 3.15505 13.4883 2.10966ZM15.3889 1.29843C14.939 1.29843 14.5743 1.66162 14.5743 2.10966C14.5743 2.55769 14.939 2.92088 15.3889 2.92088C15.8387 2.92088 16.2034 2.55769 16.2034 2.10966C16.2034 1.66162 15.8387 1.29843 15.3889 1.29843ZM11.1577 0.646683C10.9457 0.435481 10.6018 0.435481 10.3898 0.646683C10.1777 0.857885 10.1777 1.20031 10.3898 1.41151L10.5488 1.56991H8.33014C8.03022 1.56991 7.78711 1.81204 7.78711 2.11073C7.78711 2.40942 8.03022 2.65155 8.33014 2.65155H10.5488L10.3898 2.80995C10.1777 3.02114 10.1777 3.36359 10.3898 3.57477C10.6018 3.78599 10.9457 3.78599 11.1577 3.57477L12.2438 2.49314C12.4559 2.28195 12.4559 1.93951 12.2438 1.72832L11.1577 0.646683ZM6.15875 2.10918C6.15875 2.40787 5.91564 2.64999 5.61572 2.64999H4.00603C2.94566 2.64999 2.08605 3.5061 2.08605 4.56216C2.08605 5.61824 2.94566 6.47435 4.00603 6.47435H14.052C15.8407 6.47435 17.2908 7.91849 17.2908 9.69991C17.2908 11.4814 15.8407 12.9255 14.052 12.9255H4.72247C4.48883 13.7074 3.76156 14.2775 2.90059 14.2775C1.85092 14.2775 1 13.4301 1 12.3847C1 11.3393 1.85092 10.4918 2.90059 10.4918C3.76156 10.4918 4.48883 11.062 4.72247 11.8439H14.052C15.2409 11.8439 16.2047 10.884 16.2047 9.69991C16.2047 8.51585 15.2409 7.55598 14.052 7.55598H4.00603C2.34585 7.55598 1 6.2156 1 4.56216C1 2.90872 2.34585 1.56836 4.00603 1.56836H5.61572C5.91564 1.56836 6.15875 1.81048 6.15875 2.10918ZM2.90059 11.5735C3.35046 11.5735 3.71513 11.9366 3.71513 12.3847C3.71513 12.8327 3.35046 13.1959 2.90059 13.1959C2.45074 13.1959 2.08605 12.8327 2.08605 12.3847C2.08605 11.9366 2.45074 11.5735 2.90059 11.5735Z"/>
</mask>
<path fill-rule="evenodd" clip-rule="evenodd" d="M13.4883 2.10966C13.4883 1.06426 14.3392 0.216797 15.3889 0.216797C16.4385 0.216797 17.2895 1.06426 17.2895 2.10966C17.2895 3.15505 16.4385 4.00251 15.3889 4.00251C14.3392 4.00251 13.4883 3.15505 13.4883 2.10966ZM15.3889 1.29843C14.939 1.29843 14.5743 1.66162 14.5743 2.10966C14.5743 2.55769 14.939 2.92088 15.3889 2.92088C15.8387 2.92088 16.2034 2.55769 16.2034 2.10966C16.2034 1.66162 15.8387 1.29843 15.3889 1.29843ZM11.1577 0.646683C10.9457 0.435481 10.6018 0.435481 10.3898 0.646683C10.1777 0.857885 10.1777 1.20031 10.3898 1.41151L10.5488 1.56991H8.33014C8.03022 1.56991 7.78711 1.81204 7.78711 2.11073C7.78711 2.40942 8.03022 2.65155 8.33014 2.65155H10.5488L10.3898 2.80995C10.1777 3.02114 10.1777 3.36359 10.3898 3.57477C10.6018 3.78599 10.9457 3.78599 11.1577 3.57477L12.2438 2.49314C12.4559 2.28195 12.4559 1.93951 12.2438 1.72832L11.1577 0.646683ZM6.15875 2.10918C6.15875 2.40787 5.91564 2.64999 5.61572 2.64999H4.00603C2.94566 2.64999 2.08605 3.5061 2.08605 4.56216C2.08605 5.61824 2.94566 6.47435 4.00603 6.47435H14.052C15.8407 6.47435 17.2908 7.91849 17.2908 9.69991C17.2908 11.4814 15.8407 12.9255 14.052 12.9255H4.72247C4.48883 13.7074 3.76156 14.2775 2.90059 14.2775C1.85092 14.2775 1 13.4301 1 12.3847C1 11.3393 1.85092 10.4918 2.90059 10.4918C3.76156 10.4918 4.48883 11.062 4.72247 11.8439H14.052C15.2409 11.8439 16.2047 10.884 16.2047 9.69991C16.2047 8.51585 15.2409 7.55598 14.052 7.55598H4.00603C2.34585 7.55598 1 6.2156 1 4.56216C1 2.90872 2.34585 1.56836 4.00603 1.56836H5.61572C5.91564 1.56836 6.15875 1.81048 6.15875 2.10918ZM2.90059 11.5735C3.35046 11.5735 3.71513 11.9366 3.71513 12.3847C3.71513 12.8327 3.35046 13.1959 2.90059 13.1959C2.45074 13.1959 2.08605 12.8327 2.08605 12.3847C2.08605 11.9366 2.45074 11.5735 2.90059 11.5735Z" fill="white"/>
<path d="M10.3898 0.646683L10.5309 0.788397L10.5309 0.788388L10.3898 0.646683ZM11.1577 0.646683L11.0166 0.788388L11.0166 0.788392L11.1577 0.646683ZM10.3898 1.41151L10.5309 1.2698L10.5309 1.26979L10.3898 1.41151ZM10.5488 1.56991V1.76991H11.0331L10.69 1.4282L10.5488 1.56991ZM10.5488 2.65155L10.69 2.79326L11.0331 2.45155H10.5488V2.65155ZM10.3898 2.80995L10.5309 2.95167L10.5309 2.95166L10.3898 2.80995ZM10.3898 3.57477L10.5309 3.43307L10.5309 3.43306L10.3898 3.57477ZM11.1577 3.57477L11.0166 3.43307L11.0166 3.43307L11.1577 3.57477ZM12.2438 2.49314L12.1027 2.35142L12.1026 2.35143L12.2438 2.49314ZM12.2438 1.72832L12.1026 1.87003L12.1027 1.87004L12.2438 1.72832ZM4.72247 12.9255V12.7255H4.5735L4.53084 12.8682L4.72247 12.9255ZM4.72247 11.8439L4.53084 11.9011L4.5735 12.0439H4.72247V11.8439ZM15.3889 0.0167969C14.2295 0.0167969 13.2883 0.953034 13.2883 2.10966H13.6883C13.6883 1.17548 14.4489 0.416797 15.3889 0.416797V0.0167969ZM17.4895 2.10966C17.4895 0.953034 16.5482 0.0167969 15.3889 0.0167969V0.416797C16.3289 0.416797 17.0895 1.17548 17.0895 2.10966H17.4895ZM15.3889 4.20251C16.5482 4.20251 17.4895 3.26628 17.4895 2.10966H17.0895C17.0895 3.04383 16.3289 3.80251 15.3889 3.80251V4.20251ZM13.2883 2.10966C13.2883 3.26628 14.2295 4.20251 15.3889 4.20251V3.80251C14.4489 3.80251 13.6883 3.04383 13.6883 2.10966H13.2883ZM14.7743 2.10966C14.7743 1.77284 15.0487 1.49843 15.3889 1.49843V1.09843C14.8293 1.09843 14.3743 1.55039 14.3743 2.10966H14.7743ZM15.3889 2.72088C15.0487 2.72088 14.7743 2.44647 14.7743 2.10966H14.3743C14.3743 2.66892 14.8293 3.12088 15.3889 3.12088V2.72088ZM16.0034 2.10966C16.0034 2.44647 15.7291 2.72088 15.3889 2.72088V3.12088C15.9484 3.12088 16.4034 2.66892 16.4034 2.10966H16.0034ZM15.3889 1.49843C15.7291 1.49843 16.0034 1.77284 16.0034 2.10966H16.4034C16.4034 1.55039 15.9484 1.09843 15.3889 1.09843V1.49843ZM10.5309 0.788388C10.6649 0.654912 10.8826 0.654912 11.0166 0.788388L11.2989 0.504978C11.0088 0.216049 10.5387 0.216049 10.2486 0.504978L10.5309 0.788388ZM10.5309 1.26979C10.3973 1.13677 10.3973 0.921429 10.5309 0.788397L10.2487 0.504969C9.95808 0.794342 9.95808 1.26385 10.2487 1.55322L10.5309 1.26979ZM10.69 1.4282L10.5309 1.2698L10.2486 1.55322L10.4077 1.71162L10.69 1.4282ZM8.33014 1.76991H10.5488V1.36991H8.33014V1.76991ZM7.98711 2.11073C7.98711 1.92326 8.13991 1.76991 8.33014 1.76991V1.36991C7.92054 1.36991 7.58711 1.70081 7.58711 2.11073H7.98711ZM8.33014 2.45155C8.13991 2.45155 7.98711 2.2982 7.98711 2.11073H7.58711C7.58711 2.52065 7.92054 2.85155 8.33014 2.85155V2.45155ZM10.5488 2.45155H8.33014V2.85155H10.5488V2.45155ZM10.5309 2.95166L10.69 2.79326L10.4077 2.50984L10.2486 2.66824L10.5309 2.95166ZM10.5309 3.43306C10.3973 3.30004 10.3973 3.08469 10.5309 2.95167L10.2487 2.66823C9.95808 2.95759 9.95808 3.42713 10.2487 3.71649L10.5309 3.43306ZM11.0166 3.43307C10.8826 3.56656 10.6649 3.56656 10.5309 3.43307L10.2486 3.71648C10.5387 4.00542 11.0088 4.00542 11.2989 3.71648L11.0166 3.43307ZM12.1026 2.35143L11.0166 3.43307L11.2989 3.71648L12.3849 2.63485L12.1026 2.35143ZM12.1027 1.87004C12.2362 2.00305 12.2362 2.21841 12.1027 2.35142L12.3849 2.63486C12.6755 2.3455 12.6755 1.87596 12.3849 1.5866L12.1027 1.87004ZM11.0166 0.788392L12.1026 1.87003L12.3849 1.58661L11.2989 0.504974L11.0166 0.788392ZM5.61572 2.84999C6.02532 2.84999 6.35875 2.51909 6.35875 2.10918H5.95875C5.95875 2.29664 5.80595 2.44999 5.61572 2.44999V2.84999ZM4.00603 2.84999H5.61572V2.44999H4.00603V2.84999ZM2.28605 4.56216C2.28605 3.61733 3.05535 2.84999 4.00603 2.84999V2.44999C2.83597 2.44999 1.88605 3.39488 1.88605 4.56216H2.28605ZM4.00603 6.27435C3.05535 6.27435 2.28605 5.50701 2.28605 4.56216H1.88605C1.88605 5.72946 2.83597 6.67435 4.00603 6.67435V6.27435ZM14.052 6.27435H4.00603V6.67435H14.052V6.27435ZM17.4908 9.69991C17.4908 7.80726 15.9504 6.27435 14.052 6.27435V6.67435C15.7311 6.67435 17.0908 8.02972 17.0908 9.69991H17.4908ZM14.052 13.1255C15.9504 13.1255 17.4908 11.5926 17.4908 9.69991H17.0908C17.0908 11.3701 15.7311 12.7255 14.052 12.7255V13.1255ZM4.72247 13.1255H14.052V12.7255H4.72247V13.1255ZM2.90059 14.4775C3.85191 14.4775 4.65571 13.8475 4.9141 12.9828L4.53084 12.8682C4.32195 13.5673 3.67121 14.0775 2.90059 14.0775V14.4775ZM0.8 12.3847C0.8 13.5413 1.74124 14.4775 2.90059 14.4775V14.0775C1.96061 14.0775 1.2 13.3189 1.2 12.3847H0.8ZM2.90059 10.2918C1.74124 10.2918 0.8 11.2281 0.8 12.3847H1.2C1.2 11.4505 1.96061 10.6918 2.90059 10.6918V10.2918ZM4.9141 11.7866C4.65571 10.9219 3.85191 10.2918 2.90059 10.2918V10.6918C3.67121 10.6918 4.32195 11.2021 4.53084 11.9011L4.9141 11.7866ZM14.052 11.6439H4.72247V12.0439H14.052V11.6439ZM16.0047 9.69991C16.0047 10.7728 15.1313 11.6439 14.052 11.6439V12.0439C15.3506 12.0439 16.4047 10.9952 16.4047 9.69991H16.0047ZM14.052 7.75598C15.1313 7.75598 16.0047 8.62708 16.0047 9.69991H16.4047C16.4047 8.40462 15.3506 7.35598 14.052 7.35598V7.75598ZM4.00603 7.75598H14.052V7.35598H4.00603V7.75598ZM0.8 4.56216C0.8 6.32682 2.23616 7.75598 4.00603 7.75598V7.35598C2.45554 7.35598 1.2 6.10437 1.2 4.56216H0.8ZM4.00603 1.36836C2.23616 1.36836 0.8 2.79749 0.8 4.56216H1.2C1.2 3.01994 2.45554 1.76836 4.00603 1.76836V1.36836ZM5.61572 1.36836H4.00603V1.76836H5.61572V1.36836ZM6.35875 2.10918C6.35875 1.69926 6.02532 1.36836 5.61572 1.36836V1.76836C5.80595 1.76836 5.95875 1.92171 5.95875 2.10918H6.35875ZM3.91513 12.3847C3.91513 11.8254 3.46015 11.3735 2.90059 11.3735V11.7735C3.24077 11.7735 3.51513 12.0479 3.51513 12.3847H3.91513ZM2.90059 13.3959C3.46015 13.3959 3.91513 12.944 3.91513 12.3847H3.51513C3.51513 12.7215 3.24077 12.9959 2.90059 12.9959V13.3959ZM1.88605 12.3847C1.88605 12.944 2.34105 13.3959 2.90059 13.3959V12.9959C2.56042 12.9959 2.28605 12.7215 2.28605 12.3847H1.88605ZM2.90059 11.3735C2.34105 11.3735 1.88605 11.8254 1.88605 12.3847H2.28605C2.28605 12.0479 2.56042 11.7735 2.90059 11.7735V11.3735Z" fill="white" mask="url(#path-1-outside-1_370_5468)"/>
</svg>
