<svg width="28" height="28" viewBox="0 0 28 28" fill="none" xmlns="http://www.w3.org/2000/svg">
<circle cx="14" cy="14" r="12.5" fill="#B6F509" stroke="#1A1C1E" stroke-width="3"/>
<path d="M13.5048 8.81618C13.5048 8.54223 13.7269 8.32015 14.0008 8.32015C14.2748 8.32015 14.4969 8.54223 14.4969 8.81618L14.4969 17.2835L16.8571 14.8153C17.0576 14.6057 17.3925 14.6057 17.593 14.8153C17.7812 15.0121 17.7812 15.3222 17.593 15.519L14.7236 18.5196C14.3297 18.9314 13.6719 18.9314 13.2781 18.5196L10.4087 15.519C10.2205 15.3222 10.2205 15.0121 10.4087 14.8153C10.6092 14.6057 10.9441 14.6057 11.1445 14.8153L13.5048 17.2835L13.5048 8.81618Z" fill="#17234C" stroke="#17234C" stroke-width="0.5"/>
</svg>
