<svg width="13" height="14" viewBox="0 0 13 14" fill="none" xmlns="http://www.w3.org/2000/svg">
<path d="M12.2656 3.27661L12.2772 3.26499L9.38 0.387319L8.55557 1.2084L10.1967 2.84282C9.46557 3.12168 8.94443 3.82271 8.94443 4.64768C8.94443 5.71664 9.81553 6.5842 10.8889 6.5842C11.165 6.5842 11.4294 6.5261 11.6666 6.42153V12.0065C11.6667 12.4325 11.3167 12.7811 10.8889 12.7811C10.4611 12.7811 10.1111 12.4325 10.1111 12.0065V8.52075C10.1111 7.66482 9.41504 6.97152 8.55557 6.97152H7.7778V1.54924C7.77777 0.693266 7.08167 0 6.22223 0H1.55557C0.696099 0 0 0.693266 0 1.54924V13.943H7.77777V8.13343H8.94443V12.0065C8.94443 13.0755 9.81553 13.943 10.8889 13.943C11.9622 13.943 12.8333 13.0755 12.8333 12.0065V4.64768C12.8333 4.11319 12.6156 3.62907 12.2656 3.27661ZM6.22223 5.42228H1.55557V1.54924H6.22223V5.42228ZM10.8889 5.42228C10.4611 5.42228 10.1111 5.0737 10.1111 4.64768C10.1111 4.22165 10.4611 3.87308 10.8889 3.87308C11.3167 3.87308 11.6667 4.22165 11.6667 4.64768C11.6667 5.0737 11.3167 5.42228 10.8889 5.42228Z" fill="#767679"/>
</svg>
