<svg width="17" height="16" viewBox="0 0 17 16" fill="none" xmlns="http://www.w3.org/2000/svg">
<g id="Group 67">
<ellipse id="Ellipse 1" cx="8.51273" cy="8" rx="8.01761" ry="8" fill="#34363E"/>
<path id="Union" fill-rule="evenodd" clip-rule="evenodd" d="M6.63588 10.3934C6.79303 10.5585 6.79303 10.8259 6.63588 10.9909C6.47886 11.156 6.22401 11.156 6.06699 10.9909L4.19414 9.02398C4.11713 8.94325 4.07628 8.83514 4.07628 8.72511C4.07628 8.67079 4.08623 8.61577 4.10692 8.56351C4.16913 8.40561 4.3158 8.30273 4.47858 8.30273L11.9883 8.30273C12.2106 8.30273 12.3906 8.49185 12.3906 8.72525C12.3906 8.95865 12.2106 9.14777 11.9883 9.14777L5.44978 9.14777L6.63588 10.3934ZM12.2726 6.55751C12.3877 6.67813 12.4225 6.85995 12.3598 7.01798C12.2976 7.17588 12.1509 7.27876 11.9881 7.27875L4.47838 7.27875C4.25614 7.27875 4.07607 7.08964 4.07607 6.85624C4.07607 6.62284 4.25614 6.43372 4.47838 6.43372L11.0169 6.43372L9.83082 5.18804C9.67367 5.023 9.67367 4.75563 9.83082 4.59058C9.98784 4.42554 10.2427 4.42554 10.3997 4.59058L12.2726 6.55751Z" fill="#B6F509"/>
</g>
</svg>
