<svg width="544" height="547" viewBox="0 0 544 547" fill="none" xmlns="http://www.w3.org/2000/svg">
<g clip-path="url(#clip0_8_70)">
<rect x="0.5" y="187.755" width="203.387" height="95" rx="9.5" fill="url(#paint0_linear_8_70)" stroke="#363D3E"/>
<path opacity="0.598583" d="M28.1724 261.271V252.969H31.1404V251.933H24.0564V252.969H27.0104V261.271H28.1724ZM32.5033 261.271V256.483C32.8113 255.937 33.6933 255.405 34.3513 255.405C34.5053 255.405 34.6313 255.419 34.7573 255.433V254.355C33.8333 254.355 33.0493 254.887 32.5033 255.587V254.509H31.4533V261.271H32.5033ZM41.3524 261.271V256.623C41.3524 254.985 40.1764 254.341 38.7344 254.341C37.6284 254.341 36.7604 254.705 36.0324 255.461L36.5224 256.189C37.1244 255.531 37.7824 255.251 38.5944 255.251C39.5744 255.251 40.3024 255.769 40.3024 256.665V257.883C39.7564 257.267 38.9864 256.973 38.0624 256.973C36.9144 256.973 35.7104 257.673 35.7104 259.199C35.7104 260.669 36.9284 261.439 38.0624 261.439C38.9724 261.439 39.7564 261.117 40.3024 260.501V261.271H41.3524ZM38.4544 260.683C37.4604 260.683 36.7744 260.067 36.7744 259.199C36.7744 258.345 37.4604 257.729 38.4544 257.729C39.1824 257.729 39.8964 258.009 40.3024 258.555V259.843C39.8964 260.403 39.1824 260.683 38.4544 260.683ZM49.4209 261.271V251.933H48.3709V255.531C47.8249 254.789 46.9989 254.341 46.0889 254.341C44.3249 254.341 43.0789 255.727 43.0789 257.897C43.0789 260.095 44.3249 261.439 46.0889 261.439C47.0409 261.439 47.8669 260.949 48.3709 260.263V261.271H49.4209ZM46.3549 260.501C44.9829 260.501 44.1709 259.395 44.1709 257.897C44.1709 256.399 44.9829 255.279 46.3549 255.279C47.1809 255.279 48.0069 255.783 48.3709 256.371V259.423C48.0069 260.011 47.1809 260.501 46.3549 260.501ZM54.5896 261.439C55.6816 261.439 56.5916 261.061 57.2776 260.389L56.7736 259.703C56.2276 260.263 55.4576 260.571 54.6736 260.571C53.2176 260.571 52.3356 259.507 52.2516 258.233H57.7116V257.967C57.7116 255.937 56.5076 254.341 54.4636 254.341C52.5316 254.341 51.1316 255.923 51.1316 257.883C51.1316 259.997 52.5736 261.439 54.5896 261.439ZM56.6756 257.449H52.2376C52.2936 256.427 53.0076 255.209 54.4496 255.209C55.9896 255.209 56.6616 256.455 56.6756 257.449ZM67.3194 261.271L71.0714 251.933H69.7414L66.5914 259.997L63.4414 251.933H62.1114L65.8774 261.271H67.3194ZM74.3702 261.439C76.4282 261.439 77.7162 259.843 77.7162 257.883C77.7162 255.923 76.4282 254.341 74.3702 254.341C72.3122 254.341 71.0242 255.923 71.0242 257.883C71.0242 259.843 72.3122 261.439 74.3702 261.439ZM74.3702 260.501C72.9282 260.501 72.1302 259.269 72.1302 257.883C72.1302 256.511 72.9282 255.279 74.3702 255.279C75.8122 255.279 76.6102 256.511 76.6102 257.883C76.6102 259.269 75.8122 260.501 74.3702 260.501ZM80.4779 261.271V251.933H79.4279V261.271H80.4779ZM88.1865 261.271V254.509H87.1365V259.479C86.7445 260.025 85.9605 260.501 85.1485 260.501C84.2245 260.501 83.6225 260.151 83.6225 258.961V254.509H82.5725V259.283C82.5725 260.739 83.3145 261.439 84.7285 261.439C85.7365 261.439 86.6185 260.907 87.1365 260.319V261.271H88.1865ZM99.4954 261.271V256.385C99.4954 255.027 98.8374 254.341 97.6054 254.341C96.6254 254.341 95.7154 254.985 95.3374 255.601C95.1414 254.901 94.5534 254.341 93.5314 254.341C92.5234 254.341 91.6274 255.055 91.3334 255.489V254.509H90.2834V261.271H91.3334V256.329C91.6974 255.783 92.4254 255.279 93.1114 255.279C94.0074 255.279 94.3574 255.825 94.3574 256.679V261.271H95.4074V256.315C95.7574 255.769 96.4994 255.279 97.1994 255.279C98.0814 255.279 98.4454 255.825 98.4454 256.679V261.271H99.4954ZM104.656 261.439C105.748 261.439 106.658 261.061 107.344 260.389L106.84 259.703C106.294 260.263 105.524 260.571 104.74 260.571C103.284 260.571 102.402 259.507 102.318 258.233H107.778V257.967C107.778 255.937 106.574 254.341 104.53 254.341C102.598 254.341 101.198 255.923 101.198 257.883C101.198 259.997 102.64 261.439 104.656 261.439ZM106.742 257.449H102.304C102.36 256.427 103.074 255.209 104.516 255.209C106.056 255.209 106.728 256.455 106.742 257.449Z" fill="white"/>
<path d="M31.8869 236.768H34.6419V234.129C38.8759 233.694 40.9639 231.229 40.9639 228.01C40.9639 224.066 37.6289 222.906 34.6419 222.152V218.063C35.9469 218.382 37.1939 218.991 38.2379 219.948L40.5289 216.932C38.9629 215.511 36.9909 214.612 34.6419 214.351V211.596H31.8869V214.293C27.9719 214.699 25.6519 217.193 25.6519 220.122C25.6519 224.066 28.8999 225.168 31.8869 225.922V230.504C29.9149 230.156 28.3489 229.141 27.2759 228.01L25.0429 231.142C26.6089 232.737 28.8419 233.897 31.8869 234.158V236.768ZM36.7879 228.474C36.7879 229.373 36.0629 230.214 34.6419 230.504V226.618C35.8889 227.024 36.7879 227.517 36.7879 228.474ZM29.8569 219.774C29.8569 218.788 30.5819 218.063 31.8869 217.889V221.427C30.6689 221.079 29.8569 220.615 29.8569 219.774ZM51.9913 233.868V214.525H48.3953L42.3053 220.644L44.6543 223.109L47.8733 219.832V233.868H51.9913ZM57.6212 234.187C58.8972 234.187 59.9702 233.114 59.9702 231.838C59.9702 230.562 58.8972 229.489 57.6212 229.489C56.3452 229.489 55.2722 230.562 55.2722 231.838C55.2722 233.114 56.3452 234.187 57.6212 234.187ZM75.4231 233.868V229.866H77.9171V226.241H75.4231V214.525H69.7391L62.0541 226.618V229.866H71.3051V233.868H75.4231ZM71.3051 226.241H66.0851L71.3051 218.179V226.241ZM89.1598 233.868V218.15H94.7858V214.525H79.3578V218.15H85.0128V233.868H89.1598ZM109.287 225.226V222.935H104.096V217.28H101.573V222.935H96.3527V225.226H101.573V231.113H104.096V225.226H109.287Z" fill="#BAFD02"/>
</g>
<g clip-path="url(#clip1_8_70)">
<rect x="55.5" y="422.755" width="263" height="123" rx="9.5" fill="url(#paint1_linear_8_70)" stroke="#363D3E"/>
<path opacity="0.598583" d="M96.7177 516.255L91.8937 504.249H90.0397L85.1977 516.255H86.9077L87.9697 513.573H93.9457L95.0077 516.255H96.7177ZM93.5137 512.259H88.4197L90.9577 505.779L93.5137 512.259ZM99.5834 516.255V504.249H98.2334V516.255H99.5834ZM103.626 516.255V504.249H102.276V516.255H103.626ZM115.496 516.255V505.581H119.312V504.249H110.204V505.581H114.002V516.255H115.496ZM121.927 506.319C122.431 506.319 122.827 505.923 122.827 505.419C122.827 504.915 122.431 504.501 121.927 504.501C121.423 504.501 121.009 504.915 121.009 505.419C121.009 505.923 121.423 506.319 121.927 506.319ZM122.593 516.255V507.561H121.243V516.255H122.593ZM137.13 516.255V509.973C137.13 508.227 136.284 507.345 134.7 507.345C133.44 507.345 132.27 508.173 131.784 508.965C131.532 508.065 130.776 507.345 129.462 507.345C128.166 507.345 127.014 508.263 126.636 508.821V507.561H125.286V516.255H126.636V509.901C127.104 509.199 128.04 508.551 128.922 508.551C130.074 508.551 130.524 509.253 130.524 510.351V516.255H131.874V509.883C132.324 509.181 133.278 508.551 134.178 508.551C135.312 508.551 135.78 509.253 135.78 510.351V516.255H137.13ZM143.765 516.471C145.169 516.471 146.339 515.985 147.221 515.121L146.573 514.239C145.871 514.959 144.881 515.355 143.873 515.355C142.001 515.355 140.867 513.987 140.759 512.349H147.779V512.007C147.779 509.397 146.231 507.345 143.603 507.345C141.119 507.345 139.319 509.379 139.319 511.899C139.319 514.617 141.173 516.471 143.765 516.471ZM146.447 511.341H140.741C140.813 510.027 141.731 508.461 143.585 508.461C145.565 508.461 146.429 510.063 146.447 511.341ZM159.142 516.255V505.581H162.958V504.249H153.85V505.581H157.648V516.255H159.142ZM164.71 516.255V510.099C165.106 509.397 166.24 508.713 167.086 508.713C167.284 508.713 167.446 508.731 167.608 508.749V507.363C166.42 507.363 165.412 508.047 164.71 508.947V507.561H163.36V516.255H164.71ZM176.088 516.255V510.279C176.088 508.173 174.576 507.345 172.722 507.345C171.3 507.345 170.184 507.813 169.248 508.785L169.878 509.721C170.652 508.875 171.498 508.515 172.542 508.515C173.802 508.515 174.738 509.181 174.738 510.333V511.899C174.036 511.107 173.046 510.729 171.858 510.729C170.382 510.729 168.834 511.629 168.834 513.591C168.834 515.481 170.4 516.471 171.858 516.471C173.028 516.471 174.036 516.057 174.738 515.265V516.255H176.088ZM172.362 515.499C171.084 515.499 170.202 514.707 170.202 513.591C170.202 512.493 171.084 511.701 172.362 511.701C173.298 511.701 174.216 512.061 174.738 512.763V514.419C174.216 515.139 173.298 515.499 172.362 515.499ZM186.461 516.255V504.249H185.111V508.875C184.409 507.921 183.347 507.345 182.177 507.345C179.909 507.345 178.307 509.127 178.307 511.917C178.307 514.743 179.909 516.471 182.177 516.471C183.401 516.471 184.463 515.841 185.111 514.959V516.255H186.461ZM182.519 515.265C180.755 515.265 179.711 513.843 179.711 511.917C179.711 509.991 180.755 508.551 182.519 508.551C183.581 508.551 184.643 509.199 185.111 509.955V513.879C184.643 514.635 183.581 515.265 182.519 515.265ZM193.107 516.471C194.511 516.471 195.681 515.985 196.563 515.121L195.915 514.239C195.213 514.959 194.223 515.355 193.215 515.355C191.343 515.355 190.209 513.987 190.101 512.349H197.121V512.007C197.121 509.397 195.573 507.345 192.945 507.345C190.461 507.345 188.661 509.379 188.661 511.899C188.661 514.617 190.515 516.471 193.107 516.471ZM195.789 511.341H190.083C190.155 510.027 191.073 508.461 192.927 508.461C194.907 508.461 195.771 510.063 195.789 511.341ZM202.08 516.471C204.312 516.471 205.482 515.301 205.482 513.843C205.482 510.459 200.1 511.701 200.1 509.811C200.1 509.037 200.838 508.443 202.026 508.443C203.16 508.443 204.096 508.911 204.618 509.541L205.248 508.605C204.564 507.903 203.52 507.345 202.026 507.345C199.956 507.345 198.804 508.479 198.804 509.847C198.804 513.069 204.186 511.773 204.186 513.879C204.186 514.743 203.448 515.373 202.116 515.373C200.928 515.373 199.83 514.797 199.254 514.131L198.57 515.103C199.452 516.021 200.64 516.471 202.08 516.471Z" fill="white"/>
<path d="M97.4557 479.255V455.243H92.9917L85.4317 462.839L88.3477 465.899L92.3437 461.831V479.255H97.4557ZM117.332 479.255V474.287H120.428V469.787H117.332V455.243H110.276L100.736 470.255V474.287H112.22V479.255H117.332ZM112.22 469.787H105.74L112.22 459.779V469.787ZM132.477 479.687C139.317 479.687 142.413 473.459 142.413 467.267C142.413 461.075 139.317 454.883 132.477 454.883C125.601 454.883 122.541 461.075 122.541 467.267C122.541 473.459 125.601 479.687 132.477 479.687ZM132.477 475.151C129.021 475.151 127.725 471.695 127.725 467.267C127.725 462.839 129.021 459.419 132.477 459.419C135.897 459.419 137.193 462.839 137.193 467.267C137.193 471.695 135.897 475.151 132.477 475.151ZM172.045 479.255V455.243H164.845L159.013 469.751L153.181 455.243H146.017V479.255H151.129V462.443L157.897 479.255H160.129L166.897 462.443V479.255H172.045ZM191.538 468.527V465.683H185.094V458.663H181.962V465.683H175.482V468.527H181.962V475.835H185.094V468.527H191.538Z" fill="#BAFD02"/>
</g>
<g clip-path="url(#clip2_8_70)">
<rect x="195.059" y="1.25488" width="263" height="123" rx="9.5" fill="url(#paint2_linear_8_70)" stroke="#363D3E"/>
<path opacity="0.598583" d="M227.492 94.7549V82.7489H225.998V94.7549H227.492ZM237.469 94.7549V88.6529C237.469 86.7629 236.515 85.8449 234.715 85.8449C233.401 85.8449 232.213 86.5829 231.601 87.3209V86.0609H230.251V94.7549H231.601V88.4009C232.123 87.6989 233.113 87.0509 234.175 87.0509C235.345 87.0509 236.137 87.5189 236.137 89.0669V94.7549H237.469ZM242.397 94.9709C243.171 94.9709 243.657 94.7369 243.999 94.4129L243.603 93.3869C243.423 93.5849 243.081 93.7649 242.685 93.7649C242.109 93.7649 241.821 93.2969 241.821 92.6489V87.2489H243.585V86.0609H241.821V83.6849H240.453V86.0609H239.013V87.2489H240.453V92.9369C240.453 94.2329 241.101 94.9709 242.397 94.9709ZM249.416 94.9709C250.82 94.9709 251.99 94.4849 252.872 93.6209L252.224 92.7389C251.522 93.4589 250.532 93.8549 249.524 93.8549C247.652 93.8549 246.518 92.4869 246.41 90.8489H253.43V90.5069C253.43 87.8969 251.882 85.8449 249.254 85.8449C246.77 85.8449 244.97 87.8789 244.97 90.3989C244.97 93.1169 246.824 94.9709 249.416 94.9709ZM252.098 89.8409H246.392C246.464 88.5269 247.382 86.9609 249.236 86.9609C251.216 86.9609 252.08 88.5629 252.098 89.8409ZM259.108 98.2829C261.232 98.2829 263.266 97.3829 263.266 94.6289V86.0609H261.916V87.3749C261.214 86.4209 260.152 85.8449 258.982 85.8449C256.696 85.8449 255.112 87.5729 255.112 90.3629C255.112 93.1709 256.714 94.8629 258.982 94.8629C260.206 94.8629 261.268 94.1969 261.916 93.3149V94.6289C261.916 96.4649 260.548 97.1669 259.108 97.1669C257.866 97.1669 257.002 96.8429 256.282 95.9969L255.598 96.9689C256.642 97.9949 257.65 98.2829 259.108 98.2829ZM259.324 93.6569C257.56 93.6569 256.516 92.2709 256.516 90.3629C256.516 88.4369 257.56 87.0509 259.324 87.0509C260.386 87.0509 261.43 87.6989 261.916 88.4369V92.2529C261.43 93.0089 260.386 93.6569 259.324 93.6569ZM267.32 94.7549V88.5989C267.716 87.8969 268.85 87.2129 269.696 87.2129C269.894 87.2129 270.056 87.2309 270.218 87.2489V85.8629C269.03 85.8629 268.022 86.5469 267.32 87.4469V86.0609H265.97V94.7549H267.32ZM278.697 94.7549V88.7789C278.697 86.6729 277.185 85.8449 275.331 85.8449C273.909 85.8449 272.793 86.3129 271.857 87.2849L272.487 88.2209C273.261 87.3749 274.107 87.0149 275.151 87.0149C276.411 87.0149 277.347 87.6809 277.347 88.8329V90.3989C276.645 89.6069 275.655 89.2289 274.467 89.2289C272.991 89.2289 271.443 90.1289 271.443 92.0909C271.443 93.9809 273.009 94.9709 274.467 94.9709C275.637 94.9709 276.645 94.5569 277.347 93.7649V94.7549H278.697ZM274.971 93.9989C273.693 93.9989 272.811 93.2069 272.811 92.0909C272.811 90.9929 273.693 90.2009 274.971 90.2009C275.907 90.2009 276.825 90.5609 277.347 91.2629V92.9189C276.825 93.6389 275.907 93.9989 274.971 93.9989ZM283.635 94.9709C284.409 94.9709 284.895 94.7369 285.237 94.4129L284.841 93.3869C284.661 93.5849 284.319 93.7649 283.923 93.7649C283.347 93.7649 283.059 93.2969 283.059 92.6489V87.2489H284.823V86.0609H283.059V83.6849H281.691V86.0609H280.251V87.2489H281.691V92.9369C281.691 94.2329 282.339 94.9709 283.635 94.9709ZM287.396 84.8189C287.9 84.8189 288.296 84.4229 288.296 83.9189C288.296 83.4149 287.9 83.0009 287.396 83.0009C286.892 83.0009 286.478 83.4149 286.478 83.9189C286.478 84.4229 286.892 84.8189 287.396 84.8189ZM288.062 94.7549V86.0609H286.712V94.7549H288.062ZM294.553 94.9709C297.199 94.9709 298.855 92.9189 298.855 90.3989C298.855 87.8789 297.199 85.8449 294.553 85.8449C291.907 85.8449 290.251 87.8789 290.251 90.3989C290.251 92.9189 291.907 94.9709 294.553 94.9709ZM294.553 93.7649C292.699 93.7649 291.673 92.1809 291.673 90.3989C291.673 88.6349 292.699 87.0509 294.553 87.0509C296.407 87.0509 297.433 88.6349 297.433 90.3989C297.433 92.1809 296.407 93.7649 294.553 93.7649ZM308.274 94.7549V88.6529C308.274 86.7629 307.32 85.8449 305.52 85.8449C304.206 85.8449 303.018 86.5829 302.406 87.3209V86.0609H301.056V94.7549H302.406V88.4009C302.928 87.6989 303.918 87.0509 304.98 87.0509C306.15 87.0509 306.942 87.5189 306.942 89.0669V94.7549H308.274ZM313.759 94.9709C315.991 94.9709 317.161 93.8009 317.161 92.3429C317.161 88.9589 311.779 90.2009 311.779 88.3109C311.779 87.5369 312.517 86.9429 313.705 86.9429C314.839 86.9429 315.775 87.4109 316.297 88.0409L316.927 87.1049C316.243 86.4029 315.199 85.8449 313.705 85.8449C311.635 85.8449 310.483 86.9789 310.483 88.3469C310.483 91.5689 315.865 90.2729 315.865 92.3789C315.865 93.2429 315.127 93.8729 313.795 93.8729C312.607 93.8729 311.509 93.2969 310.933 92.6309L310.249 93.6029C311.131 94.5209 312.319 94.9709 313.759 94.9709Z" fill="white"/>
<path d="M234.782 58.1869C240.542 58.1869 244.25 55.2709 244.25 51.1309C244.25 47.5309 241.082 45.6229 238.634 45.3709C241.298 44.9029 243.89 42.9229 243.89 39.8989C243.89 35.9029 240.434 33.3829 234.818 33.3829C230.606 33.3829 227.582 35.0029 225.638 37.1989L228.194 40.4029C229.886 38.7829 231.974 37.9189 234.278 37.9189C236.798 37.9189 238.742 38.8549 238.742 40.7629C238.742 42.5269 236.978 43.3189 234.314 43.3189C233.414 43.3189 231.758 43.3189 231.326 43.2829V47.8909C231.686 47.8549 233.306 47.8189 234.314 47.8189C237.662 47.8189 239.138 48.6829 239.138 50.5909C239.138 52.3909 237.518 53.6509 234.602 53.6509C232.262 53.6509 229.634 52.6429 227.978 50.9149L225.314 54.3349C227.078 56.4949 230.354 58.1869 234.782 58.1869ZM256.883 58.1869C263.723 58.1869 266.819 51.9589 266.819 45.7669C266.819 39.5749 263.723 33.3829 256.883 33.3829C250.007 33.3829 246.947 39.5749 246.947 45.7669C246.947 51.9589 250.007 58.1869 256.883 58.1869ZM256.883 53.6509C253.427 53.6509 252.131 50.1949 252.131 45.7669C252.131 41.3389 253.427 37.9189 256.883 37.9189C260.303 37.9189 261.599 41.3389 261.599 45.7669C261.599 50.1949 260.303 53.6509 256.883 53.6509ZM279.207 58.1869C286.047 58.1869 289.143 51.9589 289.143 45.7669C289.143 39.5749 286.047 33.3829 279.207 33.3829C272.331 33.3829 269.271 39.5749 269.271 45.7669C269.271 51.9589 272.331 58.1869 279.207 58.1869ZM279.207 53.6509C275.751 53.6509 274.455 50.1949 274.455 45.7669C274.455 41.3389 275.751 37.9189 279.207 37.9189C282.627 37.9189 283.923 41.3389 283.923 45.7669C283.923 50.1949 282.627 53.6509 279.207 53.6509ZM307.472 47.0269V44.1829H301.028V37.1629H297.896V44.1829H291.416V47.0269H297.896V54.3349H301.028V47.0269H307.472Z" fill="#BAFD02"/>
</g>
<g clip-path="url(#clip3_8_70)">
<rect x="279.725" y="212.001" width="263" height="123" rx="9.5" fill="url(#paint3_linear_8_70)" stroke="#363D3E"/>
<path opacity="0.598583" d="M316.353 305.717C318.477 305.717 319.917 304.709 320.925 303.323L319.665 302.639C318.981 303.647 317.721 304.385 316.353 304.385C313.725 304.385 311.727 302.351 311.727 299.507C311.727 296.627 313.725 294.629 316.353 294.629C317.721 294.629 318.981 295.349 319.665 296.375L320.907 295.673C319.953 294.305 318.477 293.297 316.353 293.297C312.897 293.297 310.179 295.817 310.179 299.507C310.179 303.197 312.897 305.717 316.353 305.717ZM326.573 305.717C329.219 305.717 330.875 303.665 330.875 301.145C330.875 298.625 329.219 296.591 326.573 296.591C323.927 296.591 322.271 298.625 322.271 301.145C322.271 303.665 323.927 305.717 326.573 305.717ZM326.573 304.511C324.719 304.511 323.693 302.927 323.693 301.145C323.693 299.381 324.719 297.797 326.573 297.797C328.427 297.797 329.453 299.381 329.453 301.145C329.453 302.927 328.427 304.511 326.573 304.511ZM344.92 305.501V299.219C344.92 297.473 344.074 296.591 342.49 296.591C341.23 296.591 340.06 297.419 339.574 298.211C339.322 297.311 338.566 296.591 337.252 296.591C335.956 296.591 334.804 297.509 334.426 298.067V296.807H333.076V305.501H334.426V299.147C334.894 298.445 335.83 297.797 336.712 297.797C337.864 297.797 338.314 298.499 338.314 299.597V305.501H339.664V299.129C340.114 298.427 341.068 297.797 341.968 297.797C343.102 297.797 343.57 298.499 343.57 299.597V305.501H344.92ZM359.457 305.501V299.219C359.457 297.473 358.611 296.591 357.027 296.591C355.767 296.591 354.597 297.419 354.111 298.211C353.859 297.311 353.103 296.591 351.789 296.591C350.493 296.591 349.341 297.509 348.963 298.067V296.807H347.613V305.501H348.963V299.147C349.431 298.445 350.367 297.797 351.249 297.797C352.401 297.797 352.851 298.499 352.851 299.597V305.501H354.201V299.129C354.651 298.427 355.605 297.797 356.505 297.797C357.639 297.797 358.107 298.499 358.107 299.597V305.501H359.457ZM369.368 305.501V296.807H368.018V303.197C367.514 303.899 366.506 304.511 365.462 304.511C364.274 304.511 363.5 304.061 363.5 302.531V296.807H362.15V302.945C362.15 304.817 363.104 305.717 364.922 305.717C366.218 305.717 367.352 305.033 368.018 304.277V305.501H369.368ZM379.282 305.501V299.399C379.282 297.509 378.328 296.591 376.528 296.591C375.214 296.591 374.026 297.329 373.414 298.067V296.807H372.064V305.501H373.414V299.147C373.936 298.445 374.926 297.797 375.988 297.797C377.158 297.797 377.95 298.265 377.95 299.813V305.501H379.282ZM382.68 295.565C383.184 295.565 383.58 295.169 383.58 294.665C383.58 294.161 383.184 293.747 382.68 293.747C382.176 293.747 381.762 294.161 381.762 294.665C381.762 295.169 382.176 295.565 382.68 295.565ZM383.346 305.501V296.807H381.996V305.501H383.346ZM388.253 305.717C389.027 305.717 389.513 305.483 389.855 305.159L389.459 304.133C389.279 304.331 388.937 304.511 388.541 304.511C387.965 304.511 387.677 304.043 387.677 303.395V297.995H389.441V296.807H387.677V294.431H386.309V296.807H384.869V297.995H386.309V303.683C386.309 304.979 386.957 305.717 388.253 305.717ZM390.862 308.903C391.096 308.975 391.546 309.029 391.834 309.029C392.986 309.011 393.868 308.525 394.39 307.265L398.746 296.807H397.288L394.39 303.935L391.51 296.807H390.034L393.67 305.591L393.094 306.905C392.788 307.625 392.392 307.823 391.798 307.823C391.582 307.823 391.258 307.769 391.06 307.679L390.862 308.903ZM408.97 305.501C412.714 305.501 415.126 302.927 415.126 299.507C415.126 296.105 412.714 293.495 408.97 293.495H404.866V305.501H408.97ZM408.97 304.169H406.36V294.827H408.97C411.94 294.827 413.578 296.915 413.578 299.507C413.578 302.081 411.886 304.169 408.97 304.169ZM421.358 305.717C422.762 305.717 423.932 305.231 424.814 304.367L424.166 303.485C423.464 304.205 422.474 304.601 421.466 304.601C419.594 304.601 418.46 303.233 418.352 301.595H425.372V301.253C425.372 298.643 423.824 296.591 421.196 296.591C418.712 296.591 416.912 298.625 416.912 301.145C416.912 303.863 418.766 305.717 421.358 305.717ZM424.04 300.587H418.334C418.406 299.273 419.324 297.707 421.178 297.707C423.158 297.707 424.022 299.309 424.04 300.587ZM428.908 305.501V293.495H427.558V305.501H428.908ZM435.543 305.717C436.947 305.717 438.117 305.231 438.999 304.367L438.351 303.485C437.649 304.205 436.659 304.601 435.651 304.601C433.779 304.601 432.645 303.233 432.537 301.595H439.557V301.253C439.557 298.643 438.009 296.591 435.381 296.591C432.897 296.591 431.097 298.625 431.097 301.145C431.097 303.863 432.951 305.717 435.543 305.717ZM438.225 300.587H432.519C432.591 299.273 433.509 297.707 435.363 297.707C437.343 297.707 438.207 299.309 438.225 300.587ZM445.236 309.029C447.36 309.029 449.394 308.129 449.394 305.375V296.807H448.044V298.121C447.342 297.167 446.28 296.591 445.11 296.591C442.824 296.591 441.24 298.319 441.24 301.109C441.24 303.917 442.842 305.609 445.11 305.609C446.334 305.609 447.396 304.943 448.044 304.061V305.375C448.044 307.211 446.676 307.913 445.236 307.913C443.994 307.913 443.13 307.589 442.41 306.743L441.726 307.715C442.77 308.741 443.778 309.029 445.236 309.029ZM445.452 304.403C443.688 304.403 442.644 303.017 442.644 301.109C442.644 299.183 443.688 297.797 445.452 297.797C446.514 297.797 447.558 298.445 448.044 299.183V302.999C447.558 303.755 446.514 304.403 445.452 304.403ZM458.883 305.501V299.525C458.883 297.419 457.371 296.591 455.517 296.591C454.095 296.591 452.979 297.059 452.043 298.031L452.673 298.967C453.447 298.121 454.293 297.761 455.337 297.761C456.597 297.761 457.533 298.427 457.533 299.579V301.145C456.831 300.353 455.841 299.975 454.653 299.975C453.177 299.975 451.629 300.875 451.629 302.837C451.629 304.727 453.195 305.717 454.653 305.717C455.823 305.717 456.831 305.303 457.533 304.511V305.501H458.883ZM455.157 304.745C453.879 304.745 452.997 303.953 452.997 302.837C452.997 301.739 453.879 300.947 455.157 300.947C456.093 300.947 457.011 301.307 457.533 302.009V303.665C457.011 304.385 456.093 304.745 455.157 304.745ZM463.821 305.717C464.595 305.717 465.081 305.483 465.423 305.159L465.027 304.133C464.847 304.331 464.505 304.511 464.109 304.511C463.533 304.511 463.245 304.043 463.245 303.395V297.995H465.009V296.807H463.245V294.431H461.877V296.807H460.437V297.995H461.877V303.683C461.877 304.979 462.525 305.717 463.821 305.717ZM470.84 305.717C472.244 305.717 473.414 305.231 474.296 304.367L473.648 303.485C472.946 304.205 471.956 304.601 470.948 304.601C469.076 304.601 467.942 303.233 467.834 301.595H474.854V301.253C474.854 298.643 473.306 296.591 470.678 296.591C468.194 296.591 466.394 298.625 466.394 301.145C466.394 303.863 468.248 305.717 470.84 305.717ZM473.522 300.587H467.816C467.888 299.273 468.806 297.707 470.66 297.707C472.64 297.707 473.504 299.309 473.522 300.587ZM479.813 305.717C482.045 305.717 483.215 304.547 483.215 303.089C483.215 299.705 477.833 300.947 477.833 299.057C477.833 298.283 478.571 297.689 479.759 297.689C480.893 297.689 481.829 298.157 482.351 298.787L482.981 297.851C482.297 297.149 481.253 296.591 479.759 296.591C477.689 296.591 476.537 297.725 476.537 299.093C476.537 302.315 481.919 301.019 481.919 303.125C481.919 303.989 481.181 304.619 479.849 304.619C478.661 304.619 477.563 304.043 476.987 303.377L476.303 304.349C477.185 305.267 478.373 305.717 479.813 305.717Z" fill="white"/>
<path d="M326.757 268.501V263.533H329.853V259.033H326.757V244.489H319.701L310.161 259.501V263.533H321.645V268.501H326.757ZM321.645 259.033H315.165L321.645 249.025V259.033ZM338.481 266.737C338.481 264.397 336.933 263.065 335.241 263.065C333.729 263.065 332.433 264.361 332.433 265.945C332.433 267.493 333.513 268.537 334.881 268.537C335.133 268.537 335.457 268.465 335.565 268.429C335.277 269.689 333.945 271.201 332.793 271.813L334.773 273.433C336.969 271.849 338.481 269.437 338.481 266.737ZM357.448 268.501V263.533H360.544V259.033H357.448V244.489H350.392L340.852 259.501V263.533H352.336V268.501H357.448ZM352.336 259.033H345.856L352.336 249.025V259.033ZM372.593 268.933C379.433 268.933 382.529 262.705 382.529 256.513C382.529 250.321 379.433 244.129 372.593 244.129C365.717 244.129 362.657 250.321 362.657 256.513C362.657 262.705 365.717 268.933 372.593 268.933ZM372.593 264.397C369.137 264.397 367.841 260.941 367.841 256.513C367.841 252.085 369.137 248.665 372.593 248.665C376.013 248.665 377.309 252.085 377.309 256.513C377.309 260.941 376.013 264.397 372.593 264.397ZM394.917 268.933C401.757 268.933 404.853 262.705 404.853 256.513C404.853 250.321 401.757 244.129 394.917 244.129C388.041 244.129 384.981 250.321 384.981 256.513C384.981 262.705 388.041 268.933 394.917 268.933ZM394.917 264.397C391.461 264.397 390.165 260.941 390.165 256.513C390.165 252.085 391.461 248.665 394.917 248.665C398.337 248.665 399.633 252.085 399.633 256.513C399.633 260.941 398.337 264.397 394.917 264.397ZM423.181 257.773V254.929H416.737V247.909H413.605V254.929H407.125V257.773H413.605V265.081H416.737V257.773H423.181Z" fill="#BAFD02"/>
</g>
<defs>
<linearGradient id="paint0_linear_8_70" x1="0" y1="187.255" x2="0" y2="283.255" gradientUnits="userSpaceOnUse">
<stop stop-color="#2A2F2D"/>
<stop offset="1" stop-color="#202426"/>
</linearGradient>
<linearGradient id="paint1_linear_8_70" x1="55" y1="422.255" x2="55" y2="546.255" gradientUnits="userSpaceOnUse">
<stop stop-color="#2A2F2D"/>
<stop offset="1" stop-color="#202426"/>
</linearGradient>
<linearGradient id="paint2_linear_8_70" x1="194.559" y1="0.754883" x2="194.559" y2="124.755" gradientUnits="userSpaceOnUse">
<stop stop-color="#2A2F2D"/>
<stop offset="1" stop-color="#202426"/>
</linearGradient>
<linearGradient id="paint3_linear_8_70" x1="279.225" y1="211.501" x2="279.225" y2="335.501" gradientUnits="userSpaceOnUse">
<stop stop-color="#2A2F2D"/>
<stop offset="1" stop-color="#202426"/>
</linearGradient>
<clipPath id="clip0_8_70">
<rect width="204.387" height="96" fill="white" transform="translate(0 187.255)"/>
</clipPath>
<clipPath id="clip1_8_70">
<rect width="264" height="124" fill="white" transform="translate(55 422.255)"/>
</clipPath>
<clipPath id="clip2_8_70">
<rect width="264" height="124" fill="white" transform="translate(194.559 0.754883)"/>
</clipPath>
<clipPath id="clip3_8_70">
<rect width="264" height="124" fill="white" transform="translate(279.225 211.501)"/>
</clipPath>
</defs>
</svg>
