<svg width="50" height="50" viewBox="0 0 50 50" fill="none" xmlns="http://www.w3.org/2000/svg">
<g clip-path="url(#clip0_1_2)">
<path d="M25 50C38.8071 50 50 38.8071 50 25C50 11.1929 38.8071 0 25 0C11.1929 0 0 11.1929 0 25C0 38.8071 11.1929 50 25 50Z" fill="#2D374B"/>
<path d="M23.3355 7.10127C24.367 6.51833 25.638 6.51833 26.6695 7.10127L40.0028 14.6366C41.0339 15.2193 41.6691 16.2961 41.6691 17.4614V32.5334C41.6691 33.6987 41.0339 34.7755 40.0028 35.3582L26.6695 42.8935C25.638 43.4765 24.367 43.4765 23.3355 42.8935L10.0023 35.3582C8.97119 34.7755 8.33594 33.6987 8.33594 32.5334V17.4614C8.33594 16.2961 8.97119 15.2193 10.0023 14.6366L23.3355 7.10127Z" fill="#96BEDC"/>
<path d="M24.4997 9.05988C24.8436 8.86546 25.2674 8.86546 25.6112 9.05988L38.8057 16.5189C39.1492 16.7131 39.3609 17.072 39.3609 17.4604V32.3794C39.3609 32.7678 39.1492 33.1267 38.8057 33.321L25.6112 40.78C25.2674 40.9744 24.8436 40.9744 24.4997 40.78L11.3053 33.321C10.9617 33.1267 10.75 32.7678 10.75 32.3794V17.4604C10.75 17.072 10.9617 16.7131 11.3053 16.5189L24.4997 9.05988Z" fill="#2D374B"/>
<path d="M11.9949 36.4881L9.61594 35.1436C8.82502 34.6966 8.33594 33.8584 8.33594 32.9499L17.2736 19.566C18.2484 18.1063 19.9099 17.2266 21.6916 17.2266H24.2664L11.9949 36.4881Z" fill="white"/>
<path d="M17.6694 39.698L13.3906 37.2798L25.8583 17.2266H31.261L17.6694 39.698Z" fill="white"/>
<path fill-rule="evenodd" clip-rule="evenodd" d="M35.0466 35.4467L30.3044 38.1276L25.1406 30.2204L28.3073 25.0283L35.0466 35.4467ZM39.3629 30.083V32.3791C39.3629 32.7674 39.1512 33.1264 38.8076 33.3206L36.3981 34.6827L29.224 23.4109L31.9739 18.8984L39.3629 30.083Z" fill="#28A0F0"/>
</g>
<defs>
<clipPath id="clip0_1_2">
<rect width="50" height="50" fill="white"/>
</clipPath>
</defs>
</svg>
