<svg width="50" height="50" viewBox="0 0 50 50" fill="none" xmlns="http://www.w3.org/2000/svg">
<g id="Group 5506">
<path id="Vector" d="M25 50C38.8071 50 50 38.8071 50 25C50 11.1929 38.8071 0 25 0C11.1929 0 0 11.1929 0 25C0 38.8071 11.1929 50 25 50Z" fill="#1A373D"/>
<path id="Vector_2" fill-rule="evenodd" clip-rule="evenodd" d="M20.5951 11.9378C22.4306 8.52074 27.566 8.52074 29.4015 11.9377L38.3396 28.5774C40.0198 31.7053 37.6304 35.4167 33.9364 35.4167H16.0602C12.3662 35.4167 9.97677 31.7053 11.6569 28.5774L20.5951 11.9378ZM27.3693 12.9247C26.3809 11.0847 23.6157 11.0847 22.6274 12.9247L13.6892 29.5642C12.7845 31.2485 14.0711 33.247 16.0602 33.247H33.9364C35.9254 33.247 37.2121 31.2485 36.3074 29.5642L27.3693 12.9247Z" fill="#86D65B"/>
</g>
</svg>
