<svg width="50" height="50" viewBox="0 0 50 50" fill="none" xmlns="http://www.w3.org/2000/svg">
<g id="Group 5500">
<path id="Vector" d="M25 50C38.8071 50 50 38.8071 50 25C50 11.1929 38.8071 0 25 0C11.1929 0 0 11.1929 0 25C0 38.8071 11.1929 50 25 50Z" fill="#D64F4A"/>
<path id="Vector_2" fill-rule="evenodd" clip-rule="evenodd" d="M18.7174 35.4149H13.8317C12.6733 35.4149 12.094 35.4149 11.7472 35.1863C11.3723 34.9394 11.1358 34.5248 11.1107 34.0709C11.0874 33.6509 11.3743 33.1388 11.9481 32.1146L22.6455 13.0189C23.2277 11.9795 23.5188 11.4598 23.8893 11.2664C24.2894 11.0574 24.7639 11.057 25.1644 11.2654C25.5351 11.4583 25.8269 11.9776 26.4106 13.016L28.8778 17.4052C29.3022 18.1603 29.5145 18.5379 29.6078 18.9363C29.7094 19.3699 29.7096 19.8218 29.6084 20.2554C29.5154 20.6539 29.3035 21.0317 28.8796 21.7873L22.4828 33.1897C22.0528 33.9563 21.8378 34.3396 21.5432 34.6261C21.2225 34.9379 20.8337 35.1678 20.4087 35.2966C20.0181 35.4149 19.5846 35.4149 18.7174 35.4149ZM36.1485 35.4149H30.484C29.3151 35.4149 28.7306 35.4149 28.3826 35.1844C28.0066 34.9352 27.7709 34.5176 27.7486 34.0615C27.728 33.6394 28.0222 33.1252 28.6104 32.0969L31.438 27.1538C32.0189 26.1384 32.3094 25.6307 32.6771 25.4405C33.0745 25.235 33.5444 25.2347 33.9422 25.4396C34.3102 25.6292 34.6013 26.1364 35.1834 27.1508L38.0205 32.0941C38.6111 33.1231 38.9064 33.6376 38.8862 34.06C38.8644 34.5164 38.6287 34.9345 38.2525 35.1841C37.9045 35.4149 37.3192 35.4149 36.1485 35.4149Z" fill="white"/>
</g>
</svg>
