<svg width="711" height="402" viewBox="0 0 711 402" fill="none" xmlns="http://www.w3.org/2000/svg">
<path opacity="0.0565847" d="M0.792637 378.5H658.314" stroke="white"/>
<path d="M1.77182 301L663.634 301" stroke="white" stroke-width="0.5" stroke-linecap="round" stroke-dasharray="3"/>
<rect x="661.773" y="293.08" width="49.0658" height="16" rx="8" fill="#B6F509"/>
<path d="M667.418 298.04V297.127H669.486V305.08H668.474V298.04H667.418ZM671.084 304.277C672.015 303.529 672.745 302.917 673.273 302.44C673.801 301.956 674.245 301.454 674.604 300.933C674.971 300.405 675.154 299.888 675.154 299.382C675.154 298.905 675.037 298.531 674.802 298.26C674.575 297.981 674.204 297.842 673.691 297.842C673.192 297.842 672.804 298 672.525 298.315C672.254 298.623 672.107 299.037 672.085 299.558H671.117C671.146 298.737 671.396 298.102 671.865 297.655C672.334 297.208 672.939 296.984 673.68 296.984C674.435 296.984 675.033 297.193 675.473 297.611C675.92 298.029 676.144 298.605 676.144 299.338C676.144 299.947 675.961 300.541 675.594 301.12C675.235 301.692 674.824 302.198 674.362 302.638C673.9 303.071 673.31 303.577 672.591 304.156H676.375V304.992H671.084V304.277ZM678.819 302.946C678.892 303.364 679.061 303.687 679.325 303.914C679.596 304.141 679.959 304.255 680.414 304.255C681.023 304.255 681.47 304.017 681.756 303.54C682.049 303.063 682.189 302.26 682.174 301.131C682.02 301.461 681.763 301.721 681.404 301.912C681.045 302.095 680.645 302.187 680.205 302.187C679.714 302.187 679.274 302.088 678.885 301.89C678.504 301.685 678.203 301.388 677.983 300.999C677.763 300.61 677.653 300.141 677.653 299.591C677.653 298.806 677.88 298.176 678.335 297.699C678.79 297.215 679.435 296.973 680.271 296.973C681.298 296.973 682.016 297.307 682.427 297.974C682.845 298.641 683.054 299.635 683.054 300.955C683.054 301.879 682.97 302.642 682.801 303.243C682.64 303.844 682.361 304.303 681.965 304.618C681.576 304.933 681.041 305.091 680.359 305.091C679.611 305.091 679.028 304.889 678.61 304.486C678.192 304.083 677.954 303.569 677.895 302.946H678.819ZM680.37 301.34C680.861 301.34 681.265 301.19 681.58 300.889C681.895 300.581 682.053 300.167 682.053 299.646C682.053 299.096 681.899 298.652 681.591 298.315C681.283 297.978 680.85 297.809 680.293 297.809C679.78 297.809 679.369 297.97 679.061 298.293C678.76 298.616 678.61 299.041 678.61 299.569C678.61 300.104 678.76 300.533 679.061 300.856C679.362 301.179 679.798 301.34 680.37 301.34ZM689.532 297.996H685.671V300.504C685.839 300.269 686.089 300.079 686.419 299.932C686.749 299.778 687.104 299.701 687.486 299.701C688.094 299.701 688.589 299.829 688.971 300.086C689.352 300.335 689.623 300.662 689.785 301.065C689.953 301.461 690.038 301.883 690.038 302.33C690.038 302.858 689.939 303.331 689.741 303.749C689.543 304.167 689.238 304.497 688.828 304.739C688.424 304.981 687.922 305.102 687.321 305.102C686.551 305.102 685.927 304.904 685.451 304.508C684.974 304.112 684.684 303.584 684.582 302.924H685.561C685.656 303.342 685.858 303.668 686.166 303.903C686.474 304.138 686.862 304.255 687.332 304.255C687.911 304.255 688.347 304.083 688.641 303.738C688.934 303.386 689.081 302.924 689.081 302.352C689.081 301.78 688.934 301.34 688.641 301.032C688.347 300.717 687.915 300.559 687.343 300.559C686.954 300.559 686.613 300.654 686.32 300.845C686.034 301.028 685.825 301.281 685.693 301.604H684.747V297.116H689.532V297.996ZM691.852 305.146C691.661 305.146 691.5 305.08 691.368 304.948C691.236 304.816 691.17 304.655 691.17 304.464C691.17 304.273 691.236 304.112 691.368 303.98C691.5 303.848 691.661 303.782 691.852 303.782C692.035 303.782 692.189 303.848 692.314 303.98C692.446 304.112 692.512 304.273 692.512 304.464C692.512 304.655 692.446 304.816 692.314 304.948C692.189 305.08 692.035 305.146 691.852 305.146ZM693.414 298.04V297.127H695.482V305.08H694.47V298.04H693.414ZM701.634 299.019C701.473 298.205 700.97 297.798 700.127 297.798C699.474 297.798 698.987 298.051 698.664 298.557C698.341 299.056 698.184 299.881 698.191 301.032C698.36 300.651 698.638 300.354 699.027 300.141C699.423 299.921 699.863 299.811 700.347 299.811C701.102 299.811 701.704 300.046 702.151 300.515C702.606 300.984 702.833 301.633 702.833 302.462C702.833 302.961 702.734 303.408 702.536 303.804C702.345 304.2 702.052 304.515 701.656 304.75C701.267 304.985 700.794 305.102 700.237 305.102C699.482 305.102 698.891 304.933 698.466 304.596C698.041 304.259 697.744 303.793 697.575 303.199C697.406 302.605 697.322 301.872 697.322 300.999C697.322 298.308 698.261 296.962 700.138 296.962C700.857 296.962 701.421 297.156 701.832 297.545C702.243 297.934 702.485 298.425 702.558 299.019H701.634ZM700.138 300.658C699.823 300.658 699.526 300.724 699.247 300.856C698.968 300.981 698.741 301.175 698.565 301.439C698.396 301.696 698.312 302.011 698.312 302.385C698.312 302.942 698.473 303.397 698.796 303.749C699.119 304.094 699.581 304.266 700.182 304.266C700.695 304.266 701.102 304.108 701.403 303.793C701.711 303.47 701.865 303.038 701.865 302.495C701.865 301.923 701.718 301.476 701.425 301.153C701.132 300.823 700.703 300.658 700.138 300.658Z" fill="#17234C"/>
<path d="M667.578 375.126V374.675H669.206V382.496H668.711V375.126H667.578ZM670.909 378.547C670.909 377.278 671.092 376.303 671.459 375.621C671.826 374.932 672.5 374.587 673.483 374.587C674.458 374.587 675.129 374.932 675.496 375.621C675.863 376.303 676.046 377.278 676.046 378.547C676.046 379.83 675.863 380.82 675.496 381.517C675.129 382.206 674.458 382.551 673.483 382.551C672.5 382.551 671.826 382.206 671.459 381.517C671.092 380.82 670.909 379.83 670.909 378.547ZM675.562 378.547C675.562 377.814 675.507 377.194 675.397 376.688C675.294 376.182 675.089 375.782 674.781 375.489C674.48 375.188 674.048 375.038 673.483 375.038C672.918 375.038 672.482 375.188 672.174 375.489C671.873 375.782 671.668 376.182 671.558 376.688C671.455 377.194 671.404 377.814 671.404 378.547C671.404 379.295 671.455 379.926 671.558 380.439C671.668 380.945 671.873 381.348 672.174 381.649C672.482 381.95 672.918 382.1 673.483 382.1C674.048 382.1 674.48 381.95 674.781 381.649C675.089 381.348 675.294 380.945 675.397 380.439C675.507 379.926 675.562 379.295 675.562 378.547ZM677.526 378.547C677.526 377.278 677.709 376.303 678.076 375.621C678.443 374.932 679.117 374.587 680.1 374.587C681.075 374.587 681.746 374.932 682.113 375.621C682.48 376.303 682.663 377.278 682.663 378.547C682.663 379.83 682.48 380.82 682.113 381.517C681.746 382.206 681.075 382.551 680.1 382.551C679.117 382.551 678.443 382.206 678.076 381.517C677.709 380.82 677.526 379.83 677.526 378.547ZM682.179 378.547C682.179 377.814 682.124 377.194 682.014 376.688C681.911 376.182 681.706 375.782 681.398 375.489C681.097 375.188 680.665 375.038 680.1 375.038C679.535 375.038 679.099 375.188 678.791 375.489C678.49 375.782 678.285 376.182 678.175 376.688C678.072 377.194 678.021 377.814 678.021 378.547C678.021 379.295 678.072 379.926 678.175 380.439C678.285 380.945 678.49 381.348 678.791 381.649C679.099 381.95 679.535 382.1 680.1 382.1C680.665 382.1 681.097 381.95 681.398 381.649C681.706 381.348 681.911 380.945 682.014 380.439C682.124 379.926 682.179 379.295 682.179 378.547ZM684.143 378.547C684.143 377.278 684.327 376.303 684.693 375.621C685.06 374.932 685.735 374.587 686.717 374.587C687.693 374.587 688.364 374.932 688.73 375.621C689.097 376.303 689.28 377.278 689.28 378.547C689.28 379.83 689.097 380.82 688.73 381.517C688.364 382.206 687.693 382.551 686.717 382.551C685.735 382.551 685.06 382.206 684.693 381.517C684.327 380.82 684.143 379.83 684.143 378.547ZM688.796 378.547C688.796 377.814 688.741 377.194 688.631 376.688C688.529 376.182 688.323 375.782 688.015 375.489C687.715 375.188 687.282 375.038 686.717 375.038C686.153 375.038 685.716 375.188 685.408 375.489C685.108 375.782 684.902 376.182 684.792 376.688C684.69 377.194 684.638 377.814 684.638 378.547C684.638 379.295 684.69 379.926 684.792 380.439C684.902 380.945 685.108 381.348 685.408 381.649C685.716 381.95 686.153 382.1 686.717 382.1C687.282 382.1 687.715 381.95 688.015 381.649C688.323 381.348 688.529 380.945 688.631 380.439C688.741 379.926 688.796 379.295 688.796 378.547ZM690.848 382.529C690.724 382.529 690.621 382.489 690.54 382.408C690.46 382.327 690.419 382.225 690.419 382.1C690.419 381.975 690.46 381.873 690.54 381.792C690.621 381.711 690.724 381.671 690.848 381.671C690.966 381.671 691.065 381.711 691.145 381.792C691.226 381.873 691.266 381.975 691.266 382.1C691.266 382.225 691.226 382.327 691.145 382.408C691.065 382.489 690.966 382.529 690.848 382.529ZM692.404 378.547C692.404 377.278 692.587 376.303 692.954 375.621C693.321 374.932 693.995 374.587 694.978 374.587C695.953 374.587 696.624 374.932 696.991 375.621C697.358 376.303 697.541 377.278 697.541 378.547C697.541 379.83 697.358 380.82 696.991 381.517C696.624 382.206 695.953 382.551 694.978 382.551C693.995 382.551 693.321 382.206 692.954 381.517C692.587 380.82 692.404 379.83 692.404 378.547ZM697.057 378.547C697.057 377.814 697.002 377.194 696.892 376.688C696.789 376.182 696.584 375.782 696.276 375.489C695.975 375.188 695.543 375.038 694.978 375.038C694.413 375.038 693.977 375.188 693.669 375.489C693.368 375.782 693.163 376.182 693.053 376.688C692.95 377.194 692.899 377.814 692.899 378.547C692.899 379.295 692.95 379.926 693.053 380.439C693.163 380.945 693.368 381.348 693.669 381.649C693.977 381.95 694.413 382.1 694.978 382.1C695.543 382.1 695.975 381.95 696.276 381.649C696.584 381.348 696.789 380.945 696.892 380.439C697.002 379.926 697.057 379.295 697.057 378.547ZM699.021 378.547C699.021 377.278 699.205 376.303 699.571 375.621C699.938 374.932 700.613 374.587 701.595 374.587C702.571 374.587 703.242 374.932 703.608 375.621C703.975 376.303 704.158 377.278 704.158 378.547C704.158 379.83 703.975 380.82 703.608 381.517C703.242 382.206 702.571 382.551 701.595 382.551C700.613 382.551 699.938 382.206 699.571 381.517C699.205 380.82 699.021 379.83 699.021 378.547ZM703.674 378.547C703.674 377.814 703.619 377.194 703.509 376.688C703.407 376.182 703.201 375.782 702.893 375.489C702.593 375.188 702.16 375.038 701.595 375.038C701.031 375.038 700.594 375.188 700.286 375.489C699.986 375.782 699.78 376.182 699.67 376.688C699.568 377.194 699.516 377.814 699.516 378.547C699.516 379.295 699.568 379.926 699.67 380.439C699.78 380.945 699.986 381.348 700.286 381.649C700.594 381.95 701.031 382.1 701.595 382.1C702.16 382.1 702.593 381.95 702.893 381.649C703.201 381.348 703.407 380.945 703.509 380.439C703.619 379.926 703.674 379.295 703.674 378.547Z" fill="white" fill-opacity="0.6"/>
<path d="M667.274 345.13V344.679H668.902V352.5H668.407V345.13H667.274ZM670.12 345.13V344.679H671.748V352.5H671.253V345.13H670.12ZM673.451 348.551C673.451 347.282 673.634 346.307 674.001 345.625C674.368 344.936 675.042 344.591 676.025 344.591C677 344.591 677.671 344.936 678.038 345.625C678.405 346.307 678.588 347.282 678.588 348.551C678.588 349.834 678.405 350.824 678.038 351.521C677.671 352.21 677 352.555 676.025 352.555C675.042 352.555 674.368 352.21 674.001 351.521C673.634 350.824 673.451 349.834 673.451 348.551ZM678.104 348.551C678.104 347.818 678.049 347.198 677.939 346.692C677.836 346.186 677.631 345.786 677.323 345.493C677.022 345.192 676.59 345.042 676.025 345.042C675.46 345.042 675.024 345.192 674.716 345.493C674.415 345.786 674.21 346.186 674.1 346.692C673.997 347.198 673.946 347.818 673.946 348.551C673.946 349.299 673.997 349.93 674.1 350.443C674.21 350.949 674.415 351.352 674.716 351.653C675.024 351.954 675.46 352.104 676.025 352.104C676.59 352.104 677.022 351.954 677.323 351.653C677.631 351.352 677.836 350.949 677.939 350.443C678.049 349.93 678.104 349.299 678.104 348.551ZM680.068 348.551C680.068 347.282 680.251 346.307 680.618 345.625C680.985 344.936 681.659 344.591 682.642 344.591C683.617 344.591 684.288 344.936 684.655 345.625C685.022 346.307 685.205 347.282 685.205 348.551C685.205 349.834 685.022 350.824 684.655 351.521C684.288 352.21 683.617 352.555 682.642 352.555C681.659 352.555 680.985 352.21 680.618 351.521C680.251 350.824 680.068 349.834 680.068 348.551ZM684.721 348.551C684.721 347.818 684.666 347.198 684.556 346.692C684.453 346.186 684.248 345.786 683.94 345.493C683.639 345.192 683.207 345.042 682.642 345.042C682.077 345.042 681.641 345.192 681.333 345.493C681.032 345.786 680.827 346.186 680.717 346.692C680.614 347.198 680.563 347.818 680.563 348.551C680.563 349.299 680.614 349.93 680.717 350.443C680.827 350.949 681.032 351.352 681.333 351.653C681.641 351.954 682.077 352.104 682.642 352.104C683.207 352.104 683.639 351.954 683.94 351.653C684.248 351.352 684.453 350.949 684.556 350.443C684.666 349.93 684.721 349.299 684.721 348.551ZM686.773 352.533C686.649 352.533 686.546 352.493 686.465 352.412C686.385 352.331 686.344 352.229 686.344 352.104C686.344 351.979 686.385 351.877 686.465 351.796C686.546 351.715 686.649 351.675 686.773 351.675C686.891 351.675 686.99 351.715 687.07 351.796C687.151 351.877 687.191 351.979 687.191 352.104C687.191 352.229 687.151 352.331 687.07 352.412C686.99 352.493 686.891 352.533 686.773 352.533ZM688.329 348.551C688.329 347.282 688.512 346.307 688.879 345.625C689.245 344.936 689.92 344.591 690.903 344.591C691.878 344.591 692.549 344.936 692.916 345.625C693.282 346.307 693.466 347.282 693.466 348.551C693.466 349.834 693.282 350.824 692.916 351.521C692.549 352.21 691.878 352.555 690.903 352.555C689.92 352.555 689.245 352.21 688.879 351.521C688.512 350.824 688.329 349.834 688.329 348.551ZM692.982 348.551C692.982 347.818 692.927 347.198 692.817 346.692C692.714 346.186 692.509 345.786 692.201 345.493C691.9 345.192 691.467 345.042 690.903 345.042C690.338 345.042 689.902 345.192 689.594 345.493C689.293 345.786 689.088 346.186 688.978 346.692C688.875 347.198 688.824 347.818 688.824 348.551C688.824 349.299 688.875 349.93 688.978 350.443C689.088 350.949 689.293 351.352 689.594 351.653C689.902 351.954 690.338 352.104 690.903 352.104C691.467 352.104 691.9 351.954 692.201 351.653C692.509 351.352 692.714 350.949 692.817 350.443C692.927 349.93 692.982 349.299 692.982 348.551ZM694.946 348.551C694.946 347.282 695.129 346.307 695.496 345.625C695.863 344.936 696.537 344.591 697.52 344.591C698.495 344.591 699.166 344.936 699.533 345.625C699.9 346.307 700.083 347.282 700.083 348.551C700.083 349.834 699.9 350.824 699.533 351.521C699.166 352.21 698.495 352.555 697.52 352.555C696.537 352.555 695.863 352.21 695.496 351.521C695.129 350.824 694.946 349.834 694.946 348.551ZM699.599 348.551C699.599 347.818 699.544 347.198 699.434 346.692C699.331 346.186 699.126 345.786 698.818 345.493C698.517 345.192 698.085 345.042 697.52 345.042C696.955 345.042 696.519 345.192 696.211 345.493C695.91 345.786 695.705 346.186 695.595 346.692C695.492 347.198 695.441 347.818 695.441 348.551C695.441 349.299 695.492 349.93 695.595 350.443C695.705 350.949 695.91 351.352 696.211 351.653C696.519 351.954 696.955 352.104 697.52 352.104C698.085 352.104 698.517 351.954 698.818 351.653C699.126 351.352 699.331 350.949 699.434 350.443C699.544 349.93 699.599 349.299 699.599 348.551Z" fill="white" fill-opacity="0.6"/>
<path d="M667.578 285.263V284.812H669.206V292.633H668.711V285.263H667.578ZM670.876 286.858C670.942 286.19 671.199 285.666 671.646 285.285C672.101 284.903 672.698 284.713 673.439 284.713C673.916 284.713 674.323 284.801 674.66 284.977C674.997 285.145 675.254 285.376 675.43 285.67C675.606 285.963 675.694 286.297 675.694 286.671C675.694 287.14 675.551 287.547 675.265 287.892C674.979 288.229 674.543 288.431 673.956 288.497V288.563C674.521 288.651 674.975 288.867 675.32 289.212C675.665 289.556 675.837 290.018 675.837 290.598C675.837 291.214 675.632 291.72 675.221 292.116C674.818 292.504 674.224 292.699 673.439 292.699C672.698 292.699 672.086 292.501 671.602 292.105C671.125 291.709 670.839 291.148 670.744 290.422H671.228C671.316 290.964 671.551 291.408 671.932 291.753C672.313 292.09 672.816 292.259 673.439 292.259C674.07 292.259 674.546 292.101 674.869 291.786C675.199 291.47 675.364 291.063 675.364 290.565C675.364 289.963 675.133 289.512 674.671 289.212C674.216 288.911 673.564 288.761 672.713 288.761H672.504V288.332H672.724C674.381 288.324 675.21 287.782 675.21 286.704C675.21 286.234 675.052 285.857 674.737 285.571C674.429 285.285 673.993 285.142 673.428 285.142C672.878 285.142 672.412 285.288 672.031 285.582C671.657 285.868 671.433 286.293 671.36 286.858H670.876ZM677.29 288.684C677.29 287.415 677.473 286.44 677.84 285.758C678.206 285.068 678.881 284.724 679.864 284.724C680.839 284.724 681.51 285.068 681.877 285.758C682.243 286.44 682.427 287.415 682.427 288.684C682.427 289.967 682.243 290.957 681.877 291.654C681.51 292.343 680.839 292.688 679.864 292.688C678.881 292.688 678.206 292.343 677.84 291.654C677.473 290.957 677.29 289.967 677.29 288.684ZM681.943 288.684C681.943 287.95 681.888 287.331 681.778 286.825C681.675 286.319 681.47 285.919 681.162 285.626C680.861 285.325 680.428 285.175 679.864 285.175C679.299 285.175 678.863 285.325 678.555 285.626C678.254 285.919 678.049 286.319 677.939 286.825C677.836 287.331 677.785 287.95 677.785 288.684C677.785 289.432 677.836 290.062 677.939 290.576C678.049 291.082 678.254 291.485 678.555 291.786C678.863 292.086 679.299 292.237 679.864 292.237C680.428 292.237 680.861 292.086 681.162 291.786C681.47 291.485 681.675 291.082 681.778 290.576C681.888 290.062 681.943 289.432 681.943 288.684ZM683.907 288.684C683.907 287.415 684.09 286.44 684.457 285.758C684.824 285.068 685.498 284.724 686.481 284.724C687.456 284.724 688.127 285.068 688.494 285.758C688.861 286.44 689.044 287.415 689.044 288.684C689.044 289.967 688.861 290.957 688.494 291.654C688.127 292.343 687.456 292.688 686.481 292.688C685.498 292.688 684.824 292.343 684.457 291.654C684.09 290.957 683.907 289.967 683.907 288.684ZM688.56 288.684C688.56 287.95 688.505 287.331 688.395 286.825C688.292 286.319 688.087 285.919 687.779 285.626C687.478 285.325 687.046 285.175 686.481 285.175C685.916 285.175 685.48 285.325 685.172 285.626C684.871 285.919 684.666 286.319 684.556 286.825C684.453 287.331 684.402 287.95 684.402 288.684C684.402 289.432 684.453 290.062 684.556 290.576C684.666 291.082 684.871 291.485 685.172 291.786C685.48 292.086 685.916 292.237 686.481 292.237C687.046 292.237 687.478 292.086 687.779 291.786C688.087 291.485 688.292 291.082 688.395 290.576C688.505 290.062 688.56 289.432 688.56 288.684ZM690.612 292.666C690.487 292.666 690.385 292.625 690.304 292.545C690.223 292.464 690.183 292.361 690.183 292.237C690.183 292.112 690.223 292.009 690.304 291.929C690.385 291.848 690.487 291.808 690.612 291.808C690.729 291.808 690.828 291.848 690.909 291.929C690.99 292.009 691.03 292.112 691.03 292.237C691.03 292.361 690.99 292.464 690.909 292.545C690.828 292.625 690.729 292.666 690.612 292.666ZM692.168 288.684C692.168 287.415 692.351 286.44 692.718 285.758C693.084 285.068 693.759 284.724 694.742 284.724C695.717 284.724 696.388 285.068 696.755 285.758C697.121 286.44 697.305 287.415 697.305 288.684C697.305 289.967 697.121 290.957 696.755 291.654C696.388 292.343 695.717 292.688 694.742 292.688C693.759 292.688 693.084 292.343 692.718 291.654C692.351 290.957 692.168 289.967 692.168 288.684ZM696.821 288.684C696.821 287.95 696.766 287.331 696.656 286.825C696.553 286.319 696.348 285.919 696.04 285.626C695.739 285.325 695.306 285.175 694.742 285.175C694.177 285.175 693.741 285.325 693.433 285.626C693.132 285.919 692.927 286.319 692.817 286.825C692.714 287.331 692.663 287.95 692.663 288.684C692.663 289.432 692.714 290.062 692.817 290.576C692.927 291.082 693.132 291.485 693.433 291.786C693.741 292.086 694.177 292.237 694.742 292.237C695.306 292.237 695.739 292.086 696.04 291.786C696.348 291.485 696.553 291.082 696.656 290.576C696.766 290.062 696.821 289.432 696.821 288.684ZM698.785 288.684C698.785 287.415 698.968 286.44 699.335 285.758C699.702 285.068 700.376 284.724 701.359 284.724C702.334 284.724 703.005 285.068 703.372 285.758C703.739 286.44 703.922 287.415 703.922 288.684C703.922 289.967 703.739 290.957 703.372 291.654C703.005 292.343 702.334 292.688 701.359 292.688C700.376 292.688 699.702 292.343 699.335 291.654C698.968 290.957 698.785 289.967 698.785 288.684ZM703.438 288.684C703.438 287.95 703.383 287.331 703.273 286.825C703.17 286.319 702.965 285.919 702.657 285.626C702.356 285.325 701.924 285.175 701.359 285.175C700.794 285.175 700.358 285.325 700.05 285.626C699.749 285.919 699.544 286.319 699.434 286.825C699.331 287.331 699.28 287.95 699.28 288.684C699.28 289.432 699.331 290.062 699.434 290.576C699.544 291.082 699.749 291.485 700.05 291.786C700.358 292.086 700.794 292.237 701.359 292.237C701.924 292.237 702.356 292.086 702.657 291.786C702.965 291.485 703.17 291.082 703.273 290.576C703.383 290.062 703.438 289.432 703.438 288.684Z" fill="white" fill-opacity="0.6"/>
<path d="M667.578 315.196V314.745H669.206V322.566H668.711V315.196H667.578ZM670.722 322.203C672.101 321.25 673.186 320.33 673.978 319.442C674.777 318.555 675.177 317.704 675.177 316.89C675.177 316.355 675.034 315.919 674.748 315.581C674.469 315.244 674.011 315.075 673.373 315.075C672.735 315.075 672.247 315.27 671.91 315.658C671.573 316.047 671.382 316.56 671.338 317.198H670.854C670.905 316.392 671.155 315.765 671.602 315.317C672.049 314.87 672.64 314.646 673.373 314.646C674.04 314.646 674.587 314.833 675.012 315.207C675.445 315.581 675.661 316.139 675.661 316.879C675.661 317.796 675.239 318.72 674.396 319.651C673.56 320.583 672.603 321.404 671.525 322.115H675.914V322.533H670.722V322.203ZM677.182 318.617C677.182 317.349 677.366 316.373 677.732 315.691C678.099 315.002 678.774 314.657 679.756 314.657C680.732 314.657 681.403 315.002 681.769 315.691C682.136 316.373 682.319 317.349 682.319 318.617C682.319 319.901 682.136 320.891 681.769 321.587C681.403 322.277 680.732 322.621 679.756 322.621C678.774 322.621 678.099 322.277 677.732 321.587C677.366 320.891 677.182 319.901 677.182 318.617ZM681.835 318.617C681.835 317.884 681.78 317.264 681.67 316.758C681.568 316.252 681.362 315.853 681.054 315.559C680.754 315.259 680.321 315.108 679.756 315.108C679.192 315.108 678.755 315.259 678.447 315.559C678.147 315.853 677.941 316.252 677.831 316.758C677.729 317.264 677.677 317.884 677.677 318.617C677.677 319.365 677.729 319.996 677.831 320.509C677.941 321.015 678.147 321.419 678.447 321.719C678.755 322.02 679.192 322.17 679.756 322.17C680.321 322.17 680.754 322.02 681.054 321.719C681.362 321.419 681.568 321.015 681.67 320.509C681.78 319.996 681.835 319.365 681.835 318.617ZM683.8 318.617C683.8 317.349 683.983 316.373 684.35 315.691C684.716 315.002 685.391 314.657 686.374 314.657C687.349 314.657 688.02 315.002 688.387 315.691C688.753 316.373 688.937 317.349 688.937 318.617C688.937 319.901 688.753 320.891 688.387 321.587C688.02 322.277 687.349 322.621 686.374 322.621C685.391 322.621 684.716 322.277 684.35 321.587C683.983 320.891 683.8 319.901 683.8 318.617ZM688.453 318.617C688.453 317.884 688.398 317.264 688.288 316.758C688.185 316.252 687.98 315.853 687.672 315.559C687.371 315.259 686.938 315.108 686.374 315.108C685.809 315.108 685.373 315.259 685.065 315.559C684.764 315.853 684.559 316.252 684.449 316.758C684.346 317.264 684.295 317.884 684.295 318.617C684.295 319.365 684.346 319.996 684.449 320.509C684.559 321.015 684.764 321.419 685.065 321.719C685.373 322.02 685.809 322.17 686.374 322.17C686.938 322.17 687.371 322.02 687.672 321.719C687.98 321.419 688.185 321.015 688.288 320.509C688.398 319.996 688.453 319.365 688.453 318.617ZM690.505 322.599C690.38 322.599 690.277 322.559 690.197 322.478C690.116 322.398 690.076 322.295 690.076 322.17C690.076 322.046 690.116 321.943 690.197 321.862C690.277 321.782 690.38 321.741 690.505 321.741C690.622 321.741 690.721 321.782 690.802 321.862C690.882 321.943 690.923 322.046 690.923 322.17C690.923 322.295 690.882 322.398 690.802 322.478C690.721 322.559 690.622 322.599 690.505 322.599ZM692.06 318.617C692.06 317.349 692.244 316.373 692.61 315.691C692.977 315.002 693.652 314.657 694.634 314.657C695.61 314.657 696.281 315.002 696.647 315.691C697.014 316.373 697.197 317.349 697.197 318.617C697.197 319.901 697.014 320.891 696.647 321.587C696.281 322.277 695.61 322.621 694.634 322.621C693.652 322.621 692.977 322.277 692.61 321.587C692.244 320.891 692.06 319.901 692.06 318.617ZM696.713 318.617C696.713 317.884 696.658 317.264 696.548 316.758C696.446 316.252 696.24 315.853 695.932 315.559C695.632 315.259 695.199 315.108 694.634 315.108C694.07 315.108 693.633 315.259 693.325 315.559C693.025 315.853 692.819 316.252 692.709 316.758C692.607 317.264 692.555 317.884 692.555 318.617C692.555 319.365 692.607 319.996 692.709 320.509C692.819 321.015 693.025 321.419 693.325 321.719C693.633 322.02 694.07 322.17 694.634 322.17C695.199 322.17 695.632 322.02 695.932 321.719C696.24 321.419 696.446 321.015 696.548 320.509C696.658 319.996 696.713 319.365 696.713 318.617ZM698.677 318.617C698.677 317.349 698.861 316.373 699.227 315.691C699.594 315.002 700.269 314.657 701.251 314.657C702.227 314.657 702.898 315.002 703.264 315.691C703.631 316.373 703.814 317.349 703.814 318.617C703.814 319.901 703.631 320.891 703.264 321.587C702.898 322.277 702.227 322.621 701.251 322.621C700.269 322.621 699.594 322.277 699.227 321.587C698.861 320.891 698.677 319.901 698.677 318.617ZM703.33 318.617C703.33 317.884 703.275 317.264 703.165 316.758C703.063 316.252 702.857 315.853 702.549 315.559C702.249 315.259 701.816 315.108 701.251 315.108C700.687 315.108 700.25 315.259 699.942 315.559C699.642 315.853 699.436 316.252 699.326 316.758C699.224 317.264 699.172 317.884 699.172 318.617C699.172 319.365 699.224 319.996 699.326 320.509C699.436 321.015 699.642 321.419 699.942 321.719C700.25 322.02 700.687 322.17 701.251 322.17C701.816 322.17 702.249 322.02 702.549 321.719C702.857 321.419 703.063 321.015 703.165 320.509C703.275 319.996 703.33 319.365 703.33 318.617Z" fill="white" fill-opacity="0.6"/>
<path d="M667.578 255.329V254.878H669.206V262.699H668.711V255.329H667.578ZM670.469 260.719V260.334L674.66 254.911H675.221V260.29H676.475V260.719H675.221V262.699H674.737V260.719H670.469ZM674.748 255.505L671.052 260.29H674.748V255.505ZM677.429 258.75C677.429 257.482 677.613 256.506 677.979 255.824C678.346 255.135 679.021 254.79 680.003 254.79C680.979 254.79 681.65 255.135 682.016 255.824C682.383 256.506 682.566 257.482 682.566 258.75C682.566 260.034 682.383 261.024 682.016 261.72C681.65 262.41 680.979 262.754 680.003 262.754C679.021 262.754 678.346 262.41 677.979 261.72C677.613 261.024 677.429 260.034 677.429 258.75ZM682.082 258.75C682.082 258.017 682.027 257.397 681.917 256.891C681.815 256.385 681.609 255.986 681.301 255.692C681.001 255.392 680.568 255.241 680.003 255.241C679.439 255.241 679.002 255.392 678.694 255.692C678.394 255.986 678.188 256.385 678.078 256.891C677.976 257.397 677.924 258.017 677.924 258.75C677.924 259.498 677.976 260.129 678.078 260.642C678.188 261.148 678.394 261.552 678.694 261.852C679.002 262.153 679.439 262.303 680.003 262.303C680.568 262.303 681.001 262.153 681.301 261.852C681.609 261.552 681.815 261.148 681.917 260.642C682.027 260.129 682.082 259.498 682.082 258.75ZM684.047 258.75C684.047 257.482 684.23 256.506 684.597 255.824C684.963 255.135 685.638 254.79 686.621 254.79C687.596 254.79 688.267 255.135 688.634 255.824C689 256.506 689.184 257.482 689.184 258.75C689.184 260.034 689 261.024 688.634 261.72C688.267 262.41 687.596 262.754 686.621 262.754C685.638 262.754 684.963 262.41 684.597 261.72C684.23 261.024 684.047 260.034 684.047 258.75ZM688.7 258.75C688.7 258.017 688.645 257.397 688.535 256.891C688.432 256.385 688.227 255.986 687.919 255.692C687.618 255.392 687.185 255.241 686.621 255.241C686.056 255.241 685.62 255.392 685.312 255.692C685.011 255.986 684.806 256.385 684.696 256.891C684.593 257.397 684.542 258.017 684.542 258.75C684.542 259.498 684.593 260.129 684.696 260.642C684.806 261.148 685.011 261.552 685.312 261.852C685.62 262.153 686.056 262.303 686.621 262.303C687.185 262.303 687.618 262.153 687.919 261.852C688.227 261.552 688.432 261.148 688.535 260.642C688.645 260.129 688.7 259.498 688.7 258.75ZM690.752 262.732C690.627 262.732 690.524 262.692 690.444 262.611C690.363 262.531 690.323 262.428 690.323 262.303C690.323 262.179 690.363 262.076 690.444 261.995C690.524 261.915 690.627 261.874 690.752 261.874C690.869 261.874 690.968 261.915 691.049 261.995C691.129 262.076 691.17 262.179 691.17 262.303C691.17 262.428 691.129 262.531 691.049 262.611C690.968 262.692 690.869 262.732 690.752 262.732ZM692.307 258.75C692.307 257.482 692.491 256.506 692.857 255.824C693.224 255.135 693.899 254.79 694.881 254.79C695.857 254.79 696.528 255.135 696.894 255.824C697.261 256.506 697.444 257.482 697.444 258.75C697.444 260.034 697.261 261.024 696.894 261.72C696.528 262.41 695.857 262.754 694.881 262.754C693.899 262.754 693.224 262.41 692.857 261.72C692.491 261.024 692.307 260.034 692.307 258.75ZM696.96 258.75C696.96 258.017 696.905 257.397 696.795 256.891C696.693 256.385 696.487 255.986 696.179 255.692C695.879 255.392 695.446 255.241 694.881 255.241C694.317 255.241 693.88 255.392 693.572 255.692C693.272 255.986 693.066 256.385 692.956 256.891C692.854 257.397 692.802 258.017 692.802 258.75C692.802 259.498 692.854 260.129 692.956 260.642C693.066 261.148 693.272 261.552 693.572 261.852C693.88 262.153 694.317 262.303 694.881 262.303C695.446 262.303 695.879 262.153 696.179 261.852C696.487 261.552 696.693 261.148 696.795 260.642C696.905 260.129 696.96 259.498 696.96 258.75ZM698.925 258.75C698.925 257.482 699.108 256.506 699.475 255.824C699.841 255.135 700.516 254.79 701.499 254.79C702.474 254.79 703.145 255.135 703.512 255.824C703.878 256.506 704.062 257.482 704.062 258.75C704.062 260.034 703.878 261.024 703.512 261.72C703.145 262.41 702.474 262.754 701.499 262.754C700.516 262.754 699.841 262.41 699.475 261.72C699.108 261.024 698.925 260.034 698.925 258.75ZM703.578 258.75C703.578 258.017 703.523 257.397 703.413 256.891C703.31 256.385 703.105 255.986 702.797 255.692C702.496 255.392 702.063 255.241 701.499 255.241C700.934 255.241 700.498 255.392 700.19 255.692C699.889 255.986 699.684 256.385 699.574 256.891C699.471 257.397 699.42 258.017 699.42 258.75C699.42 259.498 699.471 260.129 699.574 260.642C699.684 261.148 699.889 261.552 700.19 261.852C700.498 262.153 700.934 262.303 701.499 262.303C702.063 262.303 702.496 262.153 702.797 261.852C703.105 261.552 703.31 261.148 703.413 260.642C703.523 260.129 703.578 259.498 703.578 258.75Z" fill="white" fill-opacity="0.6"/>
<path d="M667.578 225.263V224.812H669.206V232.633H668.711V225.263H667.578ZM675.782 225.252H671.558V228.409C671.756 228.13 672.046 227.903 672.427 227.727C672.808 227.543 673.223 227.452 673.67 227.452C674.264 227.452 674.748 227.573 675.122 227.815C675.503 228.049 675.778 228.357 675.947 228.739C676.116 229.12 676.2 229.534 676.2 229.982C676.2 230.48 676.108 230.935 675.925 231.346C675.742 231.749 675.452 232.075 675.056 232.325C674.667 232.567 674.176 232.688 673.582 232.688C672.863 232.688 672.269 232.493 671.8 232.105C671.338 231.709 671.056 231.177 670.953 230.51H671.437C671.547 231.074 671.793 231.507 672.174 231.808C672.555 232.101 673.025 232.248 673.582 232.248C674.293 232.248 674.829 232.042 675.188 231.632C675.547 231.214 675.727 230.667 675.727 229.993C675.727 229.333 675.544 228.816 675.177 228.442C674.818 228.068 674.301 227.881 673.626 227.881C673.164 227.881 672.75 227.983 672.383 228.189C672.024 228.394 671.745 228.676 671.547 229.036H671.085V224.812H675.782V225.252ZM677.569 228.684C677.569 227.415 677.752 226.44 678.119 225.758C678.486 225.068 679.16 224.724 680.143 224.724C681.118 224.724 681.789 225.068 682.156 225.758C682.523 226.44 682.706 227.415 682.706 228.684C682.706 229.967 682.523 230.957 682.156 231.654C681.789 232.343 681.118 232.688 680.143 232.688C679.16 232.688 678.486 232.343 678.119 231.654C677.752 230.957 677.569 229.967 677.569 228.684ZM682.222 228.684C682.222 227.95 682.167 227.331 682.057 226.825C681.954 226.319 681.749 225.919 681.441 225.626C681.14 225.325 680.708 225.175 680.143 225.175C679.578 225.175 679.142 225.325 678.834 225.626C678.533 225.919 678.328 226.319 678.218 226.825C678.115 227.331 678.064 227.95 678.064 228.684C678.064 229.432 678.115 230.062 678.218 230.576C678.328 231.082 678.533 231.485 678.834 231.786C679.142 232.086 679.578 232.237 680.143 232.237C680.708 232.237 681.14 232.086 681.441 231.786C681.749 231.485 681.954 231.082 682.057 230.576C682.167 230.062 682.222 229.432 682.222 228.684ZM684.186 228.684C684.186 227.415 684.37 226.44 684.736 225.758C685.103 225.068 685.778 224.724 686.76 224.724C687.736 224.724 688.407 225.068 688.773 225.758C689.14 226.44 689.323 227.415 689.323 228.684C689.323 229.967 689.14 230.957 688.773 231.654C688.407 232.343 687.736 232.688 686.76 232.688C685.778 232.688 685.103 232.343 684.736 231.654C684.37 230.957 684.186 229.967 684.186 228.684ZM688.839 228.684C688.839 227.95 688.784 227.331 688.674 226.825C688.572 226.319 688.366 225.919 688.058 225.626C687.758 225.325 687.325 225.175 686.76 225.175C686.196 225.175 685.759 225.325 685.451 225.626C685.151 225.919 684.945 226.319 684.835 226.825C684.733 227.331 684.681 227.95 684.681 228.684C684.681 229.432 684.733 230.062 684.835 230.576C684.945 231.082 685.151 231.485 685.451 231.786C685.759 232.086 686.196 232.237 686.76 232.237C687.325 232.237 687.758 232.086 688.058 231.786C688.366 231.485 688.572 231.082 688.674 230.576C688.784 230.062 688.839 229.432 688.839 228.684ZM690.891 232.666C690.767 232.666 690.664 232.625 690.583 232.545C690.503 232.464 690.462 232.361 690.462 232.237C690.462 232.112 690.503 232.009 690.583 231.929C690.664 231.848 690.767 231.808 690.891 231.808C691.009 231.808 691.108 231.848 691.188 231.929C691.269 232.009 691.309 232.112 691.309 232.237C691.309 232.361 691.269 232.464 691.188 232.545C691.108 232.625 691.009 232.666 690.891 232.666ZM692.447 228.684C692.447 227.415 692.63 226.44 692.997 225.758C693.364 225.068 694.038 224.724 695.021 224.724C695.996 224.724 696.667 225.068 697.034 225.758C697.401 226.44 697.584 227.415 697.584 228.684C697.584 229.967 697.401 230.957 697.034 231.654C696.667 232.343 695.996 232.688 695.021 232.688C694.038 232.688 693.364 232.343 692.997 231.654C692.63 230.957 692.447 229.967 692.447 228.684ZM697.1 228.684C697.1 227.95 697.045 227.331 696.935 226.825C696.832 226.319 696.627 225.919 696.319 225.626C696.018 225.325 695.586 225.175 695.021 225.175C694.456 225.175 694.02 225.325 693.712 225.626C693.411 225.919 693.206 226.319 693.096 226.825C692.993 227.331 692.942 227.95 692.942 228.684C692.942 229.432 692.993 230.062 693.096 230.576C693.206 231.082 693.411 231.485 693.712 231.786C694.02 232.086 694.456 232.237 695.021 232.237C695.586 232.237 696.018 232.086 696.319 231.786C696.627 231.485 696.832 231.082 696.935 230.576C697.045 230.062 697.1 229.432 697.1 228.684ZM699.064 228.684C699.064 227.415 699.247 226.44 699.614 225.758C699.981 225.068 700.655 224.724 701.638 224.724C702.613 224.724 703.284 225.068 703.651 225.758C704.018 226.44 704.201 227.415 704.201 228.684C704.201 229.967 704.018 230.957 703.651 231.654C703.284 232.343 702.613 232.688 701.638 232.688C700.655 232.688 699.981 232.343 699.614 231.654C699.247 230.957 699.064 229.967 699.064 228.684ZM703.717 228.684C703.717 227.95 703.662 227.331 703.552 226.825C703.449 226.319 703.244 225.919 702.936 225.626C702.635 225.325 702.203 225.175 701.638 225.175C701.073 225.175 700.637 225.325 700.329 225.626C700.028 225.919 699.823 226.319 699.713 226.825C699.61 227.331 699.559 227.95 699.559 228.684C699.559 229.432 699.61 230.062 699.713 230.576C699.823 231.082 700.028 231.485 700.329 231.786C700.637 232.086 701.073 232.237 701.638 232.237C702.203 232.237 702.635 232.086 702.936 231.786C703.244 231.485 703.449 231.082 703.552 230.576C703.662 230.062 703.717 229.432 703.717 228.684Z" fill="white" fill-opacity="0.6"/>
<path d="M667.578 195.329V194.878H669.206V202.699H668.711V195.329H667.578ZM675.573 196.847C675.492 196.319 675.298 195.912 674.99 195.626C674.682 195.333 674.26 195.186 673.725 195.186C672.97 195.186 672.39 195.465 671.987 196.022C671.591 196.58 671.393 197.482 671.393 198.728L671.404 199.157C671.521 198.651 671.804 198.252 672.251 197.958C672.698 197.658 673.219 197.507 673.813 197.507C674.605 197.507 675.225 197.746 675.672 198.222C676.119 198.699 676.343 199.352 676.343 200.18C676.343 200.65 676.255 201.079 676.079 201.467C675.903 201.856 675.624 202.168 675.243 202.402C674.862 202.637 674.385 202.754 673.813 202.754C672.713 202.754 671.961 202.41 671.558 201.72C671.155 201.024 670.953 200.067 670.953 198.849C670.953 197.537 671.169 196.528 671.602 195.824C672.042 195.12 672.75 194.768 673.725 194.768C674.407 194.768 674.942 194.959 675.331 195.34C675.727 195.714 675.965 196.217 676.046 196.847H675.573ZM673.736 197.936C673.362 197.936 673.003 198.013 672.658 198.167C672.313 198.321 672.031 198.556 671.811 198.871C671.598 199.179 671.492 199.557 671.492 200.004C671.492 200.415 671.573 200.8 671.734 201.159C671.903 201.511 672.159 201.797 672.504 202.017C672.849 202.23 673.278 202.336 673.791 202.336C674.422 202.336 674.924 202.146 675.298 201.764C675.672 201.383 675.859 200.859 675.859 200.191C675.859 199.473 675.672 198.919 675.298 198.53C674.924 198.134 674.403 197.936 673.736 197.936ZM677.741 198.75C677.741 197.482 677.924 196.506 678.291 195.824C678.658 195.135 679.332 194.79 680.315 194.79C681.29 194.79 681.961 195.135 682.328 195.824C682.695 196.506 682.878 197.482 682.878 198.75C682.878 200.034 682.695 201.024 682.328 201.72C681.961 202.41 681.29 202.754 680.315 202.754C679.332 202.754 678.658 202.41 678.291 201.72C677.924 201.024 677.741 200.034 677.741 198.75ZM682.394 198.75C682.394 198.017 682.339 197.397 682.229 196.891C682.126 196.385 681.921 195.986 681.613 195.692C681.312 195.392 680.88 195.241 680.315 195.241C679.75 195.241 679.314 195.392 679.006 195.692C678.705 195.986 678.5 196.385 678.39 196.891C678.287 197.397 678.236 198.017 678.236 198.75C678.236 199.498 678.287 200.129 678.39 200.642C678.5 201.148 678.705 201.552 679.006 201.852C679.314 202.153 679.75 202.303 680.315 202.303C680.88 202.303 681.312 202.153 681.613 201.852C681.921 201.552 682.126 201.148 682.229 200.642C682.339 200.129 682.394 199.498 682.394 198.75ZM684.358 198.75C684.358 197.482 684.541 196.506 684.908 195.824C685.275 195.135 685.949 194.79 686.932 194.79C687.907 194.79 688.578 195.135 688.945 195.824C689.312 196.506 689.495 197.482 689.495 198.75C689.495 200.034 689.312 201.024 688.945 201.72C688.578 202.41 687.907 202.754 686.932 202.754C685.949 202.754 685.275 202.41 684.908 201.72C684.541 201.024 684.358 200.034 684.358 198.75ZM689.011 198.75C689.011 198.017 688.956 197.397 688.846 196.891C688.743 196.385 688.538 195.986 688.23 195.692C687.929 195.392 687.497 195.241 686.932 195.241C686.367 195.241 685.931 195.392 685.623 195.692C685.322 195.986 685.117 196.385 685.007 196.891C684.904 197.397 684.853 198.017 684.853 198.75C684.853 199.498 684.904 200.129 685.007 200.642C685.117 201.148 685.322 201.552 685.623 201.852C685.931 202.153 686.367 202.303 686.932 202.303C687.497 202.303 687.929 202.153 688.23 201.852C688.538 201.552 688.743 201.148 688.846 200.642C688.956 200.129 689.011 199.498 689.011 198.75ZM691.063 202.732C690.939 202.732 690.836 202.692 690.755 202.611C690.675 202.531 690.634 202.428 690.634 202.303C690.634 202.179 690.675 202.076 690.755 201.995C690.836 201.915 690.939 201.874 691.063 201.874C691.181 201.874 691.28 201.915 691.36 201.995C691.441 202.076 691.481 202.179 691.481 202.303C691.481 202.428 691.441 202.531 691.36 202.611C691.28 202.692 691.181 202.732 691.063 202.732ZM692.619 198.75C692.619 197.482 692.802 196.506 693.169 195.824C693.536 195.135 694.21 194.79 695.193 194.79C696.168 194.79 696.839 195.135 697.206 195.824C697.573 196.506 697.756 197.482 697.756 198.75C697.756 200.034 697.573 201.024 697.206 201.72C696.839 202.41 696.168 202.754 695.193 202.754C694.21 202.754 693.536 202.41 693.169 201.72C692.802 201.024 692.619 200.034 692.619 198.75ZM697.272 198.75C697.272 198.017 697.217 197.397 697.107 196.891C697.004 196.385 696.799 195.986 696.491 195.692C696.19 195.392 695.758 195.241 695.193 195.241C694.628 195.241 694.192 195.392 693.884 195.692C693.583 195.986 693.378 196.385 693.268 196.891C693.165 197.397 693.114 198.017 693.114 198.75C693.114 199.498 693.165 200.129 693.268 200.642C693.378 201.148 693.583 201.552 693.884 201.852C694.192 202.153 694.628 202.303 695.193 202.303C695.758 202.303 696.19 202.153 696.491 201.852C696.799 201.552 697.004 201.148 697.107 200.642C697.217 200.129 697.272 199.498 697.272 198.75ZM699.236 198.75C699.236 197.482 699.419 196.506 699.786 195.824C700.153 195.135 700.827 194.79 701.81 194.79C702.785 194.79 703.456 195.135 703.823 195.824C704.19 196.506 704.373 197.482 704.373 198.75C704.373 200.034 704.19 201.024 703.823 201.72C703.456 202.41 702.785 202.754 701.81 202.754C700.827 202.754 700.153 202.41 699.786 201.72C699.419 201.024 699.236 200.034 699.236 198.75ZM703.889 198.75C703.889 198.017 703.834 197.397 703.724 196.891C703.621 196.385 703.416 195.986 703.108 195.692C702.807 195.392 702.375 195.241 701.81 195.241C701.245 195.241 700.809 195.392 700.501 195.692C700.2 195.986 699.995 196.385 699.885 196.891C699.782 197.397 699.731 198.017 699.731 198.75C699.731 199.498 699.782 200.129 699.885 200.642C699.995 201.148 700.2 201.552 700.501 201.852C700.809 202.153 701.245 202.303 701.81 202.303C702.375 202.303 702.807 202.153 703.108 201.852C703.416 201.552 703.621 201.148 703.724 200.642C703.834 200.129 703.889 199.498 703.889 198.75Z" fill="white" fill-opacity="0.6"/>
<path d="M667.502 165.263V164.812H669.13V172.633H668.635V165.263H667.502ZM675.354 165.219L672.274 172.633H671.768L674.892 165.252H670.294V164.823H675.354V165.219ZM676.515 168.684C676.515 167.415 676.699 166.44 677.065 165.758C677.432 165.068 678.107 164.724 679.089 164.724C680.065 164.724 680.736 165.068 681.102 165.758C681.469 166.44 681.652 167.415 681.652 168.684C681.652 169.967 681.469 170.957 681.102 171.654C680.736 172.343 680.065 172.688 679.089 172.688C678.107 172.688 677.432 172.343 677.065 171.654C676.699 170.957 676.515 169.967 676.515 168.684ZM681.168 168.684C681.168 167.95 681.113 167.331 681.003 166.825C680.901 166.319 680.695 165.919 680.387 165.626C680.087 165.325 679.654 165.175 679.089 165.175C678.525 165.175 678.088 165.325 677.78 165.626C677.48 165.919 677.274 166.319 677.164 166.825C677.062 167.331 677.01 167.95 677.01 168.684C677.01 169.432 677.062 170.062 677.164 170.576C677.274 171.082 677.48 171.485 677.78 171.786C678.088 172.086 678.525 172.237 679.089 172.237C679.654 172.237 680.087 172.086 680.387 171.786C680.695 171.485 680.901 171.082 681.003 170.576C681.113 170.062 681.168 169.432 681.168 168.684ZM683.133 168.684C683.133 167.415 683.316 166.44 683.683 165.758C684.049 165.068 684.724 164.724 685.707 164.724C686.682 164.724 687.353 165.068 687.72 165.758C688.086 166.44 688.27 167.415 688.27 168.684C688.27 169.967 688.086 170.957 687.72 171.654C687.353 172.343 686.682 172.688 685.707 172.688C684.724 172.688 684.049 172.343 683.683 171.654C683.316 170.957 683.133 169.967 683.133 168.684ZM687.786 168.684C687.786 167.95 687.731 167.331 687.621 166.825C687.518 166.319 687.313 165.919 687.005 165.626C686.704 165.325 686.271 165.175 685.707 165.175C685.142 165.175 684.706 165.325 684.398 165.626C684.097 165.919 683.892 166.319 683.782 166.825C683.679 167.331 683.628 167.95 683.628 168.684C683.628 169.432 683.679 170.062 683.782 170.576C683.892 171.082 684.097 171.485 684.398 171.786C684.706 172.086 685.142 172.237 685.707 172.237C686.271 172.237 686.704 172.086 687.005 171.786C687.313 171.485 687.518 171.082 687.621 170.576C687.731 170.062 687.786 169.432 687.786 168.684ZM689.838 172.666C689.713 172.666 689.61 172.625 689.53 172.545C689.449 172.464 689.409 172.361 689.409 172.237C689.409 172.112 689.449 172.009 689.53 171.929C689.61 171.848 689.713 171.808 689.838 171.808C689.955 171.808 690.054 171.848 690.135 171.929C690.215 172.009 690.256 172.112 690.256 172.237C690.256 172.361 690.215 172.464 690.135 172.545C690.054 172.625 689.955 172.666 689.838 172.666ZM691.393 168.684C691.393 167.415 691.577 166.44 691.943 165.758C692.31 165.068 692.985 164.724 693.967 164.724C694.943 164.724 695.614 165.068 695.98 165.758C696.347 166.44 696.53 167.415 696.53 168.684C696.53 169.967 696.347 170.957 695.98 171.654C695.614 172.343 694.943 172.688 693.967 172.688C692.985 172.688 692.31 172.343 691.943 171.654C691.577 170.957 691.393 169.967 691.393 168.684ZM696.046 168.684C696.046 167.95 695.991 167.331 695.881 166.825C695.779 166.319 695.573 165.919 695.265 165.626C694.965 165.325 694.532 165.175 693.967 165.175C693.403 165.175 692.966 165.325 692.658 165.626C692.358 165.919 692.152 166.319 692.042 166.825C691.94 167.331 691.888 167.95 691.888 168.684C691.888 169.432 691.94 170.062 692.042 170.576C692.152 171.082 692.358 171.485 692.658 171.786C692.966 172.086 693.403 172.237 693.967 172.237C694.532 172.237 694.965 172.086 695.265 171.786C695.573 171.485 695.779 171.082 695.881 170.576C695.991 170.062 696.046 169.432 696.046 168.684ZM698.01 168.684C698.01 167.415 698.194 166.44 698.56 165.758C698.927 165.068 699.602 164.724 700.584 164.724C701.56 164.724 702.231 165.068 702.597 165.758C702.964 166.44 703.147 167.415 703.147 168.684C703.147 169.967 702.964 170.957 702.597 171.654C702.231 172.343 701.56 172.688 700.584 172.688C699.602 172.688 698.927 172.343 698.56 171.654C698.194 170.957 698.01 169.967 698.01 168.684ZM702.663 168.684C702.663 167.95 702.608 167.331 702.498 166.825C702.396 166.319 702.19 165.919 701.882 165.626C701.582 165.325 701.149 165.175 700.584 165.175C700.02 165.175 699.583 165.325 699.275 165.626C698.975 165.919 698.769 166.319 698.659 166.825C698.557 167.331 698.505 167.95 698.505 168.684C698.505 169.432 698.557 170.062 698.659 170.576C698.769 171.082 698.975 171.485 699.275 171.786C699.583 172.086 700.02 172.237 700.584 172.237C701.149 172.237 701.582 172.086 701.882 171.786C702.19 171.485 702.396 171.082 702.498 170.576C702.608 170.062 702.663 169.432 702.663 168.684Z" fill="white" fill-opacity="0.6"/>
<path d="M667.578 135.329V134.878H669.206V142.699H668.711V135.329H667.578ZM672.548 138.662C672.035 138.53 671.65 138.303 671.393 137.98C671.136 137.658 671.008 137.269 671.008 136.814C671.008 136.213 671.232 135.725 671.679 135.351C672.134 134.977 672.761 134.79 673.56 134.79C674.359 134.79 674.983 134.977 675.43 135.351C675.885 135.725 676.112 136.213 676.112 136.814C676.112 137.262 675.984 137.65 675.727 137.98C675.47 138.303 675.085 138.53 674.572 138.662C675.122 138.78 675.551 139.014 675.859 139.366C676.174 139.718 676.332 140.158 676.332 140.686C676.332 141.383 676.083 141.937 675.584 142.347C675.093 142.751 674.418 142.952 673.56 142.952C672.702 142.952 672.027 142.751 671.536 142.347C671.045 141.937 670.799 141.383 670.799 140.686C670.799 140.158 670.953 139.718 671.261 139.366C671.576 139.007 672.005 138.772 672.548 138.662ZM675.628 136.847C675.628 136.327 675.441 135.923 675.067 135.637C674.693 135.351 674.191 135.208 673.56 135.208C672.929 135.208 672.427 135.351 672.053 135.637C671.679 135.916 671.492 136.323 671.492 136.858C671.492 137.364 671.679 137.764 672.053 138.057C672.427 138.343 672.929 138.486 673.56 138.486C674.191 138.486 674.693 138.34 675.067 138.046C675.441 137.753 675.628 137.353 675.628 136.847ZM673.56 138.882C672.893 138.882 672.343 139.029 671.91 139.322C671.485 139.616 671.272 140.067 671.272 140.675C671.272 141.255 671.477 141.709 671.888 142.039C672.306 142.369 672.863 142.534 673.56 142.534C674.257 142.534 674.81 142.369 675.221 142.039C675.632 141.709 675.837 141.255 675.837 140.675C675.837 140.074 675.624 139.627 675.199 139.333C674.774 139.033 674.227 138.882 673.56 138.882ZM677.687 138.75C677.687 137.482 677.871 136.506 678.237 135.824C678.604 135.135 679.279 134.79 680.261 134.79C681.237 134.79 681.908 135.135 682.274 135.824C682.641 136.506 682.824 137.482 682.824 138.75C682.824 140.034 682.641 141.024 682.274 141.72C681.908 142.41 681.237 142.754 680.261 142.754C679.279 142.754 678.604 142.41 678.237 141.72C677.871 141.024 677.687 140.034 677.687 138.75ZM682.34 138.75C682.34 138.017 682.285 137.397 682.175 136.891C682.073 136.385 681.867 135.986 681.559 135.692C681.259 135.392 680.826 135.241 680.261 135.241C679.697 135.241 679.26 135.392 678.952 135.692C678.652 135.986 678.446 136.385 678.336 136.891C678.234 137.397 678.182 138.017 678.182 138.75C678.182 139.498 678.234 140.129 678.336 140.642C678.446 141.148 678.652 141.552 678.952 141.852C679.26 142.153 679.697 142.303 680.261 142.303C680.826 142.303 681.259 142.153 681.559 141.852C681.867 141.552 682.073 141.148 682.175 140.642C682.285 140.129 682.34 139.498 682.34 138.75ZM684.304 138.75C684.304 137.482 684.488 136.506 684.854 135.824C685.221 135.135 685.896 134.79 686.878 134.79C687.854 134.79 688.525 135.135 688.891 135.824C689.258 136.506 689.441 137.482 689.441 138.75C689.441 140.034 689.258 141.024 688.891 141.72C688.525 142.41 687.854 142.754 686.878 142.754C685.896 142.754 685.221 142.41 684.854 141.72C684.488 141.024 684.304 140.034 684.304 138.75ZM688.957 138.75C688.957 138.017 688.902 137.397 688.792 136.891C688.69 136.385 688.484 135.986 688.176 135.692C687.876 135.392 687.443 135.241 686.878 135.241C686.314 135.241 685.877 135.392 685.569 135.692C685.269 135.986 685.063 136.385 684.953 136.891C684.851 137.397 684.799 138.017 684.799 138.75C684.799 139.498 684.851 140.129 684.953 140.642C685.063 141.148 685.269 141.552 685.569 141.852C685.877 142.153 686.314 142.303 686.878 142.303C687.443 142.303 687.876 142.153 688.176 141.852C688.484 141.552 688.69 141.148 688.792 140.642C688.902 140.129 688.957 139.498 688.957 138.75ZM691.01 142.732C690.885 142.732 690.782 142.692 690.702 142.611C690.621 142.531 690.581 142.428 690.581 142.303C690.581 142.179 690.621 142.076 690.702 141.995C690.782 141.915 690.885 141.874 691.01 141.874C691.127 141.874 691.226 141.915 691.307 141.995C691.387 142.076 691.428 142.179 691.428 142.303C691.428 142.428 691.387 142.531 691.307 142.611C691.226 142.692 691.127 142.732 691.01 142.732ZM692.565 138.75C692.565 137.482 692.748 136.506 693.115 135.824C693.482 135.135 694.156 134.79 695.139 134.79C696.114 134.79 696.785 135.135 697.152 135.824C697.519 136.506 697.702 137.482 697.702 138.75C697.702 140.034 697.519 141.024 697.152 141.72C696.785 142.41 696.114 142.754 695.139 142.754C694.156 142.754 693.482 142.41 693.115 141.72C692.748 141.024 692.565 140.034 692.565 138.75ZM697.218 138.75C697.218 138.017 697.163 137.397 697.053 136.891C696.95 136.385 696.745 135.986 696.437 135.692C696.136 135.392 695.704 135.241 695.139 135.241C694.574 135.241 694.138 135.392 693.83 135.692C693.529 135.986 693.324 136.385 693.214 136.891C693.111 137.397 693.06 138.017 693.06 138.75C693.06 139.498 693.111 140.129 693.214 140.642C693.324 141.148 693.529 141.552 693.83 141.852C694.138 142.153 694.574 142.303 695.139 142.303C695.704 142.303 696.136 142.153 696.437 141.852C696.745 141.552 696.95 141.148 697.053 140.642C697.163 140.129 697.218 139.498 697.218 138.75ZM699.182 138.75C699.182 137.482 699.366 136.506 699.732 135.824C700.099 135.135 700.774 134.79 701.756 134.79C702.732 134.79 703.403 135.135 703.769 135.824C704.136 136.506 704.319 137.482 704.319 138.75C704.319 140.034 704.136 141.024 703.769 141.72C703.403 142.41 702.732 142.754 701.756 142.754C700.774 142.754 700.099 142.41 699.732 141.72C699.366 141.024 699.182 140.034 699.182 138.75ZM703.835 138.75C703.835 138.017 703.78 137.397 703.67 136.891C703.568 136.385 703.362 135.986 703.054 135.692C702.754 135.392 702.321 135.241 701.756 135.241C701.192 135.241 700.755 135.392 700.447 135.692C700.147 135.986 699.941 136.385 699.831 136.891C699.729 137.397 699.677 138.017 699.677 138.75C699.677 139.498 699.729 140.129 699.831 140.642C699.941 141.148 700.147 141.552 700.447 141.852C700.755 142.153 701.192 142.303 701.756 142.303C702.321 142.303 702.754 142.153 703.054 141.852C703.362 141.552 703.568 141.148 703.67 140.642C703.78 140.129 703.835 139.498 703.835 138.75Z" fill="white" fill-opacity="0.6"/>
<path d="M667.578 105.263V104.812H669.206V112.633H668.711V105.263H667.578ZM671.646 110.587C671.719 111.122 671.914 111.536 672.229 111.83C672.552 112.123 672.984 112.27 673.527 112.27C674.268 112.27 674.829 111.995 675.21 111.445C675.599 110.895 675.793 110.004 675.793 108.772L675.782 108.343C675.672 108.827 675.397 109.212 674.957 109.498C674.524 109.784 674.018 109.927 673.439 109.927C672.647 109.927 672.024 109.692 671.569 109.223C671.114 108.753 670.887 108.104 670.887 107.276C670.887 106.542 671.096 105.934 671.514 105.45C671.939 104.958 672.577 104.713 673.428 104.713C674.499 104.713 675.232 105.054 675.628 105.736C676.031 106.418 676.233 107.367 676.233 108.585C676.233 109.927 676.024 110.95 675.606 111.654C675.188 112.35 674.488 112.699 673.505 112.699C672.816 112.699 672.273 112.508 671.877 112.127C671.481 111.738 671.246 111.225 671.173 110.587H671.646ZM673.494 109.509C673.868 109.509 674.224 109.432 674.561 109.278C674.898 109.116 675.17 108.882 675.375 108.574C675.588 108.266 675.694 107.892 675.694 107.452C675.694 107.034 675.613 106.649 675.452 106.297C675.291 105.945 675.038 105.662 674.693 105.45C674.356 105.237 673.934 105.131 673.428 105.131C672.805 105.131 672.302 105.325 671.921 105.714C671.547 106.095 671.36 106.616 671.36 107.276C671.36 107.987 671.547 108.537 671.921 108.926C672.295 109.314 672.819 109.509 673.494 109.509ZM677.73 108.684C677.73 107.415 677.913 106.44 678.28 105.758C678.647 105.068 679.321 104.724 680.304 104.724C681.279 104.724 681.95 105.068 682.317 105.758C682.684 106.44 682.867 107.415 682.867 108.684C682.867 109.967 682.684 110.957 682.317 111.654C681.95 112.343 681.279 112.688 680.304 112.688C679.321 112.688 678.647 112.343 678.28 111.654C677.913 110.957 677.73 109.967 677.73 108.684ZM682.383 108.684C682.383 107.95 682.328 107.331 682.218 106.825C682.115 106.319 681.91 105.919 681.602 105.626C681.301 105.325 680.869 105.175 680.304 105.175C679.739 105.175 679.303 105.325 678.995 105.626C678.694 105.919 678.489 106.319 678.379 106.825C678.276 107.331 678.225 107.95 678.225 108.684C678.225 109.432 678.276 110.062 678.379 110.576C678.489 111.082 678.694 111.485 678.995 111.786C679.303 112.086 679.739 112.237 680.304 112.237C680.869 112.237 681.301 112.086 681.602 111.786C681.91 111.485 682.115 111.082 682.218 110.576C682.328 110.062 682.383 109.432 682.383 108.684ZM684.347 108.684C684.347 107.415 684.531 106.44 684.897 105.758C685.264 105.068 685.939 104.724 686.921 104.724C687.897 104.724 688.568 105.068 688.934 105.758C689.301 106.44 689.484 107.415 689.484 108.684C689.484 109.967 689.301 110.957 688.934 111.654C688.568 112.343 687.897 112.688 686.921 112.688C685.939 112.688 685.264 112.343 684.897 111.654C684.531 110.957 684.347 109.967 684.347 108.684ZM689 108.684C689 107.95 688.945 107.331 688.835 106.825C688.733 106.319 688.527 105.919 688.219 105.626C687.919 105.325 687.486 105.175 686.921 105.175C686.357 105.175 685.92 105.325 685.612 105.626C685.312 105.919 685.106 106.319 684.996 106.825C684.894 107.331 684.842 107.95 684.842 108.684C684.842 109.432 684.894 110.062 684.996 110.576C685.106 111.082 685.312 111.485 685.612 111.786C685.92 112.086 686.357 112.237 686.921 112.237C687.486 112.237 687.919 112.086 688.219 111.786C688.527 111.485 688.733 111.082 688.835 110.576C688.945 110.062 689 109.432 689 108.684ZM691.053 112.666C690.928 112.666 690.825 112.625 690.745 112.545C690.664 112.464 690.624 112.361 690.624 112.237C690.624 112.112 690.664 112.009 690.745 111.929C690.825 111.848 690.928 111.808 691.053 111.808C691.17 111.808 691.269 111.848 691.35 111.929C691.43 112.009 691.471 112.112 691.471 112.237C691.471 112.361 691.43 112.464 691.35 112.545C691.269 112.625 691.17 112.666 691.053 112.666ZM692.608 108.684C692.608 107.415 692.791 106.44 693.158 105.758C693.525 105.068 694.199 104.724 695.182 104.724C696.157 104.724 696.828 105.068 697.195 105.758C697.562 106.44 697.745 107.415 697.745 108.684C697.745 109.967 697.562 110.957 697.195 111.654C696.828 112.343 696.157 112.688 695.182 112.688C694.199 112.688 693.525 112.343 693.158 111.654C692.791 110.957 692.608 109.967 692.608 108.684ZM697.261 108.684C697.261 107.95 697.206 107.331 697.096 106.825C696.993 106.319 696.788 105.919 696.48 105.626C696.179 105.325 695.747 105.175 695.182 105.175C694.617 105.175 694.181 105.325 693.873 105.626C693.572 105.919 693.367 106.319 693.257 106.825C693.154 107.331 693.103 107.95 693.103 108.684C693.103 109.432 693.154 110.062 693.257 110.576C693.367 111.082 693.572 111.485 693.873 111.786C694.181 112.086 694.617 112.237 695.182 112.237C695.747 112.237 696.179 112.086 696.48 111.786C696.788 111.485 696.993 111.082 697.096 110.576C697.206 110.062 697.261 109.432 697.261 108.684ZM699.225 108.684C699.225 107.415 699.409 106.44 699.775 105.758C700.142 105.068 700.817 104.724 701.799 104.724C702.775 104.724 703.446 105.068 703.812 105.758C704.179 106.44 704.362 107.415 704.362 108.684C704.362 109.967 704.179 110.957 703.812 111.654C703.446 112.343 702.775 112.688 701.799 112.688C700.817 112.688 700.142 112.343 699.775 111.654C699.409 110.957 699.225 109.967 699.225 108.684ZM703.878 108.684C703.878 107.95 703.823 107.331 703.713 106.825C703.611 106.319 703.405 105.919 703.097 105.626C702.797 105.325 702.364 105.175 701.799 105.175C701.235 105.175 700.798 105.325 700.49 105.626C700.19 105.919 699.984 106.319 699.874 106.825C699.772 107.331 699.72 107.95 699.72 108.684C699.72 109.432 699.772 110.062 699.874 110.576C699.984 111.082 700.19 111.485 700.49 111.786C700.798 112.086 701.235 112.237 701.799 112.237C702.364 112.237 702.797 112.086 703.097 111.786C703.405 111.485 703.611 111.082 703.713 110.576C703.823 110.062 703.878 109.432 703.878 108.684Z" fill="white" fill-opacity="0.6"/>
<path d="M668.182 82.1468C669.561 81.1934 670.646 80.2731 671.438 79.3858C672.237 78.4984 672.637 77.6478 672.637 76.8338C672.637 76.2984 672.494 75.8621 672.208 75.5248C671.929 75.1874 671.471 75.0188 670.833 75.0188C670.195 75.0188 669.707 75.2131 669.37 75.6018C669.033 75.9904 668.842 76.5038 668.798 77.1418H668.314C668.365 76.3351 668.615 75.7081 669.062 75.2608C669.509 74.8134 670.1 74.5898 670.833 74.5898C671.5 74.5898 672.047 74.7768 672.472 75.1508C672.905 75.5248 673.121 76.0821 673.121 76.8228C673.121 77.7394 672.699 78.6634 671.856 79.5948C671.02 80.5261 670.063 81.3474 668.985 82.0588H673.374V82.4768H668.182V82.1468ZM674.642 78.5608C674.642 77.2921 674.826 76.3168 675.192 75.6348C675.559 74.9454 676.234 74.6008 677.216 74.6008C678.192 74.6008 678.863 74.9454 679.229 75.6348C679.596 76.3168 679.779 77.2921 679.779 78.5608C679.779 79.8441 679.596 80.8341 679.229 81.5308C678.863 82.2201 678.192 82.5648 677.216 82.5648C676.234 82.5648 675.559 82.2201 675.192 81.5308C674.826 80.8341 674.642 79.8441 674.642 78.5608ZM679.295 78.5608C679.295 77.8274 679.24 77.2078 679.13 76.7018C679.028 76.1958 678.822 75.7961 678.514 75.5028C678.214 75.2021 677.781 75.0518 677.216 75.0518C676.652 75.0518 676.215 75.2021 675.907 75.5028C675.607 75.7961 675.401 76.1958 675.291 76.7018C675.189 77.2078 675.137 77.8274 675.137 78.5608C675.137 79.3088 675.189 79.9394 675.291 80.4528C675.401 80.9588 675.607 81.3621 675.907 81.6628C676.215 81.9634 676.652 82.1138 677.216 82.1138C677.781 82.1138 678.214 81.9634 678.514 81.6628C678.822 81.3621 679.028 80.9588 679.13 80.4528C679.24 79.9394 679.295 79.3088 679.295 78.5608ZM681.259 78.5608C681.259 77.2921 681.443 76.3168 681.809 75.6348C682.176 74.9454 682.851 74.6008 683.833 74.6008C684.809 74.6008 685.48 74.9454 685.846 75.6348C686.213 76.3168 686.396 77.2921 686.396 78.5608C686.396 79.8441 686.213 80.8341 685.846 81.5308C685.48 82.2201 684.809 82.5648 683.833 82.5648C682.851 82.5648 682.176 82.2201 681.809 81.5308C681.443 80.8341 681.259 79.8441 681.259 78.5608ZM685.912 78.5608C685.912 77.8274 685.857 77.2078 685.747 76.7018C685.645 76.1958 685.439 75.7961 685.131 75.5028C684.831 75.2021 684.398 75.0518 683.833 75.0518C683.269 75.0518 682.832 75.2021 682.524 75.5028C682.224 75.7961 682.018 76.1958 681.908 76.7018C681.806 77.2078 681.754 77.8274 681.754 78.5608C681.754 79.3088 681.806 79.9394 681.908 80.4528C682.018 80.9588 682.224 81.3621 682.524 81.6628C682.832 81.9634 683.269 82.1138 683.833 82.1138C684.398 82.1138 684.831 81.9634 685.131 81.6628C685.439 81.3621 685.645 80.9588 685.747 80.4528C685.857 79.9394 685.912 79.3088 685.912 78.5608ZM687.877 78.5608C687.877 77.2921 688.06 76.3168 688.427 75.6348C688.793 74.9454 689.468 74.6008 690.451 74.6008C691.426 74.6008 692.097 74.9454 692.464 75.6348C692.83 76.3168 693.014 77.2921 693.014 78.5608C693.014 79.8441 692.83 80.8341 692.464 81.5308C692.097 82.2201 691.426 82.5648 690.451 82.5648C689.468 82.5648 688.793 82.2201 688.427 81.5308C688.06 80.8341 687.877 79.8441 687.877 78.5608ZM692.53 78.5608C692.53 77.8274 692.475 77.2078 692.365 76.7018C692.262 76.1958 692.057 75.7961 691.749 75.5028C691.448 75.2021 691.015 75.0518 690.451 75.0518C689.886 75.0518 689.45 75.2021 689.142 75.5028C688.841 75.7961 688.636 76.1958 688.526 76.7018C688.423 77.2078 688.372 77.8274 688.372 78.5608C688.372 79.3088 688.423 79.9394 688.526 80.4528C688.636 80.9588 688.841 81.3621 689.142 81.6628C689.45 81.9634 689.886 82.1138 690.451 82.1138C691.015 82.1138 691.448 81.9634 691.749 81.6628C692.057 81.3621 692.262 80.9588 692.365 80.4528C692.475 79.9394 692.53 79.3088 692.53 78.5608ZM694.582 82.5428C694.457 82.5428 694.355 82.5024 694.274 82.4218C694.193 82.3411 694.153 82.2384 694.153 82.1138C694.153 81.9891 694.193 81.8864 694.274 81.8058C694.355 81.7251 694.457 81.6848 694.582 81.6848C694.699 81.6848 694.798 81.7251 694.879 81.8058C694.96 81.8864 695 81.9891 695 82.1138C695 82.2384 694.96 82.3411 694.879 82.4218C694.798 82.5024 694.699 82.5428 694.582 82.5428ZM696.137 78.5608C696.137 77.2921 696.321 76.3168 696.687 75.6348C697.054 74.9454 697.729 74.6008 698.711 74.6008C699.687 74.6008 700.358 74.9454 700.724 75.6348C701.091 76.3168 701.274 77.2921 701.274 78.5608C701.274 79.8441 701.091 80.8341 700.724 81.5308C700.358 82.2201 699.687 82.5648 698.711 82.5648C697.729 82.5648 697.054 82.2201 696.687 81.5308C696.321 80.8341 696.137 79.8441 696.137 78.5608ZM700.79 78.5608C700.79 77.8274 700.735 77.2078 700.625 76.7018C700.523 76.1958 700.317 75.7961 700.009 75.5028C699.709 75.2021 699.276 75.0518 698.711 75.0518C698.147 75.0518 697.71 75.2021 697.402 75.5028C697.102 75.7961 696.896 76.1958 696.786 76.7018C696.684 77.2078 696.632 77.8274 696.632 78.5608C696.632 79.3088 696.684 79.9394 696.786 80.4528C696.896 80.9588 697.102 81.3621 697.402 81.6628C697.71 81.9634 698.147 82.1138 698.711 82.1138C699.276 82.1138 699.709 81.9634 700.009 81.6628C700.317 81.3621 700.523 80.9588 700.625 80.4528C700.735 79.9394 700.79 79.3088 700.79 78.5608ZM702.755 78.5608C702.755 77.2921 702.938 76.3168 703.305 75.6348C703.671 74.9454 704.346 74.6008 705.329 74.6008C706.304 74.6008 706.975 74.9454 707.342 75.6348C707.708 76.3168 707.892 77.2921 707.892 78.5608C707.892 79.8441 707.708 80.8341 707.342 81.5308C706.975 82.2201 706.304 82.5648 705.329 82.5648C704.346 82.5648 703.671 82.2201 703.305 81.5308C702.938 80.8341 702.755 79.8441 702.755 78.5608ZM707.408 78.5608C707.408 77.8274 707.353 77.2078 707.243 76.7018C707.14 76.1958 706.935 75.7961 706.627 75.5028C706.326 75.2021 705.893 75.0518 705.329 75.0518C704.764 75.0518 704.328 75.2021 704.02 75.5028C703.719 75.7961 703.514 76.1958 703.404 76.7018C703.301 77.2078 703.25 77.8274 703.25 78.5608C703.25 79.3088 703.301 79.9394 703.404 80.4528C703.514 80.9588 703.719 81.3621 704.02 81.6628C704.328 81.9634 704.764 82.1138 705.329 82.1138C705.893 82.1138 706.326 81.9634 706.627 81.6628C706.935 81.3621 707.14 80.9588 707.243 80.4528C707.353 79.9394 707.408 79.3088 707.408 78.5608Z" fill="white" fill-opacity="0.6"/>
<path d="M667.875 52.2132C669.254 51.2598 670.339 50.3395 671.131 49.4522C671.931 48.5648 672.33 47.7142 672.33 46.9002C672.33 46.3648 672.187 45.9285 671.901 45.5912C671.623 45.2538 671.164 45.0852 670.526 45.0852C669.888 45.0852 669.401 45.2795 669.063 45.6682C668.726 46.0568 668.535 46.5702 668.491 47.2082H668.007C668.059 46.4015 668.308 45.7745 668.755 45.3272C669.203 44.8798 669.793 44.6562 670.526 44.6562C671.194 44.6562 671.74 44.8432 672.165 45.2172C672.598 45.5912 672.814 46.1485 672.814 46.8892C672.814 47.8058 672.393 48.7298 671.549 49.6612C670.713 50.5925 669.756 51.4138 668.678 52.1252H673.067V52.5432H667.875V52.2132ZM673.852 45.2062V44.7552H675.48V52.5762H674.985V45.2062H673.852ZM677.182 48.6272C677.182 47.3585 677.366 46.3832 677.732 45.7012C678.099 45.0118 678.774 44.6672 679.756 44.6672C680.732 44.6672 681.403 45.0118 681.769 45.7012C682.136 46.3832 682.319 47.3585 682.319 48.6272C682.319 49.9105 682.136 50.9005 681.769 51.5972C681.403 52.2865 680.732 52.6312 679.756 52.6312C678.774 52.6312 678.099 52.2865 677.732 51.5972C677.366 50.9005 677.182 49.9105 677.182 48.6272ZM681.835 48.6272C681.835 47.8938 681.78 47.2742 681.67 46.7682C681.568 46.2622 681.362 45.8625 681.054 45.5692C680.754 45.2685 680.321 45.1182 679.756 45.1182C679.192 45.1182 678.755 45.2685 678.447 45.5692C678.147 45.8625 677.941 46.2622 677.831 46.7682C677.729 47.2742 677.677 47.8938 677.677 48.6272C677.677 49.3752 677.729 50.0058 677.831 50.5192C677.941 51.0252 678.147 51.4285 678.447 51.7292C678.755 52.0298 679.192 52.1802 679.756 52.1802C680.321 52.1802 680.754 52.0298 681.054 51.7292C681.362 51.4285 681.568 51.0252 681.67 50.5192C681.78 50.0058 681.835 49.3752 681.835 48.6272ZM683.8 48.6272C683.8 47.3585 683.983 46.3832 684.35 45.7012C684.716 45.0118 685.391 44.6672 686.374 44.6672C687.349 44.6672 688.02 45.0118 688.387 45.7012C688.753 46.3832 688.937 47.3585 688.937 48.6272C688.937 49.9105 688.753 50.9005 688.387 51.5972C688.02 52.2865 687.349 52.6312 686.374 52.6312C685.391 52.6312 684.716 52.2865 684.35 51.5972C683.983 50.9005 683.8 49.9105 683.8 48.6272ZM688.453 48.6272C688.453 47.8938 688.398 47.2742 688.288 46.7682C688.185 46.2622 687.98 45.8625 687.672 45.5692C687.371 45.2685 686.938 45.1182 686.374 45.1182C685.809 45.1182 685.373 45.2685 685.065 45.5692C684.764 45.8625 684.559 46.2622 684.449 46.7682C684.346 47.2742 684.295 47.8938 684.295 48.6272C684.295 49.3752 684.346 50.0058 684.449 50.5192C684.559 51.0252 684.764 51.4285 685.065 51.7292C685.373 52.0298 685.809 52.1802 686.374 52.1802C686.938 52.1802 687.371 52.0298 687.672 51.7292C687.98 51.4285 688.185 51.0252 688.288 50.5192C688.398 50.0058 688.453 49.3752 688.453 48.6272ZM690.505 52.6092C690.38 52.6092 690.277 52.5688 690.197 52.4882C690.116 52.4075 690.076 52.3048 690.076 52.1802C690.076 52.0555 690.116 51.9528 690.197 51.8722C690.277 51.7915 690.38 51.7512 690.505 51.7512C690.622 51.7512 690.721 51.7915 690.802 51.8722C690.882 51.9528 690.923 52.0555 690.923 52.1802C690.923 52.3048 690.882 52.4075 690.802 52.4882C690.721 52.5688 690.622 52.6092 690.505 52.6092ZM692.06 48.6272C692.06 47.3585 692.244 46.3832 692.61 45.7012C692.977 45.0118 693.652 44.6672 694.634 44.6672C695.61 44.6672 696.281 45.0118 696.647 45.7012C697.014 46.3832 697.197 47.3585 697.197 48.6272C697.197 49.9105 697.014 50.9005 696.647 51.5972C696.281 52.2865 695.61 52.6312 694.634 52.6312C693.652 52.6312 692.977 52.2865 692.61 51.5972C692.244 50.9005 692.06 49.9105 692.06 48.6272ZM696.713 48.6272C696.713 47.8938 696.658 47.2742 696.548 46.7682C696.446 46.2622 696.24 45.8625 695.932 45.5692C695.632 45.2685 695.199 45.1182 694.634 45.1182C694.07 45.1182 693.633 45.2685 693.325 45.5692C693.025 45.8625 692.819 46.2622 692.709 46.7682C692.607 47.2742 692.555 47.8938 692.555 48.6272C692.555 49.3752 692.607 50.0058 692.709 50.5192C692.819 51.0252 693.025 51.4285 693.325 51.7292C693.633 52.0298 694.07 52.1802 694.634 52.1802C695.199 52.1802 695.632 52.0298 695.932 51.7292C696.24 51.4285 696.446 51.0252 696.548 50.5192C696.658 50.0058 696.713 49.3752 696.713 48.6272ZM698.677 48.6272C698.677 47.3585 698.861 46.3832 699.227 45.7012C699.594 45.0118 700.269 44.6672 701.251 44.6672C702.227 44.6672 702.898 45.0118 703.264 45.7012C703.631 46.3832 703.814 47.3585 703.814 48.6272C703.814 49.9105 703.631 50.9005 703.264 51.5972C702.898 52.2865 702.227 52.6312 701.251 52.6312C700.269 52.6312 699.594 52.2865 699.227 51.5972C698.861 50.9005 698.677 49.9105 698.677 48.6272ZM703.33 48.6272C703.33 47.8938 703.275 47.2742 703.165 46.7682C703.063 46.2622 702.857 45.8625 702.549 45.5692C702.249 45.2685 701.816 45.1182 701.251 45.1182C700.687 45.1182 700.25 45.2685 699.942 45.5692C699.642 45.8625 699.436 46.2622 699.326 46.7682C699.224 47.2742 699.172 47.8938 699.172 48.6272C699.172 49.3752 699.224 50.0058 699.326 50.5192C699.436 51.0252 699.642 51.4285 699.942 51.7292C700.25 52.0298 700.687 52.1802 701.251 52.1802C701.816 52.1802 702.249 52.0298 702.549 51.7292C702.857 51.4285 703.063 51.0252 703.165 50.5192C703.275 50.0058 703.33 49.3752 703.33 48.6272Z" fill="white" fill-opacity="0.6"/>
<path opacity="0.0565847" d="M658.265 0.629568V378.37" stroke="white"/>
<path opacity="0.0565847" d="M576.085 9.61462V378.385" stroke="white"/>
<path opacity="0.0565847" d="M493.904 9.61462V378.385" stroke="white"/>
<path opacity="0.0565847" d="M411.724 9.61462V378.385" stroke="white"/>
<path opacity="0.0565847" d="M329.543 9.61462V378.385" stroke="white"/>
<path opacity="0.0565847" d="M247.363 9.61462V378.385" stroke="white"/>
<path opacity="0.0565847" d="M165.182 9.61462V378.385" stroke="white"/>
<path opacity="0.0565847" d="M83.0016 9.61462V378.385" stroke="white"/>
<path opacity="0.0565847" d="M0.821169 0.629568V378.37" stroke="white"/>
<path opacity="0.0565847" d="M1.77374 78.5H657.312" stroke="white"/>
<path opacity="0.0565847" d="M1.77374 48.5H657.312" stroke="white"/>
<path opacity="0.0565847" d="M1.77374 8.5H657.312" stroke="white"/>
<path opacity="0.0565847" d="M1.77374 108.5H657.312" stroke="white"/>
<path opacity="0.0565847" d="M1.77374 168.5H657.312" stroke="white"/>
<path opacity="0.0565847" d="M1.77374 228.5H657.312" stroke="white"/>
<path opacity="0.0565847" d="M1.77374 288.5H657.312" stroke="white"/>
<path opacity="0.0565847" d="M1.77374 348.5H657.312" stroke="white"/>
<path opacity="0.0565847" d="M1.77374 138.5H657.312" stroke="white"/>
<path opacity="0.0565847" d="M1.77374 198.5H657.312" stroke="white"/>
<path opacity="0.0565847" d="M1.77374 258.5H657.312" stroke="white"/>
<path opacity="0.0565847" d="M1.77374 318.5H657.312" stroke="white"/>
<g clip-path="url(#clip0_56_418)">
<rect opacity="0.131404" x="358.358" y="385" width="24.1205" height="16" rx="8" fill="white"/>
<path d="M365.578 389.96V389.047H367.646V397H366.634V389.96H365.578ZM370.818 392.864C370.407 392.703 370.092 392.468 369.872 392.16C369.652 391.852 369.542 391.478 369.542 391.038C369.542 390.642 369.641 390.286 369.839 389.971C370.037 389.648 370.33 389.395 370.719 389.212C371.115 389.021 371.591 388.926 372.149 388.926C372.706 388.926 373.179 389.021 373.568 389.212C373.964 389.395 374.261 389.648 374.459 389.971C374.664 390.286 374.767 390.642 374.767 391.038C374.767 391.463 374.653 391.837 374.426 392.16C374.198 392.475 373.887 392.71 373.491 392.864C373.945 393.003 374.305 393.249 374.569 393.601C374.84 393.946 374.976 394.364 374.976 394.855C374.976 395.332 374.858 395.75 374.624 396.109C374.389 396.461 374.055 396.736 373.623 396.934C373.197 397.125 372.706 397.22 372.149 397.22C371.591 397.22 371.1 397.125 370.675 396.934C370.257 396.736 369.93 396.461 369.696 396.109C369.461 395.75 369.344 395.332 369.344 394.855C369.344 394.364 369.476 393.942 369.74 393.59C370.004 393.238 370.363 392.996 370.818 392.864ZM373.799 391.159C373.799 390.712 373.652 390.367 373.359 390.125C373.065 389.883 372.662 389.762 372.149 389.762C371.643 389.762 371.243 389.883 370.95 390.125C370.656 390.367 370.51 390.715 370.51 391.17C370.51 391.581 370.66 391.911 370.961 392.16C371.269 392.409 371.665 392.534 372.149 392.534C372.64 392.534 373.036 392.409 373.337 392.16C373.645 391.903 373.799 391.57 373.799 391.159ZM372.149 393.304C371.606 393.304 371.162 393.432 370.818 393.689C370.473 393.938 370.301 394.316 370.301 394.822C370.301 395.291 370.466 395.669 370.796 395.955C371.133 396.241 371.584 396.384 372.149 396.384C372.713 396.384 373.161 396.241 373.491 395.955C373.821 395.669 373.986 395.291 373.986 394.822C373.986 394.331 373.817 393.957 373.48 393.7C373.142 393.436 372.699 393.304 372.149 393.304Z" fill="white"/>
</g>
<path d="M370.132 9L370.132 378" stroke="white" stroke-width="0.5" stroke-linecap="round" stroke-dasharray="3"/>
<ellipse cx="370.418" cy="301.08" rx="2.82266" ry="2.44331" fill="white"/>
<path d="M2.7436 396.637C4.12227 395.684 5.2076 394.763 5.9996 393.876C6.79894 392.989 7.1986 392.138 7.1986 391.324C7.1986 390.789 7.0556 390.352 6.7696 390.015C6.49094 389.678 6.0326 389.509 5.3946 389.509C4.7566 389.509 4.26894 389.703 3.9316 390.092C3.59427 390.481 3.4036 390.994 3.3596 391.632H2.8756C2.92694 390.825 3.17627 390.198 3.6236 389.751C4.07094 389.304 4.66127 389.08 5.3946 389.08C6.06194 389.08 6.60827 389.267 7.0336 389.641C7.46627 390.015 7.6826 390.572 7.6826 391.313C7.6826 392.23 7.26094 393.154 6.4176 394.085C5.5816 395.016 4.6246 395.838 3.5466 396.549H7.9356V396.967H2.7436V396.637ZM9.17104 391.225C9.23704 390.558 9.49371 390.033 9.94104 389.652C10.3957 389.271 10.9934 389.08 11.734 389.08C12.2107 389.08 12.6177 389.168 12.955 389.344C13.2924 389.513 13.549 389.744 13.725 390.037C13.901 390.33 13.989 390.664 13.989 391.038C13.989 391.507 13.846 391.914 13.56 392.259C13.274 392.596 12.8377 392.798 12.251 392.864V392.93C12.8157 393.018 13.2704 393.234 13.615 393.579C13.9597 393.924 14.132 394.386 14.132 394.965C14.132 395.581 13.9267 396.087 13.516 396.483C13.1127 396.872 12.5187 397.066 11.734 397.066C10.9934 397.066 10.381 396.868 9.89704 396.472C9.42037 396.076 9.13437 395.515 9.03904 394.789H9.52304C9.61104 395.332 9.84571 395.775 10.227 396.12C10.6084 396.457 11.1107 396.626 11.734 396.626C12.3647 396.626 12.8414 396.468 13.164 396.153C13.494 395.838 13.659 395.431 13.659 394.932C13.659 394.331 13.428 393.88 12.966 393.579C12.5114 393.278 11.8587 393.128 11.008 393.128H10.799V392.699H11.019C12.6764 392.692 13.505 392.149 13.505 391.071C13.505 390.602 13.3474 390.224 13.032 389.938C12.724 389.652 12.2877 389.509 11.723 389.509C11.173 389.509 10.7074 389.656 10.326 389.949C9.95204 390.235 9.72837 390.66 9.65504 391.225H9.17104Z" fill="white" fill-opacity="0.6"/>
<path d="M77.0234 396.637C78.4021 395.684 79.4874 394.763 80.2794 393.876C81.0787 392.989 81.4784 392.138 81.4784 391.324C81.4784 390.789 81.3354 390.352 81.0494 390.015C80.7707 389.678 80.3124 389.509 79.6744 389.509C79.0364 389.509 78.5487 389.703 78.2114 390.092C77.8741 390.481 77.6834 390.994 77.6394 391.632H77.1554C77.2067 390.825 77.4561 390.198 77.9034 389.751C78.3507 389.304 78.9411 389.08 79.6744 389.08C80.3417 389.08 80.8881 389.267 81.3134 389.641C81.7461 390.015 81.9624 390.572 81.9624 391.313C81.9624 392.23 81.5407 393.154 80.6974 394.085C79.8614 395.016 78.9044 395.838 77.8264 396.549H82.2154V396.967H77.0234V396.637ZM84.2208 394.954C84.2942 395.489 84.4885 395.904 84.8038 396.197C85.1265 396.49 85.5592 396.637 86.1018 396.637C86.8425 396.637 87.4035 396.362 87.7848 395.812C88.1735 395.262 88.3678 394.371 88.3678 393.139L88.3568 392.71C88.2468 393.194 87.9718 393.579 87.5318 393.865C87.0992 394.151 86.5932 394.294 86.0138 394.294C85.2218 394.294 84.5985 394.059 84.1438 393.59C83.6892 393.121 83.4618 392.472 83.4618 391.643C83.4618 390.91 83.6708 390.301 84.0888 389.817C84.5142 389.326 85.1522 389.08 86.0028 389.08C87.0735 389.08 87.8068 389.421 88.2028 390.103C88.6062 390.785 88.8078 391.735 88.8078 392.952C88.8078 394.294 88.5988 395.317 88.1808 396.021C87.7628 396.718 87.0625 397.066 86.0798 397.066C85.3905 397.066 84.8478 396.875 84.4518 396.494C84.0558 396.105 83.8212 395.592 83.7478 394.954H84.2208ZM86.0688 393.876C86.4428 393.876 86.7985 393.799 87.1358 393.645C87.4732 393.484 87.7445 393.249 87.9498 392.941C88.1625 392.633 88.2688 392.259 88.2688 391.819C88.2688 391.401 88.1882 391.016 88.0268 390.664C87.8655 390.312 87.6125 390.03 87.2678 389.817C86.9305 389.604 86.5088 389.498 86.0028 389.498C85.3795 389.498 84.8772 389.692 84.4958 390.081C84.1218 390.462 83.9348 390.983 83.9348 391.643C83.9348 392.354 84.1218 392.904 84.4958 393.293C84.8698 393.682 85.3942 393.876 86.0688 393.876Z" fill="white" fill-opacity="0.6"/>
<path d="M118.634 397H116.753L113.607 392.237V397H111.726V389.278H113.607L116.753 394.063V389.278H118.634V397ZM123.649 397.077C122.923 397.077 122.256 396.908 121.647 396.571C121.046 396.234 120.566 395.764 120.206 395.163C119.854 394.554 119.678 393.872 119.678 393.117C119.678 392.362 119.854 391.683 120.206 391.082C120.566 390.481 121.046 390.011 121.647 389.674C122.256 389.337 122.923 389.168 123.649 389.168C124.375 389.168 125.039 389.337 125.64 389.674C126.249 390.011 126.726 390.481 127.07 391.082C127.422 391.683 127.598 392.362 127.598 393.117C127.598 393.872 127.422 394.554 127.07 395.163C126.718 395.764 126.242 396.234 125.64 396.571C125.039 396.908 124.375 397.077 123.649 397.077ZM123.649 395.361C124.265 395.361 124.757 395.156 125.123 394.745C125.497 394.334 125.684 393.792 125.684 393.117C125.684 392.435 125.497 391.892 125.123 391.489C124.757 391.078 124.265 390.873 123.649 390.873C123.026 390.873 122.527 391.075 122.153 391.478C121.787 391.881 121.603 392.428 121.603 393.117C121.603 393.799 121.787 394.345 122.153 394.756C122.527 395.159 123.026 395.361 123.649 395.361ZM135.894 389.278L133.155 397H130.801L128.062 389.278H130.064L131.978 395.108L133.903 389.278H135.894Z" fill="white" fill-opacity="0.6"/>
<path d="M167.801 389.619H163.577V392.776C163.775 392.497 164.064 392.27 164.446 392.094C164.827 391.911 165.241 391.819 165.689 391.819C166.283 391.819 166.767 391.94 167.141 392.182C167.522 392.417 167.797 392.725 167.966 393.106C168.134 393.487 168.219 393.902 168.219 394.349C168.219 394.848 168.127 395.302 167.944 395.713C167.76 396.116 167.471 396.443 167.075 396.692C166.686 396.934 166.195 397.055 165.601 397.055C164.882 397.055 164.288 396.861 163.819 396.472C163.357 396.076 163.074 395.544 162.972 394.877H163.456C163.566 395.442 163.811 395.874 164.193 396.175C164.574 396.468 165.043 396.615 165.601 396.615C166.312 396.615 166.847 396.41 167.207 395.999C167.566 395.581 167.746 395.035 167.746 394.36C167.746 393.7 167.562 393.183 167.196 392.809C166.836 392.435 166.319 392.248 165.645 392.248C165.183 392.248 164.768 392.351 164.402 392.556C164.042 392.761 163.764 393.044 163.566 393.403H163.104V389.179H167.801V389.619Z" fill="white" fill-opacity="0.6"/>
<path d="M242.542 389.63V389.179H244.17V397H243.675V389.63H242.542ZM245.872 393.051C245.872 391.782 246.056 390.807 246.422 390.125C246.789 389.436 247.464 389.091 248.446 389.091C249.422 389.091 250.093 389.436 250.459 390.125C250.826 390.807 251.009 391.782 251.009 393.051C251.009 394.334 250.826 395.324 250.459 396.021C250.093 396.71 249.422 397.055 248.446 397.055C247.464 397.055 246.789 396.71 246.422 396.021C246.056 395.324 245.872 394.334 245.872 393.051ZM250.525 393.051C250.525 392.318 250.47 391.698 250.36 391.192C250.258 390.686 250.052 390.286 249.744 389.993C249.444 389.692 249.011 389.542 248.446 389.542C247.882 389.542 247.445 389.692 247.137 389.993C246.837 390.286 246.631 390.686 246.521 391.192C246.419 391.698 246.367 392.318 246.367 393.051C246.367 393.799 246.419 394.43 246.521 394.943C246.631 395.449 246.837 395.852 247.137 396.153C247.445 396.454 247.882 396.604 248.446 396.604C249.011 396.604 249.444 396.454 249.744 396.153C250.052 395.852 250.258 395.449 250.36 394.943C250.47 394.43 250.525 393.799 250.525 393.051Z" fill="white" fill-opacity="0.6"/>
<path d="M325.434 389.63V389.179H327.062V397H326.567V389.63H325.434ZM333.429 391.148C333.348 390.62 333.154 390.213 332.846 389.927C332.538 389.634 332.116 389.487 331.581 389.487C330.826 389.487 330.246 389.766 329.843 390.323C329.447 390.88 329.249 391.782 329.249 393.029L329.26 393.458C329.377 392.952 329.66 392.552 330.107 392.259C330.554 391.958 331.075 391.808 331.669 391.808C332.461 391.808 333.081 392.046 333.528 392.523C333.975 393 334.199 393.652 334.199 394.481C334.199 394.95 334.111 395.379 333.935 395.768C333.759 396.157 333.48 396.468 333.099 396.703C332.718 396.938 332.241 397.055 331.669 397.055C330.569 397.055 329.817 396.71 329.414 396.021C329.011 395.324 328.809 394.367 328.809 393.15C328.809 391.837 329.025 390.829 329.458 390.125C329.898 389.421 330.606 389.069 331.581 389.069C332.263 389.069 332.798 389.26 333.187 389.641C333.583 390.015 333.821 390.517 333.902 391.148H333.429ZM331.592 392.237C331.218 392.237 330.859 392.314 330.514 392.468C330.169 392.622 329.887 392.857 329.667 393.172C329.454 393.48 329.348 393.858 329.348 394.305C329.348 394.716 329.429 395.101 329.59 395.46C329.759 395.812 330.015 396.098 330.36 396.318C330.705 396.531 331.134 396.637 331.647 396.637C332.278 396.637 332.78 396.446 333.154 396.065C333.528 395.684 333.715 395.159 333.715 394.492C333.715 393.773 333.528 393.22 333.154 392.831C332.78 392.435 332.259 392.237 331.592 392.237Z" fill="white" fill-opacity="0.6"/>
<path d="M405.797 396.637C407.176 395.684 408.261 394.763 409.053 393.876C409.852 392.989 410.252 392.138 410.252 391.324C410.252 390.789 410.109 390.352 409.823 390.015C409.544 389.678 409.086 389.509 408.448 389.509C407.81 389.509 407.322 389.703 406.985 390.092C406.648 390.481 406.457 390.994 406.413 391.632H405.929C405.98 390.825 406.23 390.198 406.677 389.751C407.124 389.304 407.715 389.08 408.448 389.08C409.115 389.08 409.662 389.267 410.087 389.641C410.52 390.015 410.736 390.572 410.736 391.313C410.736 392.23 410.314 393.154 409.471 394.085C408.635 395.016 407.678 395.838 406.6 396.549H410.989V396.967H405.797V396.637ZM412.071 396.637C413.449 395.684 414.535 394.763 415.327 393.876C416.126 392.989 416.526 392.138 416.526 391.324C416.526 390.789 416.383 390.352 416.097 390.015C415.818 389.678 415.36 389.509 414.722 389.509C414.084 389.509 413.596 389.703 413.259 390.092C412.921 390.481 412.731 390.994 412.687 391.632H412.203C412.254 390.825 412.503 390.198 412.951 389.751C413.398 389.304 413.988 389.08 414.722 389.08C415.389 389.08 415.935 389.267 416.361 389.641C416.793 390.015 417.01 390.572 417.01 391.313C417.01 392.23 416.588 393.154 415.745 394.085C414.909 395.016 413.952 395.838 412.874 396.549H417.263V396.967H412.071V396.637Z" fill="white" fill-opacity="0.6"/>
<path d="M487.045 396.637C488.423 395.684 489.509 394.763 490.301 393.876C491.1 392.989 491.5 392.138 491.5 391.324C491.5 390.789 491.357 390.352 491.071 390.015C490.792 389.678 490.334 389.509 489.696 389.509C489.058 389.509 488.57 389.703 488.233 390.092C487.895 390.481 487.705 390.994 487.661 391.632H487.177C487.228 390.825 487.477 390.198 487.925 389.751C488.372 389.304 488.962 389.08 489.696 389.08C490.363 389.08 490.909 389.267 491.335 389.641C491.767 390.015 491.984 390.572 491.984 391.313C491.984 392.23 491.562 393.154 490.719 394.085C489.883 395.016 488.926 395.838 487.848 396.549H492.237V396.967H487.045V396.637ZM495.144 392.963C494.631 392.831 494.246 392.604 493.989 392.281C493.732 391.958 493.604 391.57 493.604 391.115C493.604 390.514 493.828 390.026 494.275 389.652C494.73 389.278 495.357 389.091 496.156 389.091C496.955 389.091 497.579 389.278 498.026 389.652C498.481 390.026 498.708 390.514 498.708 391.115C498.708 391.562 498.58 391.951 498.323 392.281C498.066 392.604 497.681 392.831 497.168 392.963C497.718 393.08 498.147 393.315 498.455 393.667C498.77 394.019 498.928 394.459 498.928 394.987C498.928 395.684 498.679 396.237 498.18 396.648C497.689 397.051 497.014 397.253 496.156 397.253C495.298 397.253 494.623 397.051 494.132 396.648C493.641 396.237 493.395 395.684 493.395 394.987C493.395 394.459 493.549 394.019 493.857 393.667C494.172 393.308 494.601 393.073 495.144 392.963ZM498.224 391.148C498.224 390.627 498.037 390.224 497.663 389.938C497.289 389.652 496.787 389.509 496.156 389.509C495.525 389.509 495.023 389.652 494.649 389.938C494.275 390.217 494.088 390.624 494.088 391.159C494.088 391.665 494.275 392.065 494.649 392.358C495.023 392.644 495.525 392.787 496.156 392.787C496.787 392.787 497.289 392.64 497.663 392.347C498.037 392.054 498.224 391.654 498.224 391.148ZM496.156 393.183C495.489 393.183 494.939 393.33 494.506 393.623C494.081 393.916 493.868 394.367 493.868 394.976C493.868 395.555 494.073 396.01 494.484 396.34C494.902 396.67 495.459 396.835 496.156 396.835C496.853 396.835 497.406 396.67 497.817 396.34C498.228 396.01 498.433 395.555 498.433 394.976C498.433 394.375 498.22 393.927 497.795 393.634C497.37 393.333 496.823 393.183 496.156 393.183Z" fill="white" fill-opacity="0.6"/>
<path d="M572.557 395.02V394.635L576.748 389.212H577.309V394.591H578.563V395.02H577.309V397H576.825V395.02H572.557ZM576.836 389.806L573.14 394.591H576.836V389.806Z" fill="white" fill-opacity="0.6"/>
<path d="M645.775 396.637C647.154 395.684 648.239 394.763 649.031 393.876C649.83 392.989 650.23 392.138 650.23 391.324C650.23 390.789 650.087 390.352 649.801 390.015C649.522 389.678 649.064 389.509 648.426 389.509C647.788 389.509 647.3 389.703 646.963 390.092C646.626 390.481 646.435 390.994 646.391 391.632H645.907C645.958 390.825 646.208 390.198 646.655 389.751C647.102 389.304 647.693 389.08 648.426 389.08C649.093 389.08 649.64 389.267 650.065 389.641C650.498 390.015 650.714 390.572 650.714 391.313C650.714 392.23 650.292 393.154 649.449 394.085C648.613 395.016 647.656 395.838 646.578 396.549H650.967V396.967H645.775V396.637ZM653.874 392.963C653.361 392.831 652.976 392.604 652.719 392.281C652.463 391.958 652.334 391.57 652.334 391.115C652.334 390.514 652.558 390.026 653.005 389.652C653.46 389.278 654.087 389.091 654.886 389.091C655.686 389.091 656.309 389.278 656.756 389.652C657.211 390.026 657.438 390.514 657.438 391.115C657.438 391.562 657.31 391.951 657.053 392.281C656.797 392.604 656.412 392.831 655.898 392.963C656.448 393.08 656.877 393.315 657.185 393.667C657.501 394.019 657.658 394.459 657.658 394.987C657.658 395.684 657.409 396.237 656.91 396.648C656.419 397.051 655.744 397.253 654.886 397.253C654.028 397.253 653.354 397.051 652.862 396.648C652.371 396.237 652.125 395.684 652.125 394.987C652.125 394.459 652.279 394.019 652.587 393.667C652.903 393.308 653.332 393.073 653.874 392.963ZM656.954 391.148C656.954 390.627 656.767 390.224 656.393 389.938C656.019 389.652 655.517 389.509 654.886 389.509C654.256 389.509 653.753 389.652 653.379 389.938C653.005 390.217 652.818 390.624 652.818 391.159C652.818 391.665 653.005 392.065 653.379 392.358C653.753 392.644 654.256 392.787 654.886 392.787C655.517 392.787 656.019 392.64 656.393 392.347C656.767 392.054 656.954 391.654 656.954 391.148ZM654.886 393.183C654.219 393.183 653.669 393.33 653.236 393.623C652.811 393.916 652.598 394.367 652.598 394.976C652.598 395.555 652.804 396.01 653.214 396.34C653.632 396.67 654.19 396.835 654.886 396.835C655.583 396.835 656.137 396.67 656.547 396.34C656.958 396.01 657.163 395.555 657.163 394.976C657.163 394.375 656.951 393.927 656.525 393.634C656.1 393.333 655.554 393.183 654.886 393.183Z" fill="white" fill-opacity="0.6"/>
<mask id="mask0_56_418" style="mask-type:alpha" maskUnits="userSpaceOnUse" x="7" y="8" width="649" height="334">
<path fill-rule="evenodd" clip-rule="evenodd" d="M7.02075 28C7.02075 16.9543 15.9751 8 27.0208 8H635.021C646.066 8 655.021 16.9543 655.021 28V322C655.021 333.046 646.066 342 635.021 342H27.0207C15.975 342 7.02075 333.046 7.02075 322V28Z" fill="#1A1C1E"/>
</mask>
<g mask="url(#mask0_56_418)">
<g clip-path="url(#clip1_56_418)">
<path d="M370.781 114.465V246.951" stroke="#F73D44" stroke-linecap="square"/>
<path d="M383.857 202.608V246.405" stroke="#F73D44" stroke-linecap="square"/>
<path d="M396.935 160.853V213.41" stroke="#34EC74" stroke-linecap="square"/>
<path d="M410.012 182.351V249.142" stroke="#F73D44" stroke-linecap="square"/>
<path d="M421.453 191.805V261.88" stroke="#34EC74" stroke-linecap="square"/>
<path d="M434.529 194.25V232.573" stroke="#34EC74" stroke-linecap="square"/>
<path d="M447.607 202.9V255.457" stroke="#F73D44" stroke-linecap="square"/>
<path d="M459.049 212.534V308.888" stroke="#F73D44" stroke-linecap="square"/>
<path d="M472.125 253.194V307.94" stroke="#34EC74" stroke-linecap="square"/>
<path d="M485.201 224.98V274.252" stroke="#34EC74" stroke-linecap="square"/>
<path d="M498.279 215.855V341.772" stroke="#F73D44" stroke-linecap="square"/>
<path d="M509.721 317.428V372.175" stroke="#F73D44" stroke-linecap="square"/>
<path d="M522.797 305.749V360.495" stroke="#34EC74" stroke-linecap="square"/>
<path d="M535.873 296.407V351.153" stroke="#34EC74" stroke-linecap="square"/>
<path d="M548.951 297.83V360.241" stroke="#F73D44" stroke-linecap="square"/>
<path d="M560.392 290.458V341.919" stroke="#34EC74" stroke-linecap="square"/>
<path d="M573.469 268.266V319.728" stroke="#34EC74" stroke-linecap="square"/>
<path d="M586.545 218.702V289.873" stroke="#34EC74" stroke-linecap="square"/>
<path d="M599.621 225.382V286.698" stroke="#F73D44" stroke-linecap="square"/>
<path d="M611.064 212.169V262.536" stroke="#34EC74" stroke-linecap="square"/>
<path d="M624.141 213.301V262.572" stroke="#F73D44" stroke-linecap="square"/>
<path d="M637.217 243.339V282.757" stroke="#F73D44" stroke-linecap="square"/>
<path d="M650.293 280.712V320.13" stroke="#F73D44" stroke-linecap="square"/>
<path d="M12.7482 89.4456V119.806" stroke="#F73D44" stroke-linecap="square"/>
<path d="M25.8244 88.4955V151.114" stroke="#F73D44" stroke-linecap="square"/>
<path d="M37.2677 140.614V188.053" stroke="#F73D44" stroke-linecap="square"/>
<path d="M50.3439 183.5V242.323" stroke="#F73D44" stroke-linecap="square"/>
<path d="M63.4201 208.99V243.146" stroke="#34EC74" stroke-linecap="square"/>
<path d="M76.4962 195.455V248.586" stroke="#F73D44" stroke-linecap="square"/>
<path d="M87.9396 242.007V295.138" stroke="#F73D44" stroke-linecap="square"/>
<path d="M101.016 247.637V287.485" stroke="#34EC74" stroke-linecap="square"/>
<path d="M114.092 264.081V311.52" stroke="#F73D44" stroke-linecap="square"/>
<path d="M127.168 257.756V297.604" stroke="#F73D44" stroke-linecap="square"/>
<path d="M140.244 239.855V289.191" stroke="#34EC74" stroke-linecap="square"/>
<path d="M151.688 244.221V303.044" stroke="#F73D44" stroke-linecap="square"/>
<path d="M166.399 253.772V295.518" stroke="#34EC74" stroke-linecap="square"/>
<path d="M177.84 253.456V285.714" stroke="#F73D44" stroke-linecap="square"/>
<path d="M189.281 274.076V317.719" stroke="#F73D44" stroke-linecap="square"/>
<path d="M202.36 289.888V322.146" stroke="#F73D44" stroke-linecap="square"/>
<path d="M215.436 252.127V305.258" stroke="#34EC74" stroke-linecap="square"/>
<path d="M228.512 257.693V295.643" stroke="#F73D44" stroke-linecap="square"/>
<path d="M241.588 231.886V285.017" stroke="#34EC74" stroke-linecap="square"/>
<path d="M266.108 151.304V155.099" stroke="#34EC74" stroke-linecap="square"/>
<path d="M279.184 147.572V221.576" stroke="#F73D44" stroke-linecap="square"/>
<path d="M290.625 103.422V188.812" stroke="#F73D44" stroke-linecap="square"/>
<path d="M303.703 131.191V199.502" stroke="#F73D44" stroke-linecap="square"/>
<path d="M316.779 162.817V208.358" stroke="#34EC74" stroke-linecap="square"/>
<path d="M331.49 148.331V184.384" stroke="#34EC74" stroke-linecap="square"/>
<path d="M342.932 140.678V190.014" stroke="#F73D44" stroke-linecap="square"/>
<path d="M356.008 187.738V191.533" stroke="#34EC74" stroke-linecap="square"/>
<rect x="392.849" y="187.133" width="8.17286" height="23.3584" fill="#34EC74"/>
<path fill-rule="evenodd" clip-rule="evenodd" d="M417.366 199.98H425.539V216.331H417.366V199.98Z" fill="#34EC74"/>
<rect x="468.038" y="270.055" width="8.17286" height="25.6943" fill="#34EC74"/>
<path fill-rule="evenodd" clip-rule="evenodd" d="M481.114 246.697H489.287V270.056H481.114V246.697Z" fill="#34EC74"/>
<rect x="518.71" y="337.795" width="8.17286" height="22.1905" fill="#34EC74"/>
<rect x="531.786" y="301.59" width="8.17286" height="36.2056" fill="#34EC74"/>
<rect x="556.306" y="301.59" width="8.17286" height="31.5339" fill="#34EC74"/>
<path fill-rule="evenodd" clip-rule="evenodd" d="M569.382 268.887H577.555V302.756H569.382V268.887Z" fill="#34EC74"/>
<path fill-rule="evenodd" clip-rule="evenodd" d="M582.458 232.682H590.631V271.223H582.458V232.682Z" fill="#34EC74"/>
<rect x="606.978" y="225.674" width="8.17286" height="24.5264" fill="#34EC74"/>
<path fill-rule="evenodd" clip-rule="evenodd" d="M59.6223 224.043H67.7952V232.139H59.6223V224.043Z" fill="#34EC74"/>
<rect x="96.929" y="270.596" width="8.17286" height="14.1683" fill="#34EC74"/>
<path fill-rule="evenodd" clip-rule="evenodd" d="M136.157 258.453H144.33V288.814H136.157V258.453Z" fill="#34EC74"/>
<path fill-rule="evenodd" clip-rule="evenodd" d="M162.312 264.525H170.485V292.862H162.312V264.525Z" fill="#34EC74"/>
<path fill-rule="evenodd" clip-rule="evenodd" d="M211.349 268.572H219.522V300.957H211.349V268.572Z" fill="#34EC74"/>
<rect x="237.501" y="250.355" width="8.17286" height="24.2885" fill="#34EC74"/>
<rect x="248.945" y="203.803" width="8.17286" height="50.601" fill="#34EC74"/>
<path fill-rule="evenodd" clip-rule="evenodd" d="M262.021 155.227H270.194V205.828H262.021V155.227Z" fill="#34EC74"/>
<rect x="312.693" y="167.371" width="8.17286" height="24.2885" fill="#34EC74"/>
<path fill-rule="evenodd" clip-rule="evenodd" d="M327.404 163.322H335.576V171.418H327.404V163.322Z" fill="#34EC74"/>
<rect x="351.921" y="132.961" width="8.17286" height="56.6731" fill="#34EC74"/>
<rect x="366.694" y="132.24" width="8.17286" height="73.5791" fill="#F73D44"/>
<rect x="379.771" y="205.818" width="8.17286" height="1.16792" fill="#F73D44"/>
<path fill-rule="evenodd" clip-rule="evenodd" d="M405.925 183.629H414.098V216.331H405.925V183.629Z" fill="#F73D44"/>
<path fill-rule="evenodd" clip-rule="evenodd" d="M443.519 204.65H451.691V218.665H443.519V204.65Z" fill="#F73D44"/>
<rect x="454.962" y="218.666" width="8.17286" height="77.0828" fill="#F73D44"/>
<path fill-rule="evenodd" clip-rule="evenodd" d="M494.19 242.025H502.363V338.963H494.19V242.025Z" fill="#F73D44"/>
<rect x="505.634" y="338.963" width="8.17286" height="23.3584" fill="#F73D44"/>
<path fill-rule="evenodd" clip-rule="evenodd" d="M544.862 301.588H553.035V329.618H544.862V301.588Z" fill="#F73D44"/>
<rect x="595.534" y="233.85" width="8.17286" height="18.6868" fill="#F73D44"/>
<rect x="620.054" y="226.842" width="8.17286" height="26.8622" fill="#F73D44"/>
<path fill-rule="evenodd" clip-rule="evenodd" d="M633.13 251.367H641.303V279.397H633.13V251.367Z" fill="#F73D44"/>
<path fill-rule="evenodd" clip-rule="evenodd" d="M646.206 280.566H654.379V302.757H646.206V280.566Z" fill="#F73D44"/>
<rect x="8.66138" y="94.5039" width="8.17286" height="6.07212" fill="#F73D44"/>
<path fill-rule="evenodd" clip-rule="evenodd" d="M21.7375 98.5527H29.9104V151.178H21.7375V98.5527Z" fill="#F73D44"/>
<path fill-rule="evenodd" clip-rule="evenodd" d="M33.179 151.178H41.3518V187.61H33.179V151.178Z" fill="#F73D44"/>
<rect x="46.2571" y="185.586" width="8.17286" height="46.5529" fill="#F73D44"/>
<rect x="72.4094" y="222.02" width="8.17286" height="26.3125" fill="#F73D44"/>
<path fill-rule="evenodd" clip-rule="evenodd" d="M83.8508 244.283H92.0237V282.74H83.8508V244.283Z" fill="#F73D44"/>
<path fill-rule="evenodd" clip-rule="evenodd" d="M110.005 268.572H118.178V280.717H110.005V268.572Z" fill="#F73D44"/>
<rect x="123.081" y="278.691" width="8.17286" height="6.07212" fill="#F73D44"/>
<path fill-rule="evenodd" clip-rule="evenodd" d="M147.601 256.428H155.774V296.909H147.601V256.428Z" fill="#F73D44"/>
<rect x="173.753" y="260.477" width="8.17286" height="18.2164" fill="#F73D44"/>
<path fill-rule="evenodd" clip-rule="evenodd" d="M185.195 274.645H193.367V300.957H185.195V274.645Z" fill="#F73D44"/>
<rect x="198.271" y="300.957" width="8.17286" height="6.07212" fill="#F73D44"/>
<path fill-rule="evenodd" clip-rule="evenodd" d="M224.425 268.572H232.598V280.717H224.425V268.572Z" fill="#F73D44"/>
<path fill-rule="evenodd" clip-rule="evenodd" d="M275.097 157.25H283.27V167.37H275.097V157.25Z" fill="#F73D44"/>
<rect x="286.538" y="167.369" width="8.17286" height="2.02404" fill="#F73D44"/>
<path fill-rule="evenodd" clip-rule="evenodd" d="M299.615 167.369H307.787V195.706H299.615V167.369Z" fill="#F73D44"/>
<path fill-rule="evenodd" clip-rule="evenodd" d="M338.845 163.322H347.018V189.635H338.845V163.322Z" fill="#F73D44"/>
</g>
</g>
<defs>
<clipPath id="clip0_56_418">
<rect width="24.1205" height="16" fill="white" transform="translate(358.358 385)"/>
</clipPath>
<clipPath id="clip1_56_418">
<rect width="1633" height="322" fill="white" transform="translate(-484.979 52)"/>
</clipPath>
</defs>
</svg>
