<svg width="54" height="54" viewBox="0 0 54 54" fill="none" xmlns="http://www.w3.org/2000/svg">
<g id="Group 5509">
<path id="Vector" d="M53 27C53 26.3134 52.9734 25.6327 52.921 24.9591L51.924 25.0366C51.7162 22.3609 51.0871 19.8034 50.103 17.4303L51.0267 17.0473C49.4438 13.2301 46.9785 9.87288 43.8862 7.22928L43.2364 7.98939C39.3339 4.65322 34.3918 2.49769 28.9634 2.07597L29.0409 1.07897C28.3673 1.02664 27.6866 1 27 1C26.3134 1 25.6327 1.02664 24.9591 1.07897L25.0366 2.07597C22.3609 2.28383 19.8034 2.91293 17.4303 3.89701L17.0473 2.97329C13.2301 4.55621 9.87288 7.02146 7.22928 10.1138L7.98939 10.7636C4.65322 14.6661 2.49769 19.6082 2.07597 25.0366L1.07897 24.9591C1.02664 25.6327 1 26.3134 1 27C1 27.6866 1.02664 28.3673 1.07897 29.0409L2.07597 28.9634C2.28383 31.6391 2.91293 34.1966 3.89701 36.5697L2.97329 36.9527C4.55621 40.7699 7.02146 44.1271 10.1138 46.7707L10.7636 46.0106C14.6661 49.3468 19.6082 51.5023 25.0366 51.924L24.9591 52.921C25.6327 52.9734 26.3134 53 27 53C27.6866 53 28.3673 52.9734 29.0409 52.921L28.9634 51.924C31.6391 51.7162 34.1966 51.0871 36.5697 50.103L36.9527 51.0267C40.7699 49.4438 44.1271 46.9785 46.7707 43.8862L46.0106 43.2364C49.3468 39.3339 51.5023 34.3918 51.924 28.9634L52.921 29.0409C52.9734 28.3673 53 27.6866 53 27Z" fill="#FFD3A2" stroke="#B6F509" stroke-width="2" stroke-dasharray="4 8 12 16"/>
<path id="Vector_2" fill-rule="evenodd" clip-rule="evenodd" d="M32.7032 36.7116L29.2052 37.6505V36.4157L28.9263 36.1328H26.9238V37.5733V38.5893H29.0657L31.7019 37.4318L32.7032 36.7116Z" fill="#CDBDB2"/>
<path id="Vector_3" fill-rule="evenodd" clip-rule="evenodd" d="M21.2969 36.7116L24.7189 37.6505V36.4157L25.0104 36.1328H27.0002V37.5733V38.5893H24.8583L22.222 37.4318L21.2969 36.7116Z" fill="#CDBDB2"/>
<path id="Vector_4" fill-rule="evenodd" clip-rule="evenodd" d="M28.9266 34.0368L29.2054 36.4163L28.8505 36.1333H25.1497L24.7188 36.4163L25.0103 34.0368L25.5806 33.6768L28.4322 33.7411L28.9266 34.0368Z" fill="#393939"/>
<path id="Vector_5" fill-rule="evenodd" clip-rule="evenodd" d="M30.8533 17.8955L29.1423 21.9469L28.3565 33.7408H25.5809L24.719 21.9469L23.1475 17.8955H30.8533Z" fill="#F89C35"/>
<path id="Vector_6" fill-rule="evenodd" clip-rule="evenodd" d="M38.3315 26.7955L40.334 32.6603L35.3404 32.3645H32.1338V29.8308L32.2732 24.6348L32.9956 25.2007L38.3315 26.7955Z" fill="#F89D35"/>
<path id="Vector_7" fill-rule="evenodd" clip-rule="evenodd" d="M34.5527 27.4512L28.71 27.5926L29.3563 30.6279L32.132 29.9077L34.5527 27.4512Z" fill="#D87C30"/>
<path id="Vector_8" fill-rule="evenodd" clip-rule="evenodd" d="M34.5526 27.5155L32.1318 29.8305V32.1456L34.5526 27.5155Z" fill="#EA8D3A"/>
<path id="Vector_9" fill-rule="evenodd" clip-rule="evenodd" d="M32.1324 29.9082L29.2807 30.6284L28.3555 33.7409L29.0019 34.101L32.1324 32.2232V29.9082Z" fill="#F89D35"/>
<path id="Vector_10" fill-rule="evenodd" clip-rule="evenodd" d="M32.1323 32.2227L32.7027 36.7113L28.9258 34.0362L32.1323 32.2227Z" fill="#EB8F35"/>
<path id="Vector_11" fill-rule="evenodd" clip-rule="evenodd" d="M28.7127 27.5929L28.3582 33.7406L29.4217 30.6024L28.7127 27.5929Z" fill="#EA8E3A"/>
<path id="Vector_12" fill-rule="evenodd" clip-rule="evenodd" d="M35.4164 32.2998L32.1338 32.2227L32.7041 36.7113L35.4164 32.2998Z" fill="#D87C30"/>
<path id="Vector_13" fill-rule="evenodd" clip-rule="evenodd" d="M38.7614 38.6672L32.7031 36.7123L35.4154 32.3008L40.333 32.6609L38.7614 38.6672Z" fill="#EB8F35"/>
<path id="Vector_14" fill-rule="evenodd" clip-rule="evenodd" d="M29.1409 21.9463L32.208 24.5571L34.5527 27.451L28.71 27.6696L29.1409 21.9463Z" fill="#E8821E"/>
<path id="Vector_15" fill-rule="evenodd" clip-rule="evenodd" d="M32.7027 36.7124L28.9258 34.0371L29.2046 36.3522V37.6512L31.7774 37.1496L32.7027 36.7124Z" fill="#DFCEC3"/>
<path id="Vector_16" fill-rule="evenodd" clip-rule="evenodd" d="M21.2969 36.7114L25.0104 34.0361L24.7189 36.3512V37.6502L22.1587 37.1486L21.2969 36.7114Z" fill="#DFCEC3"/>
<path id="Vector_17" fill-rule="evenodd" clip-rule="evenodd" d="M30.2838 28.8916L29.498 30.5636L32.2736 29.8304L30.2838 28.8916Z" fill="#393939"/>
<path id="Vector_18" fill-rule="evenodd" clip-rule="evenodd" d="M38.8393 14.5L29.1436 21.9468L30.7786 17.8954L38.8393 14.5Z" fill="#E88F35"/>
<path id="Vector_19" fill-rule="evenodd" clip-rule="evenodd" d="M38.8379 14.5L40.118 18.4742L39.4083 22.8213L39.9025 23.1043L39.1928 23.7603L39.7631 24.2618L38.9774 24.9821L39.4716 25.4193L38.3309 26.8598L32.9824 25.2008C30.3716 23.0786 29.0789 21.9982 29.1295 21.9467C29.1803 21.8953 32.4248 19.4131 38.8379 14.5Z" fill="#8E5A30"/>
<path id="Vector_20" fill-rule="evenodd" clip-rule="evenodd" d="M15.6695 26.7955L13.667 32.6603L18.6606 32.3645H21.8672V29.8308L21.7277 24.6348L21.018 25.2007L15.6695 26.7955Z" fill="#F89D35"/>
<path id="Vector_21" fill-rule="evenodd" clip-rule="evenodd" d="M19.4473 27.4512L25.29 27.5926L24.6563 30.6279L21.868 29.9077L19.4473 27.4512Z" fill="#D87C30"/>
<path id="Vector_22" fill-rule="evenodd" clip-rule="evenodd" d="M19.4471 27.5155L21.8678 29.8305V32.1456L19.4471 27.5155Z" fill="#EA8D3A"/>
<path id="Vector_23" fill-rule="evenodd" clip-rule="evenodd" d="M21.8672 29.9082L24.7189 30.6284L25.6441 33.7409L25.0104 34.101L21.8672 32.2232V29.9082Z" fill="#F89D35"/>
<path id="Vector_24" fill-rule="evenodd" clip-rule="evenodd" d="M21.8673 32.2227L21.2969 36.7113L25.0105 34.1004L21.8673 32.2227Z" fill="#EB8F35"/>
<path id="Vector_25" fill-rule="evenodd" clip-rule="evenodd" d="M25.288 27.5929L25.6425 33.7406L24.5789 30.6024L25.288 27.5929Z" fill="#EA8E3A"/>
<path id="Vector_26" fill-rule="evenodd" clip-rule="evenodd" d="M18.585 32.2998L21.8676 32.2227L21.2973 36.7113L18.585 32.2998Z" fill="#D87C30"/>
<path id="Vector_27" fill-rule="evenodd" clip-rule="evenodd" d="M15.2386 38.6672L21.2968 36.7123L18.5846 32.3008L13.667 32.6609L15.2386 38.6672Z" fill="#EB8F35"/>
<path id="Vector_28" fill-rule="evenodd" clip-rule="evenodd" d="M24.8591 21.9463L21.792 24.5571L19.4473 27.451L25.29 27.6696L24.8591 21.9463Z" fill="#E8821E"/>
<path id="Vector_29" fill-rule="evenodd" clip-rule="evenodd" d="M23.7172 28.8917L24.503 30.5637L21.7274 29.8305L23.7172 28.8917Z" fill="#393939"/>
<path id="Vector_30" fill-rule="evenodd" clip-rule="evenodd" d="M15.1633 14.5L24.8589 21.9468L23.2239 17.8954L15.1633 14.5Z" fill="#E88F35"/>
<path id="Vector_31" fill-rule="evenodd" clip-rule="evenodd" d="M15.1629 14.5L13.8828 18.4742L14.5926 22.8213L14.0983 23.1043L14.8081 23.7603L14.2377 24.2618L15.0235 24.9821L14.5292 25.4193L15.6699 26.8598L21.0184 25.2008C23.6292 23.0786 24.922 21.9982 24.8713 21.9467C24.8206 21.8953 21.5887 19.4131 15.1629 14.5Z" fill="#8E5A30"/>
</g>
</svg>
