<svg width="74" height="73" viewBox="0 0 74 73" fill="none" xmlns="http://www.w3.org/2000/svg">
<path fill-rule="evenodd" clip-rule="evenodd" d="M13.3849 51.3403V59.6151H12.0058C11.2445 59.6151 10.6266 60.2329 10.6266 60.9942C10.6266 61.7555 11.2445 62.3734 12.0058 62.3734H16.1432V63.7525C16.1432 64.5138 16.761 65.1316 17.5223 65.1316C18.2836 65.1316 18.9015 64.5138 18.9015 63.7525V62.3734H20.2806C22.5658 62.3734 24.418 60.5212 24.418 58.2359C24.418 57.1768 24.0194 56.21 23.3643 55.4777C24.0194 54.7454 24.418 53.7786 24.418 52.7194C24.418 50.4342 22.5658 48.582 20.2806 48.582H18.9015V47.2029C18.9015 46.4416 18.2836 45.8237 17.5223 45.8237C16.761 45.8237 16.1432 46.4416 16.1432 47.2029V48.582H12.0058C11.2445 48.582 10.6266 49.1998 10.6266 49.9611C10.6266 50.7224 11.2445 51.3403 12.0058 51.3403H13.3849ZM20.2806 56.8568H16.1432V59.6151H20.2806C21.0419 59.6151 21.6597 58.9972 21.6597 58.2359C21.6597 57.4747 21.0419 56.8568 20.2806 56.8568ZM20.2806 51.3403H16.1432V54.0985H20.2806C21.0419 54.0985 21.6597 53.4807 21.6597 52.7194C21.6597 51.9581 21.0419 51.3403 20.2806 51.3403Z" fill="#BAFD02"/>
<path fill-rule="evenodd" clip-rule="evenodd" d="M28.821 15.1413L25.6192 18.3431C21.656 22.3079 19.934 27.9899 21.0348 33.4872C21.2976 34.8045 22.5958 34.7695 22.5958 34.7695C23.0196 34.7695 23.4242 34.6022 23.722 34.3027L35.8523 22.1741L37.1043 23.4262C37.6603 23.9821 38.5252 24.041 39.1465 23.603L65.1177 49.5727C66.9815 51.438 70.0112 51.438 71.875 49.5727C73.7403 47.7073 73.7403 44.6791 71.875 42.8154L45.9053 16.8441C46.3434 16.2229 46.2844 15.3579 45.7285 14.8004L44.4764 13.5483L49.1135 8.91289C50.6682 7.35659 50.6682 4.83656 49.1135 3.28026L47.7133 1.88166C46.1586 0.325358 43.637 0.325358 42.0823 1.88166L37.4452 6.51711L36.1709 5.24276C35.6149 4.68682 34.75 4.62789 34.1271 5.06754L30.4586 1.399C28.5948 -0.466333 25.5651 -0.466333 23.7013 1.399C21.836 3.26274 21.836 6.29091 23.7013 8.15624L27.3699 11.8248C26.9318 12.4476 26.9908 13.3126 27.5467 13.8685L28.821 15.1413ZM43.6688 19.1141L69.6226 45.0678C70.2438 45.6891 70.2438 46.699 69.6226 47.3202C69.0013 47.9415 67.9914 47.9415 67.3702 47.3202L41.4164 21.3665L43.6688 19.1141ZM23.9068 29.6131C24.0518 26.2552 25.4408 23.0263 27.8716 20.5955L31.0735 17.3953L33.5999 19.9201L23.9068 29.6131ZM42.3499 15.9282L35.0447 8.62298L30.9253 12.7423L38.2305 20.0459L42.3499 15.9282ZM42.224 11.2959L39.6976 8.76953L44.3347 4.13407C44.6453 3.82345 45.1503 3.82345 45.4609 4.13407L46.8611 5.53267C47.1717 5.84489 47.1717 6.34826 46.8611 6.66047L42.224 11.2959ZM31.8588 7.30402L29.6064 9.55644L25.9538 5.90383C25.3325 5.28258 25.3325 4.27266 25.9538 3.65141C26.575 3.03017 27.5849 3.03017 28.2062 3.65141L31.8588 7.30402Z" fill="#B8B8B8"/>
<path fill-rule="evenodd" clip-rule="evenodd" d="M18.2344 31.7524L15.0485 30.1595C14.2632 29.7661 13.3042 30.0846 12.9124 30.8716C12.5189 31.6569 12.8375 32.6158 13.6244 33.0077L16.8103 34.6006C17.5956 34.9941 18.5546 34.6755 18.9464 33.8886C19.3399 33.1033 19.0213 32.1443 18.2344 31.7524Z" fill="#BAFD02"/>
<path fill-rule="evenodd" clip-rule="evenodd" d="M18.6485 25.6786L15.4627 22.4927C14.8414 21.8714 13.8315 21.8714 13.2102 22.4927C12.589 23.1139 12.589 24.1239 13.2102 24.7451L16.3961 27.931C17.0174 28.5522 18.0273 28.5522 18.6485 27.931C19.2698 27.3097 19.2698 26.2998 18.6485 25.6786Z" fill="#BAFD02"/>
<path fill-rule="evenodd" clip-rule="evenodd" d="M27.08 37.9553H31.8588C32.7381 37.9553 33.4517 37.2417 33.4517 36.3624C33.4517 35.4831 32.7381 34.7695 31.8588 34.7695H27.08C26.2007 34.7695 25.487 35.4831 25.487 36.3624C25.487 37.2417 26.2007 37.9553 27.08 37.9553Z" fill="#BAFD02"/>
<path fill-rule="evenodd" clip-rule="evenodd" d="M1.59294 73H71.6822C72.5615 73 73.2752 72.2864 73.2752 71.4071V65.7872C73.2752 65.0449 73.1031 64.3137 72.7702 63.651L70.8013 59.7117C69.9921 58.0933 68.3371 57.0706 66.5275 57.0706H64.4216C63.7351 57.0706 63.1266 56.6326 62.9099 55.981L60.9538 50.1127C60.4775 48.687 59.3577 47.5671 57.932 47.0909C56.4776 46.6066 54.2491 45.8643 52.5064 45.2829C50.2493 44.531 47.785 45.5521 46.7209 47.6787L45.6504 49.818C45.3812 50.358 44.8301 50.6989 44.2263 50.6989H41.8704C40.0003 50.6989 38.3006 51.79 37.5233 53.4913L36.3142 56.1403C36.0705 56.674 35.5528 57.0276 34.973 57.0674C35.0208 56.5434 35.0447 56.0129 35.0447 55.4777C35.0447 45.8069 27.1931 37.9554 17.5223 37.9554C7.85159 37.9554 0 45.8069 0 55.4777C0 59.0634 1.07842 62.3974 2.92941 65.1755L0.168851 70.695C-0.078054 71.1872 -0.052567 71.775 0.237348 72.2449C0.527263 72.7133 1.04019 73 1.59294 73V73ZM4.17191 69.8141H7.45017C6.62663 69.2343 5.85405 68.5844 5.14201 67.8739L4.17191 69.8141ZM17.5223 69.8141C9.6102 69.8141 3.18588 63.3898 3.18588 55.4777C3.18588 47.5656 9.6102 41.1412 17.5223 41.1412C25.4345 41.1412 31.8588 47.5656 31.8588 55.4777C31.8588 63.3898 25.4345 69.8141 17.5223 69.8141ZM69.1049 63.4424L67.9516 61.1374C67.6824 60.5974 67.1312 60.2565 66.5275 60.2565H64.42C62.3636 60.2565 60.538 58.9407 59.8865 56.9894L57.932 51.121C57.7727 50.6447 57.4 50.272 56.9237 50.1127L51.4981 48.3047C50.7462 48.0546 49.9243 48.3955 49.5707 49.1043L48.5002 51.2436C47.691 52.8621 46.0359 53.8847 44.2263 53.8847H41.8704C41.2476 53.8847 40.6805 54.2479 40.4224 54.815L39.2118 57.4641C38.4344 59.1653 36.7364 60.2565 34.8646 60.2565H34.3836C33.2749 64.1703 30.8393 67.5283 27.5945 69.8141H35.6532L37.5185 66.0835C38.3277 64.465 39.9828 63.4424 41.7923 63.4424H44.2773C44.8667 63.4424 45.4083 63.1158 45.6855 62.5949L46.38 61.2808C46.7926 60.505 47.7563 60.2071 48.5337 60.6197C49.311 61.0307 49.6073 61.996 49.1963 62.7717L48.5002 64.0859C47.6719 65.6502 46.0471 66.6282 44.2773 66.6282H41.7923C41.1886 66.6282 40.6375 66.9691 40.3683 67.5091L39.215 69.8141H70.0893V66.6282H58.9387C58.0594 66.6282 57.3458 65.9146 57.3458 65.0353C57.3458 64.156 58.0594 63.4424 58.9387 63.4424H69.1049Z" fill="#B8B8B8"/>
</svg>
