<svg width="77" height="76" viewBox="0 0 77 76" fill="none" xmlns="http://www.w3.org/2000/svg">
<path fill-rule="evenodd" clip-rule="evenodd" d="M7.37275 75.9995C3.68511 75.9956 0.696476 73.0075 0.691895 69.3198V28.4996C0.697197 25.1999 3.10758 22.3967 6.36932 21.8972C7.04684 21.8201 7.72928 21.7951 8.41062 21.8223C8.65623 21.8221 8.88801 21.7086 9.03881 21.5148L25.2814 0.627904C25.8278 -0.0728733 26.8346 -0.207494 27.5459 0.325092L35.9392 6.61882C36.1981 6.81319 36.549 6.83105 36.8262 6.66395L47.5517 0.237217C48.2961 -0.211258 49.2613 0.00290138 49.7462 0.724091L63.7005 21.6573C63.8145 21.8279 63.9896 21.9482 64.1897 21.9933C67.2315 22.6853 69.3966 25.3802 69.4171 28.4996V37.9996C69.4171 38.439 69.7733 38.7952 70.2127 38.7952H75.0624C75.962 38.7959 76.691 39.5249 76.6917 40.4245V54.9725C76.6904 55.8718 75.9617 56.6004 75.0624 56.6018H58.0896C53.262 56.4771 49.4133 52.5277 49.4133 47.6985C49.4133 42.8693 53.262 38.9199 58.0896 38.7952H65.3642C65.8036 38.7952 66.1598 38.439 66.1598 37.9996V28.4996C66.1572 26.6101 64.6257 25.0792 62.7362 25.0773H7.37275C5.48344 25.0792 3.95235 26.6103 3.95039 28.4996V69.3198C3.953 71.2087 5.48391 72.7391 7.37275 72.741H62.7362C64.6255 72.7397 66.1572 71.2091 66.1598 69.3198V62.2471C66.1438 61.6548 66.4507 61.1004 66.9611 60.7995C67.4716 60.4987 68.1052 60.4987 68.6157 60.7995C69.1262 61.1004 69.4331 61.6548 69.4171 62.2471V69.3198C69.4132 73.0078 66.4241 75.9962 62.7362 75.9995H7.37275ZM58.0896 42.0525C54.9717 42.0525 52.4442 44.5801 52.4442 47.6979C52.4442 50.8157 54.9717 53.3433 58.0896 53.3433H72.6376C73.077 53.3433 73.4332 52.987 73.4332 52.5476V42.8493C73.4335 42.6381 73.3498 42.4355 73.2006 42.286C73.0513 42.1365 72.8488 42.0525 72.6376 42.0525H58.0896ZM40.1964 8.44401L47.2418 4.21296C47.6072 3.99282 48.0811 4.09901 48.3176 4.45402L59.0657 20.585C59.2286 20.829 59.244 21.143 59.1056 21.4018C58.9673 21.6606 58.6977 21.8222 58.4042 21.8223H56.4734C56.457 21.8223 56.4421 21.8228 56.428 21.8232C56.4108 21.8237 56.3948 21.8242 56.3789 21.8238C56.1666 21.8185 55.958 21.6608 52.9736 19.4048C50.7042 17.6894 46.83 14.7607 40.1287 9.76332C39.917 9.60413 39.7983 9.35017 39.8118 9.08567C39.8254 8.82117 39.9695 8.5807 40.1964 8.44401ZM41.249 19.9718C43.8179 21.6985 44.0006 21.8213 44.1852 21.8241C44.1993 21.8244 44.2134 21.8239 44.2287 21.8234C44.243 21.8229 44.2583 21.8223 44.2754 21.8223H48.3913C48.7331 21.8205 49.0357 21.6007 49.1433 21.2762C49.2508 20.9517 49.1394 20.5947 48.8663 20.389L27.4913 4.35783C27.1443 4.09717 26.6524 4.16268 26.3858 4.50508L13.917 20.5363C13.731 20.7764 13.6976 21.1014 13.8311 21.3743C13.9645 21.6472 14.2415 21.8205 14.5452 21.8212H20.4993C20.7496 21.8206 20.9852 21.7028 21.1358 21.5029L27.6813 12.7748C28.1991 12.0759 29.1758 11.9094 29.896 12.3972C35.8458 16.3401 39.2615 18.6359 41.249 19.9718ZM25.931 20.5434L28.9199 16.5629C29.1723 16.224 29.6455 16.1411 29.9981 16.3741L35.9748 20.3594C36.2655 20.5546 36.3946 20.9167 36.2931 21.2518C36.1916 21.5869 35.8832 21.8165 35.5331 21.8176H26.5674C26.2661 21.817 25.9908 21.6465 25.8561 21.3769C25.7214 21.1073 25.7504 20.7847 25.931 20.5434Z" fill="#B8B8B8"/>
<circle cx="60.5144" cy="47.6979" r="1.98668" fill="#BAFD02"/>
<path fill-rule="evenodd" clip-rule="evenodd" d="M31.4172 66.3C30.5172 66.3007 29.7869 65.572 29.7856 64.672V62.2471C29.7856 62.0361 29.7017 61.8337 29.5525 61.6845C29.4033 61.5353 29.201 61.4515 28.9899 61.4515H26.5686C26.129 61.4515 25.7725 61.8075 25.7718 62.2471V64.672C25.748 65.5543 25.0259 66.2572 24.1432 66.2572C23.2605 66.2572 22.5384 65.5543 22.5145 64.672V62.2471C22.5145 61.8077 22.1583 61.4515 21.7189 61.4515H19.294C18.3942 61.4515 17.6648 60.722 17.6648 59.8222C17.6648 58.9224 18.3942 58.193 19.294 58.193H21.7189C22.1583 58.193 22.5145 57.8368 22.5145 57.3974V42.8494C22.5148 42.6381 22.4312 42.4355 22.2819 42.286C22.1327 42.1365 21.9301 42.0525 21.7189 42.0525H19.294C18.7017 42.0685 18.1474 41.7617 17.8465 41.2512C17.5456 40.7407 17.5456 40.1071 17.8465 39.5966C18.1474 39.0861 18.7017 38.7792 19.294 38.7952H21.7189C22.1583 38.7952 22.5145 38.439 22.5145 37.9996V35.5747C22.4985 34.9824 22.8054 34.4281 23.3159 34.1272C23.8264 33.8263 24.46 33.8263 24.9705 34.1272C25.4809 34.4281 25.7878 34.9824 25.7718 35.5747V37.9996C25.7725 38.4392 26.129 38.7952 26.5686 38.7952H28.9935C29.4315 38.7933 29.7856 38.4376 29.7856 37.9996V35.5747C29.7696 34.9824 30.0764 34.4281 30.5869 34.1272C31.0974 33.8263 31.731 33.8263 32.2415 34.1272C32.752 34.4281 33.0589 34.9824 33.0429 35.5747V38.4461C33.0429 38.7825 33.2545 39.0825 33.5713 39.1954C35.3762 39.8215 36.808 41.2197 37.4767 43.0092C38.1454 44.7988 37.9814 46.7933 37.0293 48.4496C36.8172 48.8196 36.9345 49.2909 37.2953 49.5183C39.7244 51.0592 40.8452 54.0183 40.0465 56.7818C39.2477 59.5453 36.721 61.4501 33.8444 61.4574C33.405 61.4574 33.0488 61.8136 33.0488 62.253V64.6779C33.0442 65.5756 32.3149 66.3007 31.4172 66.3ZM26.5686 51.752C26.129 51.752 25.7725 52.108 25.7718 52.5476V57.3974C25.7725 57.837 26.129 58.193 26.5686 58.193H33.8421C38.1052 58.193 38.1004 51.752 33.8421 51.752H26.5686ZM25.7718 42.8494C25.7718 42.4093 26.1286 42.0525 26.5686 42.0525H31.4172C35.6755 42.0525 35.6803 48.4947 31.4172 48.4947H26.5686C26.1288 48.4941 25.7725 48.1377 25.7718 47.6979V42.8494Z" fill="#BAFD02"/>
</svg>
