<svg width="322" height="339" viewBox="0 0 322 339" fill="none" xmlns="http://www.w3.org/2000/svg">
<g clip-path="url(#clip0_6_99)">
<rect x="0.5" y="142.5" width="128" height="61" rx="9.5" fill="url(#paint0_linear_6_99)" stroke="#363D3E"/>
<path opacity="0.598583" d="M15.5214 194.016H14.5254V186.9H11.9934V186.012H18.0654V186.9H15.5214V194.016ZM19.2336 194.016H18.3336V188.22H19.2336V189.144C19.7016 188.544 20.3736 188.088 21.1656 188.088V189.012C21.0576 189 20.9496 188.988 20.8176 188.988C20.2536 188.988 19.4976 189.444 19.2336 189.912V194.016ZM26.8185 194.016H25.9185V193.356C25.4505 193.884 24.7785 194.16 23.9985 194.16C23.0265 194.16 21.9825 193.5 21.9825 192.24C21.9825 190.932 23.0145 190.332 23.9985 190.332C24.7905 190.332 25.4505 190.584 25.9185 191.112V190.068C25.9185 189.3 25.2945 188.856 24.4545 188.856C23.7585 188.856 23.1945 189.096 22.6785 189.66L22.2585 189.036C22.8825 188.388 23.6265 188.076 24.5745 188.076C25.8105 188.076 26.8185 188.628 26.8185 190.032V194.016ZM24.3345 193.512C24.9585 193.512 25.5705 193.272 25.9185 192.792V191.688C25.5705 191.22 24.9585 190.98 24.3345 190.98C23.4825 190.98 22.8945 191.508 22.8945 192.24C22.8945 192.984 23.4825 193.512 24.3345 193.512ZM33.7344 194.016H32.8344V193.152C32.4024 193.74 31.6944 194.16 30.8784 194.16C29.3664 194.16 28.2984 193.008 28.2984 191.124C28.2984 189.264 29.3664 188.076 30.8784 188.076C31.6584 188.076 32.3664 188.46 32.8344 189.096V186.012H33.7344V194.016ZM31.1064 193.356C31.8144 193.356 32.5224 192.936 32.8344 192.432V189.816C32.5224 189.312 31.8144 188.88 31.1064 188.88C29.9304 188.88 29.2344 189.84 29.2344 191.124C29.2344 192.408 29.9304 193.356 31.1064 193.356ZM38.1647 194.16C36.4367 194.16 35.2007 192.924 35.2007 191.112C35.2007 189.432 36.4007 188.076 38.0567 188.076C39.8087 188.076 40.8407 189.444 40.8407 191.184V191.412H36.1607C36.2327 192.504 36.9887 193.416 38.2367 193.416C38.9087 193.416 39.5687 193.152 40.0367 192.672L40.4687 193.26C39.8807 193.836 39.1007 194.16 38.1647 194.16ZM39.9527 190.74C39.9407 189.888 39.3647 188.82 38.0447 188.82C36.8087 188.82 36.1967 189.864 36.1487 190.74H39.9527ZM49.0759 194.016H47.8399L44.6119 186.012H45.7519L48.4519 192.924L51.1519 186.012H52.2919L49.0759 194.016ZM55.1195 194.16C53.3555 194.16 52.2515 192.792 52.2515 191.112C52.2515 189.432 53.3555 188.076 55.1195 188.076C56.8835 188.076 57.9875 189.432 57.9875 191.112C57.9875 192.792 56.8835 194.16 55.1195 194.16ZM55.1195 193.356C56.3555 193.356 57.0395 192.3 57.0395 191.112C57.0395 189.936 56.3555 188.88 55.1195 188.88C53.8835 188.88 53.1995 189.936 53.1995 191.112C53.1995 192.3 53.8835 193.356 55.1195 193.356ZM60.3547 194.016H59.4547V186.012H60.3547V194.016ZM66.962 194.016H66.062V193.2C65.618 193.704 64.862 194.16 63.998 194.16C62.786 194.16 62.15 193.56 62.15 192.312V188.22H63.05V192.036C63.05 193.056 63.566 193.356 64.358 193.356C65.054 193.356 65.726 192.948 66.062 192.48V188.22H66.962V194.016ZM76.6554 194.016H75.7554V190.08C75.7554 189.348 75.4434 188.88 74.6874 188.88C74.0874 188.88 73.4514 189.3 73.1514 189.768V194.016H72.2514V190.08C72.2514 189.348 71.9514 188.88 71.1834 188.88C70.5954 188.88 69.9714 189.312 69.6594 189.78V194.016H68.7594V188.22H69.6594V189.06C69.9114 188.688 70.6794 188.076 71.5434 188.076C72.4194 188.076 72.9234 188.556 73.0914 189.156C73.4154 188.628 74.1954 188.076 75.0354 188.076C76.0914 188.076 76.6554 188.664 76.6554 189.828V194.016ZM81.0788 194.16C79.3508 194.16 78.1148 192.924 78.1148 191.112C78.1148 189.432 79.3148 188.076 80.9708 188.076C82.7228 188.076 83.7548 189.444 83.7548 191.184V191.412H79.0748C79.1468 192.504 79.9028 193.416 81.1508 193.416C81.8228 193.416 82.4828 193.152 82.9508 192.672L83.3828 193.26C82.7948 193.836 82.0148 194.16 81.0788 194.16ZM82.8668 190.74C82.8548 189.888 82.2788 188.82 80.9588 188.82C79.7228 188.82 79.1108 189.864 79.0628 190.74H82.8668Z" fill="white"/>
<path d="M17.0019 174.213V171.873C14.2719 171.639 12.2699 170.599 10.8659 169.169L12.8679 166.361C13.8299 167.375 15.2339 168.285 17.0019 168.597V164.489C14.3239 163.813 11.4119 162.825 11.4119 159.289C11.4119 156.663 13.4919 154.427 17.0019 154.063V151.645H19.4719V154.115C21.5779 154.349 23.3459 155.155 24.7499 156.429L22.6959 159.133C21.7599 158.275 20.6419 157.729 19.4719 157.443V161.109C22.1499 161.785 25.1399 162.825 25.1399 166.361C25.1399 169.247 23.2679 171.457 19.4719 171.847V174.213H17.0019ZM21.3959 166.777C21.3959 165.919 20.5899 165.477 19.4719 165.113V168.597C20.7459 168.337 21.3959 167.583 21.3959 166.777ZM15.1819 158.977C15.1819 159.731 15.9099 160.147 17.0019 160.459V157.287C15.8319 157.443 15.1819 158.093 15.1819 158.977ZM35.0266 171.613H31.3346V159.029L28.4486 161.967L26.3426 159.757L31.8026 154.271H35.0266V171.613ZM40.0741 171.899C38.9301 171.899 37.9681 170.937 37.9681 169.793C37.9681 168.649 38.9301 167.687 40.0741 167.687C41.2181 167.687 42.1801 168.649 42.1801 169.793C42.1801 170.937 41.2181 171.899 40.0741 171.899ZM56.0344 171.613H52.3424V168.025H44.0484V165.113L50.9384 154.271H56.0344V164.775H58.2704V168.025H56.0344V171.613ZM52.3424 164.775V157.547L47.6624 164.775H52.3424ZM68.3501 171.613H64.6321V157.521H59.5621V154.271H73.3941V157.521H68.3501V171.613ZM86.3949 163.865H81.7409V169.143H79.4789V163.865H74.7989V161.811H79.4789V156.741H81.7409V161.811H86.3949V163.865Z" fill="#BAFD02"/>
</g>
<rect x="147.969" y="1.07617" width="116.618" height="79.1414" rx="9.5" fill="url(#paint1_linear_6_99)" stroke="#363D3E"/>
<path opacity="0.598583" d="M161.596 63.125H160.6V55.121H161.596V63.125ZM168.247 63.125H167.359V59.333C167.359 58.301 166.831 57.989 166.051 57.989C165.343 57.989 164.683 58.421 164.335 58.889V63.125H163.435V57.329H164.335V58.169C164.743 57.677 165.535 57.185 166.411 57.185C167.611 57.185 168.247 57.797 168.247 59.057V63.125ZM171.532 63.269C170.668 63.269 170.236 62.777 170.236 61.913V58.121H169.276V57.329H170.236V55.745H171.148V57.329H172.324V58.121H171.148V61.721C171.148 62.153 171.34 62.465 171.724 62.465C171.988 62.465 172.216 62.345 172.336 62.213L172.6 62.897C172.372 63.113 172.048 63.269 171.532 63.269ZM176.212 63.269C174.484 63.269 173.248 62.033 173.248 60.221C173.248 58.541 174.448 57.185 176.104 57.185C177.856 57.185 178.888 58.553 178.888 60.293V60.521H174.208C174.28 61.613 175.036 62.525 176.284 62.525C176.956 62.525 177.616 62.261 178.084 61.781L178.516 62.369C177.928 62.945 177.148 63.269 176.212 63.269ZM178 59.849C177.988 58.997 177.412 57.929 176.092 57.929C174.856 57.929 174.244 58.973 174.196 59.849H178ZM182.673 65.477C181.701 65.477 181.029 65.285 180.333 64.601L180.789 63.953C181.269 64.517 181.845 64.733 182.673 64.733C183.633 64.733 184.545 64.265 184.545 63.041V62.165C184.113 62.753 183.405 63.197 182.589 63.197C181.077 63.197 180.009 62.069 180.009 60.197C180.009 58.337 181.065 57.185 182.589 57.185C183.369 57.185 184.077 57.569 184.545 58.205V57.329H185.445V63.041C185.445 64.877 184.089 65.477 182.673 65.477ZM182.817 62.393C183.525 62.393 184.221 61.961 184.545 61.457V58.913C184.221 58.421 183.525 57.989 182.817 57.989C181.641 57.989 180.945 58.913 180.945 60.197C180.945 61.469 181.641 62.393 182.817 62.393ZM188.148 63.125H187.248V57.329H188.148V58.253C188.616 57.653 189.288 57.197 190.08 57.197V58.121C189.972 58.109 189.864 58.097 189.732 58.097C189.168 58.097 188.412 58.553 188.148 59.021V63.125ZM195.733 63.125H194.833V62.465C194.365 62.993 193.693 63.269 192.913 63.269C191.941 63.269 190.897 62.609 190.897 61.349C190.897 60.041 191.929 59.441 192.913 59.441C193.705 59.441 194.365 59.693 194.833 60.221V59.177C194.833 58.409 194.209 57.965 193.369 57.965C192.673 57.965 192.109 58.205 191.593 58.769L191.173 58.145C191.797 57.497 192.541 57.185 193.489 57.185C194.725 57.185 195.733 57.737 195.733 59.141V63.125ZM193.249 62.621C193.873 62.621 194.485 62.381 194.833 61.901V60.797C194.485 60.329 193.873 60.089 193.249 60.089C192.397 60.089 191.809 60.617 191.809 61.349C191.809 62.093 192.397 62.621 193.249 62.621ZM199.024 63.269C198.16 63.269 197.728 62.777 197.728 61.913V58.121H196.768V57.329H197.728V55.745H198.64V57.329H199.816V58.121H198.64V61.721C198.64 62.153 198.832 62.465 199.216 62.465C199.48 62.465 199.708 62.345 199.828 62.213L200.092 62.897C199.864 63.113 199.54 63.269 199.024 63.269ZM201.532 56.501C201.196 56.501 200.92 56.237 200.92 55.901C200.92 55.565 201.196 55.289 201.532 55.289C201.868 55.289 202.132 55.565 202.132 55.901C202.132 56.237 201.868 56.501 201.532 56.501ZM201.976 63.125H201.076V57.329H201.976V63.125ZM206.303 63.269C204.539 63.269 203.435 61.901 203.435 60.221C203.435 58.541 204.539 57.185 206.303 57.185C208.067 57.185 209.171 58.541 209.171 60.221C209.171 61.901 208.067 63.269 206.303 63.269ZM206.303 62.465C207.539 62.465 208.223 61.409 208.223 60.221C208.223 59.045 207.539 57.989 206.303 57.989C205.067 57.989 204.383 59.045 204.383 60.221C204.383 61.409 205.067 62.465 206.303 62.465ZM215.45 63.125H214.562V59.333C214.562 58.301 214.034 57.989 213.254 57.989C212.546 57.989 211.886 58.421 211.538 58.889V63.125H210.638V57.329H211.538V58.169C211.946 57.677 212.738 57.185 213.614 57.185C214.814 57.185 215.45 57.797 215.45 59.057V63.125ZM219.107 63.269C218.147 63.269 217.355 62.969 216.767 62.357L217.223 61.709C217.607 62.153 218.339 62.537 219.131 62.537C220.019 62.537 220.511 62.117 220.511 61.541C220.511 60.137 216.923 61.001 216.923 58.853C216.923 57.941 217.691 57.185 219.071 57.185C220.067 57.185 220.763 57.557 221.219 58.025L220.799 58.649C220.451 58.229 219.827 57.917 219.071 57.917C218.279 57.917 217.787 58.313 217.787 58.829C217.787 60.089 221.375 59.261 221.375 61.517C221.375 62.489 220.595 63.269 219.107 63.269Z" fill="white"/>
<path d="M164.999 39.73C161.801 39.73 159.435 38.508 158.161 36.948L160.085 34.478C161.281 35.726 163.179 36.454 164.869 36.454C166.975 36.454 168.145 35.544 168.145 34.244C168.145 32.866 167.079 32.242 164.661 32.242C163.933 32.242 162.763 32.268 162.503 32.294V28.966C162.815 28.992 164.011 28.992 164.661 28.992C166.585 28.992 167.859 28.42 167.859 27.146C167.859 25.768 166.455 25.092 164.635 25.092C162.971 25.092 161.463 25.716 160.241 26.886L158.395 24.572C159.799 22.986 161.983 21.816 165.025 21.816C169.081 21.816 171.577 23.636 171.577 26.522C171.577 28.706 169.705 30.136 167.781 30.474C169.549 30.656 171.837 32.034 171.837 34.634C171.837 37.624 169.159 39.73 164.999 39.73ZM180.96 39.73C175.994 39.73 173.784 35.232 173.784 30.76C173.784 26.288 175.994 21.816 180.96 21.816C185.9 21.816 188.136 26.288 188.136 30.76C188.136 35.232 185.9 39.73 180.96 39.73ZM180.96 36.454C183.43 36.454 184.366 33.958 184.366 30.76C184.366 27.562 183.43 25.092 180.96 25.092C178.464 25.092 177.528 27.562 177.528 30.76C177.528 33.958 178.464 36.454 180.96 36.454ZM197.083 39.73C192.117 39.73 189.907 35.232 189.907 30.76C189.907 26.288 192.117 21.816 197.083 21.816C202.023 21.816 204.259 26.288 204.259 30.76C204.259 35.232 202.023 39.73 197.083 39.73ZM197.083 36.454C199.553 36.454 200.489 33.958 200.489 30.76C200.489 27.562 199.553 25.092 197.083 25.092C194.587 25.092 193.651 27.562 193.651 30.76C193.651 33.958 194.587 36.454 197.083 36.454ZM217.496 31.67H212.842V36.948H210.58V31.67H205.9V29.616H210.58V24.546H212.842V29.616H217.496V31.67Z" fill="#BAFD02"/>
<g clip-path="url(#clip1_6_99)">
<rect x="155.891" y="103.326" width="138.018" height="78.3075" rx="9.5" fill="url(#paint2_linear_6_99)" stroke="#363D3E"/>
<path opacity="0.598583" d="M172.126 165.789C169.822 165.789 168.01 164.109 168.01 161.649C168.01 159.189 169.822 157.509 172.126 157.509C173.542 157.509 174.526 158.181 175.162 159.093L174.334 159.561C173.878 158.877 173.038 158.397 172.126 158.397C170.374 158.397 169.042 159.729 169.042 161.649C169.042 163.545 170.374 164.901 172.126 164.901C173.038 164.901 173.878 164.409 174.334 163.737L175.174 164.193C174.502 165.117 173.542 165.789 172.126 165.789ZM178.94 165.789C177.176 165.789 176.072 164.421 176.072 162.741C176.072 161.061 177.176 159.705 178.94 159.705C180.704 159.705 181.808 161.061 181.808 162.741C181.808 164.421 180.704 165.789 178.94 165.789ZM178.94 164.985C180.176 164.985 180.86 163.929 180.86 162.741C180.86 161.565 180.176 160.509 178.94 160.509C177.704 160.509 177.02 161.565 177.02 162.741C177.02 163.929 177.704 164.985 178.94 164.985ZM191.171 165.645H190.271V161.709C190.271 160.977 189.959 160.509 189.203 160.509C188.603 160.509 187.967 160.929 187.667 161.397V165.645H186.767V161.709C186.767 160.977 186.467 160.509 185.699 160.509C185.111 160.509 184.487 160.941 184.175 161.409V165.645H183.275V159.849H184.175V160.689C184.427 160.317 185.195 159.705 186.059 159.705C186.935 159.705 187.439 160.185 187.607 160.785C187.931 160.257 188.711 159.705 189.551 159.705C190.607 159.705 191.171 160.293 191.171 161.457V165.645ZM200.862 165.645H199.962V161.709C199.962 160.977 199.65 160.509 198.894 160.509C198.294 160.509 197.658 160.929 197.358 161.397V165.645H196.458V161.709C196.458 160.977 196.158 160.509 195.39 160.509C194.802 160.509 194.178 160.941 193.866 161.409V165.645H192.966V159.849H193.866V160.689C194.118 160.317 194.886 159.705 195.75 159.705C196.626 159.705 197.13 160.185 197.298 160.785C197.622 160.257 198.402 159.705 199.242 159.705C200.298 159.705 200.862 160.293 200.862 161.457V165.645ZM207.47 165.645H206.57V164.829C206.126 165.333 205.37 165.789 204.506 165.789C203.294 165.789 202.658 165.189 202.658 163.941V159.849H203.558V163.665C203.558 164.685 204.074 164.985 204.866 164.985C205.562 164.985 206.234 164.577 206.57 164.109V159.849H207.47V165.645ZM214.079 165.645H213.191V161.853C213.191 160.821 212.663 160.509 211.883 160.509C211.175 160.509 210.515 160.941 210.167 161.409V165.645H209.267V159.849H210.167V160.689C210.575 160.197 211.367 159.705 212.243 159.705C213.443 159.705 214.079 160.317 214.079 161.577V165.645ZM216.344 159.021C216.008 159.021 215.732 158.757 215.732 158.421C215.732 158.085 216.008 157.809 216.344 157.809C216.68 157.809 216.944 158.085 216.944 158.421C216.944 158.757 216.68 159.021 216.344 159.021ZM216.788 165.645H215.888V159.849H216.788V165.645ZM220.06 165.789C219.196 165.789 218.764 165.297 218.764 164.433V160.641H217.804V159.849H218.764V158.265H219.676V159.849H220.852V160.641H219.676V164.241C219.676 164.673 219.868 164.985 220.252 164.985C220.516 164.985 220.744 164.865 220.864 164.733L221.128 165.417C220.9 165.633 220.576 165.789 220.06 165.789ZM221.799 167.913L221.931 167.097C222.063 167.157 222.279 167.193 222.423 167.193C222.819 167.193 223.083 167.061 223.287 166.581L223.671 165.705L221.247 159.849H222.231L224.151 164.601L226.083 159.849H227.055L224.151 166.821C223.803 167.661 223.215 167.985 222.447 167.997C222.255 167.997 221.955 167.961 221.799 167.913ZM233.871 165.645H231.135V157.641H233.871C236.367 157.641 237.975 159.381 237.975 161.649C237.975 163.929 236.367 165.645 233.871 165.645ZM233.871 164.757C235.815 164.757 236.943 163.365 236.943 161.649C236.943 159.921 235.851 158.529 233.871 158.529H232.131V164.757H233.871ZM242.13 165.789C240.402 165.789 239.166 164.553 239.166 162.741C239.166 161.061 240.366 159.705 242.022 159.705C243.774 159.705 244.806 161.073 244.806 162.813V163.041H240.126C240.198 164.133 240.954 165.045 242.202 165.045C242.874 165.045 243.534 164.781 244.002 164.301L244.434 164.889C243.846 165.465 243.066 165.789 242.13 165.789ZM243.918 162.369C243.906 161.517 243.33 160.449 242.01 160.449C240.774 160.449 240.162 161.493 240.114 162.369H243.918ZM247.163 165.645H246.263V157.641H247.163V165.645ZM251.587 165.789C249.859 165.789 248.623 164.553 248.623 162.741C248.623 161.061 249.823 159.705 251.479 159.705C253.231 159.705 254.263 161.073 254.263 162.813V163.041H249.583C249.655 164.133 250.411 165.045 251.659 165.045C252.331 165.045 252.991 164.781 253.459 164.301L253.891 164.889C253.303 165.465 252.523 165.789 251.587 165.789ZM253.375 162.369C253.363 161.517 252.787 160.449 251.467 160.449C250.231 160.449 249.619 161.493 249.571 162.369H253.375ZM258.048 167.997C257.076 167.997 256.404 167.805 255.708 167.121L256.164 166.473C256.644 167.037 257.22 167.253 258.048 167.253C259.008 167.253 259.92 166.785 259.92 165.561V164.685C259.488 165.273 258.78 165.717 257.964 165.717C256.452 165.717 255.384 164.589 255.384 162.717C255.384 160.857 256.44 159.705 257.964 159.705C258.744 159.705 259.452 160.089 259.92 160.725V159.849H260.82V165.561C260.82 167.397 259.464 167.997 258.048 167.997ZM258.192 164.913C258.9 164.913 259.596 164.481 259.92 163.977V161.433C259.596 160.941 258.9 160.509 258.192 160.509C257.016 160.509 256.32 161.433 256.32 162.717C256.32 163.989 257.016 164.913 258.192 164.913ZM267.147 165.645H266.247V164.985C265.779 165.513 265.107 165.789 264.327 165.789C263.355 165.789 262.311 165.129 262.311 163.869C262.311 162.561 263.343 161.961 264.327 161.961C265.119 161.961 265.779 162.213 266.247 162.741V161.697C266.247 160.929 265.623 160.485 264.783 160.485C264.087 160.485 263.523 160.725 263.007 161.289L262.587 160.665C263.211 160.017 263.955 159.705 264.903 159.705C266.139 159.705 267.147 160.257 267.147 161.661V165.645ZM264.663 165.141C265.287 165.141 265.899 164.901 266.247 164.421V163.317C265.899 162.849 265.287 162.609 264.663 162.609C263.811 162.609 263.223 163.137 263.223 163.869C263.223 164.613 263.811 165.141 264.663 165.141ZM270.439 165.789C269.575 165.789 269.143 165.297 269.143 164.433V160.641H268.183V159.849H269.143V158.265H270.055V159.849H271.23V160.641H270.055V164.241C270.055 164.673 270.247 164.985 270.631 164.985C270.895 164.985 271.123 164.865 271.243 164.733L271.507 165.417C271.279 165.633 270.955 165.789 270.439 165.789ZM275.118 165.789C273.39 165.789 272.154 164.553 272.154 162.741C272.154 161.061 273.354 159.705 275.01 159.705C276.762 159.705 277.794 161.073 277.794 162.813V163.041H273.114C273.186 164.133 273.942 165.045 275.19 165.045C275.862 165.045 276.522 164.781 276.99 164.301L277.422 164.889C276.834 165.465 276.054 165.789 275.118 165.789ZM276.906 162.369C276.894 161.517 276.318 160.449 274.998 160.449C273.762 160.449 273.15 161.493 273.102 162.369H276.906ZM281.1 165.789C280.14 165.789 279.348 165.489 278.76 164.877L279.216 164.229C279.6 164.673 280.332 165.057 281.124 165.057C282.012 165.057 282.504 164.637 282.504 164.061C282.504 162.657 278.916 163.521 278.916 161.373C278.916 160.461 279.684 159.705 281.064 159.705C282.06 159.705 282.756 160.077 283.212 160.545L282.792 161.169C282.444 160.749 281.82 160.437 281.064 160.437C280.272 160.437 279.78 160.833 279.78 161.349C279.78 162.609 283.368 161.781 283.368 164.037C283.368 165.009 282.588 165.789 281.1 165.789Z" fill="white"/>
<path d="M180.034 140.822H176.342V137.234H168.048V134.322L174.938 123.48H180.034V133.984H182.27V137.234H180.034V140.822ZM176.342 133.984V126.756L171.662 133.984H176.342ZM188.502 139.548C188.502 141.498 187.41 143.24 185.824 144.384L184.394 143.214C185.226 142.772 186.188 141.68 186.396 140.77C186.318 140.796 186.084 140.848 185.902 140.848C184.914 140.848 184.134 140.094 184.134 138.976C184.134 137.832 185.07 136.896 186.162 136.896C187.384 136.896 188.502 137.858 188.502 139.548ZM202.2 140.822H198.508V137.234H190.214V134.322L197.104 123.48H202.2V133.984H204.436V137.234H202.2V140.822ZM198.508 133.984V126.756L193.828 133.984H198.508ZM213.138 141.134C208.172 141.134 205.962 136.636 205.962 132.164C205.962 127.692 208.172 123.22 213.138 123.22C218.078 123.22 220.314 127.692 220.314 132.164C220.314 136.636 218.078 141.134 213.138 141.134ZM213.138 137.858C215.608 137.858 216.544 135.362 216.544 132.164C216.544 128.966 215.608 126.496 213.138 126.496C210.642 126.496 209.706 128.966 209.706 132.164C209.706 135.362 210.642 137.858 213.138 137.858ZM229.261 141.134C224.295 141.134 222.085 136.636 222.085 132.164C222.085 127.692 224.295 123.22 229.261 123.22C234.201 123.22 236.437 127.692 236.437 132.164C236.437 136.636 234.201 141.134 229.261 141.134ZM229.261 137.858C231.731 137.858 232.667 135.362 232.667 132.164C232.667 128.966 231.731 126.496 229.261 126.496C226.765 126.496 225.829 128.966 225.829 132.164C225.829 135.362 226.765 137.858 229.261 137.858ZM249.674 133.074H245.02V138.352H242.758V133.074H238.078V131.02H242.758V125.95H245.02V131.02H249.674V133.074Z" fill="#BAFD02"/>
</g>
<g clip-path="url(#clip2_6_99)">
<rect x="13.5" y="259.5" width="166.211" height="79.3114" rx="9.5" fill="url(#paint3_linear_6_99)" stroke="#363D3E"/>
<path opacity="0.598583" d="M33.1864 321.645H32.0464L31.3384 319.857H27.3544L26.6464 321.645H25.5064L28.7344 313.641H29.9704L33.1864 321.645ZM31.0504 318.981L29.3464 314.661L27.6544 318.981H31.0504ZM35.0969 321.645H34.1969V313.641H35.0969V321.645ZM37.7922 321.645H36.8922V313.641H37.7922V321.645ZM45.705 321.645H44.709V314.529H42.177V313.641H48.249V314.529H45.705V321.645ZM49.9927 315.021C49.6567 315.021 49.3807 314.757 49.3807 314.421C49.3807 314.085 49.6567 313.809 49.9927 313.809C50.3287 313.809 50.5927 314.085 50.5927 314.421C50.5927 314.757 50.3287 315.021 49.9927 315.021ZM50.4367 321.645H49.5367V315.849H50.4367V321.645ZM60.128 321.645H59.228V317.709C59.228 316.977 58.916 316.509 58.16 316.509C57.56 316.509 56.924 316.929 56.624 317.397V321.645H55.724V317.709C55.724 316.977 55.424 316.509 54.656 316.509C54.068 316.509 53.444 316.941 53.132 317.409V321.645H52.232V315.849H53.132V316.689C53.384 316.317 54.152 315.705 55.016 315.705C55.892 315.705 56.396 316.185 56.564 316.785C56.888 316.257 57.668 315.705 58.508 315.705C59.564 315.705 60.128 316.293 60.128 317.457V321.645ZM64.5514 321.789C62.8234 321.789 61.5874 320.553 61.5874 318.741C61.5874 317.061 62.7874 315.705 64.4434 315.705C66.1954 315.705 67.2274 317.073 67.2274 318.813V319.041H62.5474C62.6194 320.133 63.3754 321.045 64.6234 321.045C65.2954 321.045 65.9554 320.781 66.4234 320.301L66.8554 320.889C66.2674 321.465 65.4874 321.789 64.5514 321.789ZM66.3394 318.369C66.3274 317.517 65.7514 316.449 64.4314 316.449C63.1954 316.449 62.5834 317.493 62.5354 318.369H66.3394ZM74.8026 321.645H73.8066V314.529H71.2746V313.641H77.3466V314.529H74.8026V321.645ZM78.5148 321.645H77.6148V315.849H78.5148V316.773C78.9828 316.173 79.6548 315.717 80.4468 315.717V316.641C80.3388 316.629 80.2308 316.617 80.0988 316.617C79.5348 316.617 78.7788 317.073 78.5148 317.541V321.645ZM86.0998 321.645H85.1998V320.985C84.7318 321.513 84.0598 321.789 83.2798 321.789C82.3078 321.789 81.2638 321.129 81.2638 319.869C81.2638 318.561 82.2958 317.961 83.2798 317.961C84.0718 317.961 84.7318 318.213 85.1998 318.741V317.697C85.1998 316.929 84.5758 316.485 83.7358 316.485C83.0398 316.485 82.4758 316.725 81.9598 317.289L81.5398 316.665C82.1638 316.017 82.9078 315.705 83.8558 315.705C85.0918 315.705 86.0998 316.257 86.0998 317.661V321.645ZM83.6158 321.141C84.2398 321.141 84.8518 320.901 85.1998 320.421V319.317C84.8518 318.849 84.2398 318.609 83.6158 318.609C82.7638 318.609 82.1758 319.137 82.1758 319.869C82.1758 320.613 82.7638 321.141 83.6158 321.141ZM93.0156 321.645H92.1156V320.781C91.6836 321.369 90.9756 321.789 90.1596 321.789C88.6476 321.789 87.5796 320.637 87.5796 318.753C87.5796 316.893 88.6476 315.705 90.1596 315.705C90.9396 315.705 91.6476 316.089 92.1156 316.725V313.641H93.0156V321.645ZM90.3876 320.985C91.0956 320.985 91.8036 320.565 92.1156 320.061V317.445C91.8036 316.941 91.0956 316.509 90.3876 316.509C89.2116 316.509 88.5156 317.469 88.5156 318.753C88.5156 320.037 89.2116 320.985 90.3876 320.985ZM97.446 321.789C95.718 321.789 94.482 320.553 94.482 318.741C94.482 317.061 95.682 315.705 97.338 315.705C99.09 315.705 100.122 317.073 100.122 318.813V319.041H95.442C95.514 320.133 96.27 321.045 97.518 321.045C98.19 321.045 98.85 320.781 99.318 320.301L99.75 320.889C99.162 321.465 98.382 321.789 97.446 321.789ZM99.234 318.369C99.222 317.517 98.646 316.449 97.326 316.449C96.09 316.449 95.478 317.493 95.43 318.369H99.234ZM103.428 321.789C102.468 321.789 101.676 321.489 101.088 320.877L101.544 320.229C101.928 320.673 102.66 321.057 103.452 321.057C104.34 321.057 104.832 320.637 104.832 320.061C104.832 318.657 101.244 319.521 101.244 317.373C101.244 316.461 102.012 315.705 103.392 315.705C104.388 315.705 105.084 316.077 105.54 316.545L105.12 317.169C104.772 316.749 104.148 316.437 103.392 316.437C102.6 316.437 102.108 316.833 102.108 317.349C102.108 318.609 105.696 317.781 105.696 320.037C105.696 321.009 104.916 321.789 103.428 321.789Z" fill="white"/>
<path d="M34.3684 296.822H30.6764V284.238L27.7904 287.176L25.6844 284.966L31.1444 279.48H34.3684V296.822ZM48.7239 296.822H45.0319V293.234H36.7379V290.322L43.6279 279.48H48.7239V289.984H50.9599V293.234H48.7239V296.822ZM45.0319 289.984V282.756L40.3519 289.984H45.0319ZM59.6616 297.134C54.6956 297.134 52.4856 292.636 52.4856 288.164C52.4856 283.692 54.6956 279.22 59.6616 279.22C64.6016 279.22 66.8376 283.692 66.8376 288.164C66.8376 292.636 64.6016 297.134 59.6616 297.134ZM59.6616 293.858C62.1316 293.858 63.0676 291.362 63.0676 288.164C63.0676 284.966 62.1316 282.496 59.6616 282.496C57.1656 282.496 56.2296 284.966 56.2296 288.164C56.2296 291.362 57.1656 293.858 59.6616 293.858ZM88.2386 296.822H84.5206V284.68L79.6326 296.822H78.0206L73.1326 284.68V296.822H69.4406V279.48H74.6146L78.8266 289.958L83.0386 279.48H88.2386V296.822ZM102.317 289.074H97.6628V294.352H95.4008V289.074H90.7208V287.02H95.4008V281.95H97.6628V287.02H102.317V289.074Z" fill="#BAFD02"/>
</g>
<defs>
<linearGradient id="paint0_linear_6_99" x1="0" y1="142" x2="0" y2="204" gradientUnits="userSpaceOnUse">
<stop stop-color="#2A2F2D"/>
<stop offset="1" stop-color="#202426"/>
</linearGradient>
<linearGradient id="paint1_linear_6_99" x1="147.469" y1="0.576172" x2="147.469" y2="80.7176" gradientUnits="userSpaceOnUse">
<stop stop-color="#2A2F2D"/>
<stop offset="1" stop-color="#202426"/>
</linearGradient>
<linearGradient id="paint2_linear_6_99" x1="155.391" y1="102.826" x2="155.391" y2="182.134" gradientUnits="userSpaceOnUse">
<stop stop-color="#2A2F2D"/>
<stop offset="1" stop-color="#202426"/>
</linearGradient>
<linearGradient id="paint3_linear_6_99" x1="13" y1="259" x2="13" y2="339.311" gradientUnits="userSpaceOnUse">
<stop stop-color="#2A2F2D"/>
<stop offset="1" stop-color="#202426"/>
</linearGradient>
<clipPath id="clip0_6_99">
<rect width="129" height="62" fill="white" transform="translate(0 142)"/>
</clipPath>
<clipPath id="clip1_6_99">
<rect width="167" height="79" fill="white" transform="translate(155 103)"/>
</clipPath>
<clipPath id="clip2_6_99">
<rect width="167" height="80" fill="white" transform="translate(13 259)"/>
</clipPath>
</defs>
</svg>
