<svg width="21" height="19" viewBox="0 0 21 19" fill="none" xmlns="http://www.w3.org/2000/svg">
<path d="M18.3735 3.35975C18.2655 1.96627 17.0973 0.865234 15.6758 0.865234H3.01149C1.51895 0.865234 0.304688 2.07878 0.304688 3.57044V16.0868C0.304688 17.5784 1.51895 18.792 3.01149 18.792H17.6419C19.1344 18.792 20.3487 17.5784 20.3487 16.0868V5.96369C20.3487 4.72546 19.5116 3.67963 18.3735 3.35975ZM3.01149 2.12898H15.6758C16.3639 2.12898 16.9406 2.61319 17.0837 3.25853H3.01149C2.48155 3.25853 1.98709 3.41211 1.56918 3.67623V3.57044C1.56918 2.77562 2.2162 2.12898 3.01149 2.12898ZM17.6419 17.5282H3.01149C2.2162 17.5282 1.56918 16.8816 1.56918 16.0868V5.96369C1.56918 5.16887 2.2162 4.52223 3.01149 4.52223H17.6419C18.4372 4.52223 19.0842 5.16887 19.0842 5.96369V8.16884H15.0526C13.455 8.16884 12.1553 9.46785 12.1553 11.0645C12.1553 12.6612 13.4551 13.9602 15.0526 13.9602H19.0842V16.0868C19.0842 16.8816 18.4372 17.5282 17.6419 17.5282ZM19.0842 12.6964H15.0526C14.1523 12.6964 13.4198 11.9644 13.4198 11.0645C13.4198 10.1646 14.1523 9.43259 15.0526 9.43259H19.0842V12.6964Z" fill="black"/>
</svg>
