<svg width="50" height="50" viewBox="0 0 50 50" fill="none" xmlns="http://www.w3.org/2000/svg">
<g id="Group 5513">
<path id="Vector" d="M25 50C38.8071 50 50 38.8071 50 25C50 11.1929 38.8071 0 25 0C11.1929 0 0 11.1929 0 25C0 38.8071 11.1929 50 25 50Z" fill="#D9ECFF"/>
<path id="Vector_2" fill-rule="evenodd" clip-rule="evenodd" d="M24.9997 20.7699C22.3909 20.7699 20.3799 22.2457 19.2588 23.2793C19.0918 23.4333 18.8329 23.4334 18.6709 23.2743L16.9112 21.5461C16.7449 21.3828 16.7434 21.1153 16.9138 20.9563C18.2547 19.7048 21.082 17.5 24.9997 17.5C28.9174 17.5 31.7447 19.7048 33.0856 20.9563C33.256 21.1153 33.2545 21.3828 33.0882 21.5461L31.3285 23.2743C31.1664 23.4334 30.9076 23.4333 30.7406 23.2793C29.6195 22.2457 27.6085 20.7699 24.9997 20.7699ZM11.9817 26.6188C11.8084 26.4629 11.7968 26.1953 11.9559 26.0249L13.637 24.2238C13.792 24.0577 14.0515 24.0464 14.2204 24.1984L19.1844 28.6673C19.3419 28.809 19.5805 28.8101 19.7392 28.6698L24.7238 24.2641C24.8814 24.1247 25.118 24.1247 25.2756 24.2641L30.2602 28.6698C30.4189 28.8101 30.6575 28.809 30.8149 28.6673L35.779 24.1984C35.9479 24.0464 36.2074 24.0577 36.3624 24.2238L38.0435 26.0249C38.2026 26.1953 38.1909 26.4629 38.0177 26.6188L30.8354 33.0847C30.6781 33.2263 30.4394 33.2274 30.2808 33.0872L25.2756 28.6633C25.118 28.524 24.8814 28.524 24.7238 28.6633L19.7186 33.0872C19.5599 33.2274 19.3213 33.2263 19.1639 33.0847L11.9817 26.6188Z" fill="#278FFC"/>
</g>
</svg>
