<svg width="50" height="50" viewBox="0 0 50 50" fill="none" xmlns="http://www.w3.org/2000/svg">
<g id="Group 5514">
<path id="Vector" d="M25 50C38.8071 50 50 38.8071 50 25C50 11.1929 38.8071 0 25 0C11.1929 0 0 11.1929 0 25C0 38.8071 11.1929 50 25 50Z" fill="#EBF5FF"/>
<path id="Vector_2" fill-rule="evenodd" clip-rule="evenodd" d="M35.3017 14.6782C35.669 14.6782 36.0167 14.828 36.2726 15.082C36.5283 15.3424 36.6727 15.694 36.6661 16.052C36.6006 19.9325 36.4496 22.9014 36.1676 25.2517C35.8921 27.6022 35.4788 29.3471 34.8557 30.76C34.4358 31.704 33.9176 32.4853 33.3075 33.1494C32.4876 34.0284 31.5496 34.6665 30.5262 35.272C30.0887 35.5317 29.6338 35.7881 29.1567 36.0571C28.1386 36.6309 27.0192 37.2618 25.7507 38.1042C25.2916 38.4102 24.6947 38.4102 24.2355 38.1042C22.9475 37.252 21.8133 36.6132 20.786 36.0347C20.5575 35.9062 20.3343 35.7805 20.1159 35.6562C18.9156 34.966 17.8332 34.3083 16.8886 33.3577C16.2589 32.7327 15.7144 31.9709 15.2815 31.0659C14.6911 29.8549 14.2909 28.39 13.9957 26.4954C13.6022 23.9627 13.4054 20.6487 13.3332 16.052C13.3266 15.694 13.4644 15.3424 13.7202 15.082C13.9761 14.828 14.3303 14.6782 14.6977 14.6782H15.2618C17.0001 14.6848 20.8375 14.5155 24.1567 11.9502C24.6487 11.5726 25.3376 11.5726 25.8295 11.9502C29.1487 14.5155 32.9862 14.6848 34.7311 14.6782H35.3017ZM32.2515 29.8941C32.6778 29.0215 33.0321 27.8171 33.301 26.0852C33.6224 24.0147 33.8192 21.2021 33.9111 17.3737C31.8644 17.3151 28.3484 16.9245 24.9964 14.6848C21.6444 16.9179 18.1284 17.3087 16.0883 17.3737C16.1604 20.538 16.3047 22.9991 16.5343 24.9328C16.7967 27.1335 17.1707 28.6245 17.6363 29.6727C17.9447 30.3693 18.2858 30.8707 18.6925 31.3133C19.237 31.9059 19.9257 32.3942 20.8637 32.9541C21.2529 33.1858 21.6819 33.4268 22.1489 33.6892C22.9809 34.1566 23.9335 34.6917 24.9964 35.3632C26.0397 34.7027 26.9786 34.1731 27.8009 33.7091C28.0488 33.5692 28.286 33.4354 28.5124 33.3057C29.6669 32.6481 30.5197 32.1012 31.1559 31.4632C31.5824 31.0269 31.9301 30.5517 32.2515 29.8941Z" fill="#3375BB"/>
</g>
</svg>
