<svg width="50" height="50" viewBox="0 0 50 50" fill="none" xmlns="http://www.w3.org/2000/svg">
<g id="Group 5511">
<path id="Vector" d="M25 50C38.8071 50 50 38.8071 50 25C50 11.1929 38.8071 0 25 0C11.1929 0 0 11.1929 0 25C0 38.8071 11.1929 50 25 50Z" fill="#C4D4FF"/>
<path id="Vector_2" d="M38.3337 25.0003C38.3337 17.6365 32.3641 11.667 25.0003 11.667C17.6365 11.667 11.667 17.6365 11.667 25.0003C11.667 32.3641 17.6365 38.3337 25.0003 38.3337C32.3641 38.3337 38.3337 32.3641 38.3337 25.0003Z" fill="url(#paint0_linear_2_10)"/>
<path id="Vector_3" d="M32.5 25C32.5 20.8579 29.1421 17.5 25 17.5C20.8579 17.5 17.5 20.8579 17.5 25C17.5 29.1421 20.8579 32.5 25 32.5C29.1421 32.5 32.5 29.1421 32.5 25Z" fill="white"/>
<path id="Vector_4" d="M26.6667 22.5H23.3333C22.8731 22.5 22.5 22.8731 22.5 23.3333V26.6667C22.5 27.1269 22.8731 27.5 23.3333 27.5H26.6667C27.1269 27.5 27.5 27.1269 27.5 26.6667V23.3333C27.5 22.8731 27.1269 22.5 26.6667 22.5Z" fill="url(#paint1_linear_2_10)"/>
</g>
<defs>
<linearGradient id="paint0_linear_2_10" x1="25.0003" y1="11.667" x2="25.0003" y2="38.3337" gradientUnits="userSpaceOnUse">
<stop stop-color="#2D66F5"/>
<stop offset="1" stop-color="#144ADF"/>
</linearGradient>
<linearGradient id="paint1_linear_2_10" x1="25" y1="22.5" x2="25" y2="27.5" gradientUnits="userSpaceOnUse">
<stop stop-color="#2D66F5"/>
<stop offset="1" stop-color="#144ADF"/>
</linearGradient>
</defs>
</svg>
