<svg width="50" height="50" viewBox="0 0 50 50" fill="none" xmlns="http://www.w3.org/2000/svg">
<g id="Group 5508">
<g id="Clip path group">
<mask id="mask0_2_75" style="mask-type:luminance" maskUnits="userSpaceOnUse" x="0" y="0" width="50" height="50">
<g id="clip0">
<path id="Vector" d="M50 25C50 11.1929 38.8071 0 25 0C11.1929 0 0 11.1929 0 25C0 38.8071 11.1929 50 25 50C38.8071 50 50 38.8071 50 25Z" fill="white"/>
</g>
</mask>
<g mask="url(#mask0_2_75)">
<g id="Group">
<path id="Vector_2" d="M50 0.000976562H0V50.001H50V0.000976562Z" fill="#0E131D"/>
<path id="Vector_3" d="M18.043 27.4336L19.6055 15.666L6.03125 6.24219L18.4336 10.4414L21.3633 5.94922L32.0567 -0.691406L55.6407 12.2969L56.8613 32.1211L46.3633 46.7207L38.0625 47.9902L42.3594 40.1289V32.5606L39.2344 26.6523L36.0606 24.5527L31.1778 29.5821V34.9043L27.3692 38.4687L22.5352 39.0547L20.3868 40.2754L16.8711 39.1523L15.4063 33.8789L18.043 30.168V27.4336Z" fill="white"/>
<path id="Vector_4" d="M39.7224 6.14439C37.1346 5.60728 34.3025 5.75376 34.3025 5.75376C34.3025 5.75376 33.3749 10.0507 27.6131 11.1737C27.6619 11.1737 35.2303 13.7616 39.7224 6.14439Z" fill="#94A6C3"/>
<path id="Vector_5" d="M42.0664 45.1094C45.1914 42.668 47.5351 39.2989 48.6094 35.4903C48.6582 35.3438 49.0976 35.0996 49.3906 34.9044C49.8789 34.6114 50.3671 34.3672 50.4648 33.9766C50.6601 32.8535 50.7578 31.6817 50.7578 30.5098C50.7578 30.0704 50.3184 29.6309 49.8789 29.1914C49.5371 28.8984 49.1953 28.5567 49.1953 28.3125C48.7071 23.8692 46.6562 19.7188 43.3847 16.6914L43.043 17.0332C46.2168 20.0118 48.2676 24.0644 48.7071 28.3614C48.7559 28.7519 49.1465 29.1426 49.5371 29.5332C49.8789 29.8262 50.2696 30.2657 50.2696 30.4609C50.2696 31.584 50.1719 32.707 49.9766 33.8301C49.9277 34.0254 49.4883 34.2207 49.1465 34.416C48.6582 34.6602 48.2187 34.9044 48.1211 35.2949C46.9492 39.4454 44.2636 43.0586 40.6992 45.4024C41.334 44.0352 43.3359 39.5919 44.4101 37.3457L44.2148 30.1192L38.0136 24.1133L34.4981 24.6016L30.6406 30.8516C30.6406 30.8516 32.4472 33.1465 29.9082 35.832C27.418 38.4688 25.4648 39.0547 25.4648 39.0547L23.6582 38.0782C24.1953 37.3945 25.2695 36.3692 26.0996 35.6856C27.5156 34.5137 28.9316 34.416 28.9316 33.1465C28.9805 30.5098 26.1484 31.2422 26.1484 31.2422L25.1231 32.2188L24.6836 35.832L22.5351 38.5176L22.291 38.4688L18.7754 37.6875C18.7754 37.6875 20.9238 36.5644 21.2656 35.2949C21.6074 34.0743 20.582 30.0215 20.5332 29.7774C20.582 29.8262 21.5586 30.6563 21.9981 32.0234C22.7793 29.875 23.8046 27.8243 24.0976 27.6289C24.3906 27.4336 28.3457 25.334 28.3457 25.334L27.0273 28.8008L28.0039 28.2637L30.3476 22.5019C30.3476 22.5019 32.6426 21.3789 34.3516 21.3789C37.4277 21.3301 41.9687 17.5704 39.918 10.832C40.5039 11.0762 50.6601 16.1544 52.418 26.1153C53.7363 33.7813 49.3906 40.959 42.0664 45.1094Z" fill="#94A6C3"/>
<path id="Vector_6" d="M30.4457 7.21875C31.5688 5.90039 31.1293 3.94727 31.1293 3.94727L27.8579 8.78128C27.809 8.78128 29.0297 8.83012 30.4457 7.21875Z" fill="#233B58"/>
<path id="Vector_7" d="M19.4592 33.6348L19.8498 31.6816C19.8498 31.6816 18.2385 34.5137 18.092 34.9043C17.9455 35.3438 18.1897 36.1251 18.8244 36.0762C19.4592 36.0274 20.2404 35.0996 20.2404 34.4161C20.2404 33.5371 19.4592 33.6348 19.4592 33.6348Z" fill="#233B58"/>
<path id="Vector_8" d="M48.4629 2.57984C48.4629 2.57984 50.9043 2.6775 53.4434 2.97046C47.7305 -1.52172 42.3106 -2.84009 37.916 -2.84009C31.8613 -2.84009 27.7598 -0.349849 27.5157 -0.203364L29.4199 -3.23071C29.4199 -3.23071 21.8028 -3.96313 19.1172 4.09351C18.4336 2.38453 17.7988 -0.105708 17.7988 -0.105708C17.7988 -0.105708 13.8438 3.36109 15.6993 9.12282C11.1582 7.46265 4.66407 5.16773 4.41993 5.1189C4.07813 5.07007 3.98047 5.21656 3.98047 5.21656C3.98047 5.21656 3.88281 5.36304 4.17579 5.60718C4.71289 6.04664 14.9668 13.615 17.2129 15.0798C16.7246 16.8377 16.7246 17.6677 17.2129 18.4978C17.8965 19.6208 17.9453 20.2068 17.8477 21.0369C17.75 21.8669 16.8711 29.0447 16.6758 29.9236C16.4805 30.8025 14.4297 33.9275 14.5273 34.8552C14.625 35.783 15.8945 39.7381 17.0176 40.1775C17.8477 40.4705 19.8984 41.1052 21.2657 41.1052C21.7539 41.1052 22.1933 41.0076 22.3887 40.8122C23.2188 40.0798 23.4629 39.9333 24.0488 39.9333C24.0977 39.9333 24.1465 39.9333 24.1953 39.9333C24.4395 39.9333 24.7324 39.9822 25.0743 39.9822C25.8555 39.9822 26.8808 39.8357 27.6133 39.1521C28.6875 38.0779 30.543 36.6131 31.1289 35.9294C31.8613 35.0017 32.252 33.7322 32.0567 32.4627C31.9102 31.2907 32.5449 30.2654 33.2773 29.24C34.2051 28.0193 35.9141 25.822 35.9141 25.822C39.2833 28.3611 41.3828 32.2185 41.3828 36.5154C41.3828 44.1326 34.7422 50.2849 26.5391 50.2849C25.2696 50.2849 24.0488 50.1384 22.8282 49.8455C26.5879 51.1638 29.7618 51.6032 32.3496 51.6032C37.8672 51.6032 40.7969 49.6013 40.7969 49.6013C40.7969 49.6013 39.7715 50.9197 38.1113 52.4333C38.1602 52.4333 38.1602 52.4333 38.1602 52.4333C47.291 51.1638 51.7344 43.6443 51.7344 43.6443C51.7344 43.6443 51.3926 46.0857 50.9532 47.7458C63.1113 38.615 61.0606 27.1892 61.0118 26.7986C61.1094 26.9451 62.3301 28.4099 62.9648 29.1912C64.918 9.07399 48.4629 2.57984 48.4629 2.57984ZM29.7618 34.7087C29.5664 34.9529 28.7363 35.6853 28.1504 36.2224C27.5645 36.7595 26.9297 37.2967 26.4414 37.7849C26.2461 37.9802 25.8555 38.0779 25.2695 38.0779C25.0743 38.0779 24.8789 38.0779 24.7324 38.0779C24.6348 38.0779 24.5371 38.0779 24.4395 38.0779C24.3418 38.0779 24.293 38.0779 24.2442 38.0779C24.0977 38.0779 23.9512 38.0779 23.8047 38.0779C24.5371 37.1013 26.6856 34.8552 27.418 34.3669C28.2969 33.781 28.7363 33.1951 28.1993 32.1697C27.6621 31.1443 26.2461 31.3884 26.2461 31.3884C26.2461 31.3884 27.0762 31.0467 27.8086 31.0467C26.8808 30.8025 25.709 31.0467 25.1719 31.5837C24.5859 32.1208 24.6836 34.0252 24.4395 35.2458C24.1953 36.5154 23.3653 37.1502 22.0958 38.322C21.4121 38.9568 20.9238 39.1521 20.5333 39.1521C19.7032 39.0056 18.7266 38.7615 18.043 38.5173C17.5547 37.8826 16.8223 35.783 16.6269 34.9041C16.7734 34.4157 17.3594 33.3904 17.6523 32.8044C18.2383 31.6814 18.5801 31.0467 18.6778 30.4607C18.8731 29.6307 19.5078 24.5037 19.752 22.3552C20.3868 23.1853 21.2657 24.5525 21.0703 25.4314C22.4863 23.4294 21.4609 21.4763 20.9727 20.6951C20.5333 19.9138 19.9473 18.3513 20.4356 16.6912C20.9238 15.031 22.6817 10.4412 22.6817 10.4412C22.6817 10.4412 23.2676 11.4666 24.0977 11.2712C24.9278 11.0759 31.6172 1.01734 31.6172 1.01734C31.6172 1.01734 33.4238 4.97241 31.5196 7.85327C29.5664 10.7342 27.6621 11.2712 27.6621 11.2712C27.6621 11.2712 30.3477 11.7595 32.8379 9.95291C33.8633 12.3455 34.8398 14.8357 34.8887 15.1775C34.7422 15.5193 32.7891 20.2068 32.5938 20.4997C32.4961 20.5974 31.8125 20.7927 31.3243 20.8904C30.4942 21.1345 30.0058 21.281 29.8106 21.4275C29.4688 21.7205 27.9063 26.0173 27.1738 28.1169C26.2949 28.3611 25.416 28.8493 24.7813 29.8259C25.1231 29.5818 26.1973 29.4353 26.9785 29.3377C27.6621 29.2888 29.7618 30.4118 30.2988 32.5115C30.2988 32.5603 30.2988 32.5603 30.2988 32.6092C30.3965 33.3904 30.1523 34.1228 29.7618 34.7087ZM25.1719 35.2947C25.6113 34.6599 25.5625 33.5857 25.6113 33.2439C25.6602 32.9021 25.7578 32.2673 26.1484 32.1697C26.5391 32.072 27.4668 32.2185 27.4668 32.9021C27.4668 33.5368 26.7833 33.6833 26.2949 34.1228C25.9532 34.4646 25.2696 35.197 25.1719 35.2947ZM44.6543 25.9685C45.1426 23.4782 45.1914 21.3298 45.0449 19.572C46.9493 22.1111 48.1211 25.1872 48.4629 28.3611C48.5118 28.7517 48.9023 29.1423 49.293 29.533C49.6348 29.8259 50.0254 30.2166 50.0254 30.4607C50.0254 31.5837 49.9278 32.7068 49.7324 33.8298C49.6836 33.9763 49.2442 34.2205 48.9023 34.4157C48.4141 34.6599 47.9747 34.9041 47.877 35.2947C46.8028 39.0544 44.5078 42.3747 41.4317 44.7185C45.9727 39.9822 48.1699 32.1697 44.6543 25.9685ZM41.5782 45.158C44.752 42.7166 47.1933 39.2986 48.2676 35.4412C48.3164 35.2947 48.7559 35.0506 49.0488 34.8552C49.5372 34.6111 50.0254 34.3181 50.1231 33.9275C50.3184 32.8044 50.416 31.6326 50.416 30.4607C50.416 30.0212 49.9766 29.5818 49.5372 29.1423C49.293 28.8494 48.9023 28.5076 48.9023 28.2634C48.5118 24.699 47.0958 21.3298 44.8984 18.5467C43.9219 12.6872 40.0157 10.8807 39.918 10.8318C40.0157 10.9782 42.5547 14.6404 40.7969 18.9372C38.9903 23.283 34.3516 22.5994 33.9609 22.6482C33.5703 22.6482 32.0567 24.6013 30.1523 28.2146C29.9083 28.1169 28.8828 27.8728 27.7109 28.0681C28.5898 25.6267 29.9083 22.1599 30.1523 21.8669C30.25 21.7693 30.9824 21.574 31.4708 21.4275C32.3984 21.1833 32.8379 21.0369 32.9844 20.8416C33.0821 20.6951 33.5703 19.572 34.0586 18.4002C34.4981 18.4002 35.6211 18.3025 35.7188 18.2537C35.8164 18.156 36.7442 15.7634 36.7442 15.4705C36.7442 15.2263 34.8398 10.49 34.1074 8.68332C34.4493 8.29273 34.791 7.80445 35.1328 7.26734C45.1426 8.34157 52.9551 16.8377 52.9551 27.1404C52.9551 35.0506 48.3164 41.9353 41.5782 45.158Z" fill="#233B58"/>
<path id="Vector_9" d="M28.5897 18.791C29.5174 17.7168 29.0292 15.7148 27.3202 15.373C27.7596 14.3476 28.3944 12.2969 28.3944 12.2969C28.3944 12.2969 23.4139 20.1093 22.9744 20.2558C22.535 20.4023 22.0956 18.6933 22.0956 18.6933C21.1679 22.2578 23.6581 22.746 23.951 21.623C25.3182 21.2812 27.6619 19.8164 28.5897 18.791Z" fill="#233B58"/>
<path id="Vector_10" d="M24.3418 20.6953L26.8808 16.3496C26.8808 16.3496 28.3457 17.082 27.6132 18.2539C26.6855 19.621 24.3418 20.6953 24.3418 20.6953Z" fill="#FFD923"/>
<path id="Vector_11" d="M61.5975 25.2362C59.4002 19.328 56.2752 14.2987 49.3905 9.75769C42.7498 5.36318 35.6209 5.70498 35.2303 5.75381C35.1815 5.75381 35.1326 5.75381 35.1326 5.75381C35.3768 5.65616 35.6209 5.60732 35.8651 5.5585C37.3787 5.07021 39.3319 4.67959 41.285 4.43545C46.4608 3.70303 51.6854 5.46084 55.2498 9.22061C55.2986 9.26944 55.2986 9.26944 55.3475 9.31827C59.4002 13.6151 61.4998 18.9862 61.5975 25.2362Z" fill="#D82122"/>
<path id="Vector_12" d="M47.8282 1.06641C40.5528 -0.300778 35.8652 0.382815 32.4961 1.65235C32.3985 1.26172 32.0567 0.480471 31.7637 -0.154294C30.7383 1.06641 29.6641 2.53126 28.9805 3.45899C27.125 4.72851 26.3438 5.94922 26.3438 5.94922C27.418 2.28711 30.543 -0.447263 34.3516 -1.13085C35.4258 -1.32617 36.5977 -1.42383 37.8672 -1.42383C41.2363 -1.37499 44.6055 -0.544919 47.8282 1.06641Z" fill="#D82122"/>
<path id="Vector_13" d="M20.9238 10.4414C15.2108 10.2461 17.1151 3.60547 17.2128 3.21484C17.2128 3.26367 17.6034 8.43941 20.9238 10.4414Z" fill="#D82122"/>
<path id="Vector_14" d="M26.5393 -1.52148C22.1448 1.11523 23.0237 7.41406 23.0237 7.41406C18.8244 1.01757 26.1975 -1.375 26.5393 -1.52148Z" fill="#D82122"/>
<path id="Vector_15" d="M19.3125 12.1992C19.6055 12.4434 19.8984 12.8828 19.5567 13.5175C19.3613 13.8594 19.0683 13.8105 18.6289 13.6152C18.043 13.3222 14.5273 11.2715 11.3535 9.17188C14.9668 10.4414 18.6289 11.8085 19.2148 12.1015C19.2148 12.1015 19.2637 12.1504 19.3125 12.1992Z" fill="white"/>
<path id="Vector_16" d="M17.8711 0.92871L18.0664 -0.536133L23.6084 -0.804688L19.2627 5.25L17.8711 0.92871Z" fill="#233A58"/>
<path id="Vector_17" d="M49.1943 1.29492L47.4853 -1.56152H52.0751L51.9043 5.51855L47.2168 2.73535L49.1943 1.29492Z" fill="#233A58"/>
<path id="Vector_18" d="M39.3555 48.7559L35.1074 52.7597L50.0488 52.4912L53.4913 42.5303L39.3555 48.7559Z" fill="#233A58"/>
</g>
</g>
</g>
</g>
</svg>
