<svg width="18" height="13" viewBox="0 0 18 13" fill="none" xmlns="http://www.w3.org/2000/svg">
<path d="M0.735294 3.69542H2.74706C2.90488 4.27374 3.24939 4.78428 3.72745 5.14826C4.2055 5.51224 4.79053 5.70944 5.39228 5.70944C5.99403 5.70944 6.57906 5.51224 7.05711 5.14826C7.53517 4.78428 7.87968 4.27374 8.0375 3.69542H16.9118C17.1068 3.69542 17.2938 3.61827 17.4317 3.48094C17.5696 3.3436 17.6471 3.15734 17.6471 2.96312C17.6471 2.7689 17.5696 2.58264 17.4317 2.4453C17.2938 2.30797 17.1068 2.23082 16.9118 2.23082H8.0375C7.87968 1.6525 7.53517 1.14196 7.05711 0.77798C6.57906 0.413999 5.99403 0.216797 5.39228 0.216797C4.79053 0.216797 4.2055 0.413999 3.72745 0.77798C3.24939 1.14196 2.90488 1.6525 2.74706 2.23082H0.735294C0.540282 2.23082 0.353257 2.30797 0.215363 2.4453C0.0774683 2.58264 0 2.7689 0 2.96312C0 3.15734 0.0774683 3.3436 0.215363 3.48094C0.353257 3.61827 0.540282 3.69542 0.735294 3.69542ZM5.39191 1.68159C5.64641 1.68159 5.89519 1.75675 6.1068 1.89757C6.31841 2.03838 6.48333 2.23853 6.58073 2.4727C6.67812 2.70687 6.7036 2.96454 6.65395 3.21313C6.6043 3.46173 6.48175 3.69007 6.30179 3.8693C6.12183 4.04852 5.89255 4.17058 5.64295 4.22002C5.39334 4.26947 5.13461 4.24409 4.89949 4.1471C4.66436 4.0501 4.4634 3.88585 4.32201 3.6751C4.18061 3.46435 4.10515 3.21658 4.10515 2.96312C4.10554 2.62336 4.24123 2.29762 4.48246 2.05737C4.72369 1.81712 5.05076 1.68198 5.39191 1.68159Z" fill="white"/>
<path d="M16.9118 9.15145H14.9C14.7424 8.573 14.3981 8.06228 13.9201 7.69815C13.442 7.33401 12.857 7.13672 12.2551 7.13672C11.6533 7.13672 11.0683 7.33401 10.5902 7.69815C10.1122 8.06228 9.76785 8.573 9.61029 9.15145H0.735294C0.540282 9.15145 0.353257 9.22861 0.215363 9.36594C0.0774683 9.50327 0 9.68954 0 9.88376C0 10.078 0.0774683 10.2642 0.215363 10.4016C0.353257 10.5389 0.540282 10.6161 0.735294 10.6161H9.61029C9.76785 11.1945 10.1122 11.7052 10.5902 12.0694C11.0683 12.4335 11.6533 12.6308 12.2551 12.6308C12.857 12.6308 13.442 12.4335 13.9201 12.0694C14.3981 11.7052 14.7424 11.1945 14.9 10.6161H16.9118C17.1068 10.6161 17.2938 10.5389 17.4317 10.4016C17.5696 10.2642 17.6471 10.078 17.6471 9.88376C17.6471 9.68954 17.5696 9.50327 17.4317 9.36594C17.2938 9.22861 17.1068 9.15145 16.9118 9.15145ZM12.2551 11.1653C12.0006 11.1653 11.7519 11.0901 11.5403 10.9493C11.3287 10.8085 11.1637 10.6083 11.0663 10.3742C10.9689 10.14 10.9435 9.88233 10.9931 9.63374C11.0428 9.38515 11.1653 9.1568 11.3453 8.97758C11.5252 8.79835 11.7545 8.6763 12.0041 8.62685C12.2537 8.5774 12.5124 8.60278 12.7476 8.69978C12.9827 8.79677 13.1837 8.96103 13.3251 9.17178C13.4664 9.38252 13.5419 9.63029 13.5419 9.88376C13.5415 10.2235 13.4058 10.5493 13.1646 10.7895C12.9234 11.0298 12.5963 11.1649 12.2551 11.1653Z" fill="white"/>
</svg>
