<svg width="33" height="33" viewBox="0 0 33 33" fill="none" xmlns="http://www.w3.org/2000/svg">
<g filter="url(#filter0_d_16_72)">
<path d="M23.3447 6.02811C17.5044 -0.283315 6.73767 3.44306 6.03834 11.9765C5.3002 19.8192 14.0885 25.4426 20.9304 21.4822C26.4761 18.4903 27.7465 10.5337 23.3447 6.02811Z" fill="#5E6067"/>
</g>
<path d="M13.1614 6.84961H12.8281C12.3678 6.84961 11.9948 7.1926 11.9948 7.61571V18.0347C11.9948 18.4578 12.3678 18.8008 12.8281 18.8008H13.1614C13.6216 18.8008 13.9947 18.4578 13.9947 18.0347V7.61571C13.9947 7.1926 13.6216 6.84961 13.1614 6.84961Z" fill="#F73D44" stroke="black"/>
<path d="M19.1614 6.84961H18.8281C18.3678 6.84961 17.9948 7.1926 17.9948 7.61571V18.0347C17.9948 18.4578 18.3678 18.8008 18.8281 18.8008H19.1614C19.6216 18.8008 19.9947 18.4578 19.9947 18.0347V7.61571C19.9947 7.1926 19.6216 6.84961 19.1614 6.84961Z" fill="#34EC74" stroke="black"/>
<path d="M14.1614 8.6875H11.8281C11.3678 8.6875 10.9948 9.0305 10.9948 9.4536V16.1953C10.9948 16.6184 11.3678 16.9614 11.8281 16.9614H14.1614C14.6216 16.9614 14.9947 16.6184 14.9947 16.1953V9.4536C14.9947 9.0305 14.6216 8.6875 14.1614 8.6875Z" fill="#F73D44" stroke="black"/>
<path d="M20.1614 10.0664H17.8281C17.3678 10.0664 16.9948 10.4094 16.9948 10.8325V14.8162C16.9948 15.2393 17.3678 15.5823 17.8281 15.5823H20.1614C20.6216 15.5823 20.9947 15.2393 20.9947 14.8162V10.8325C20.9947 10.4094 20.6216 10.0664 20.1614 10.0664Z" fill="#34EC74" stroke="black"/>
<defs>
<filter id="filter0_d_16_72" x="0.994751" y="0.865234" width="32" height="31.9186" filterUnits="userSpaceOnUse" color-interpolation-filters="sRGB">
<feFlood flood-opacity="0" result="BackgroundImageFix"/>
<feColorMatrix in="SourceAlpha" type="matrix" values="0 0 0 0 0 0 0 0 0 0 0 0 0 0 0 0 0 0 127 0" result="hardAlpha"/>
<feOffset dx="1" dy="4"/>
<feGaussianBlur stdDeviation="3"/>
<feComposite in2="hardAlpha" operator="out"/>
<feColorMatrix type="matrix" values="0 0 0 0 0 0 0 0 0 0 0 0 0 0 0 0 0 0 0.25 0"/>
<feBlend mode="normal" in2="BackgroundImageFix" result="effect1_dropShadow_16_72"/>
<feBlend mode="normal" in="SourceGraphic" in2="effect1_dropShadow_16_72" result="shape"/>
</filter>
</defs>
</svg>
